<svg xmlns="http://www.w3.org/2000/svg">
<defs>
<font id="CreativZooRegular" horiz-adv-x="862" >
  <font-face 
    font-family="CreativZoo Regular"
    font-weight="400"
    font-stretch="normal"
    units-per-em="2048"
    panose-1="2 0 5 6 0 0 0 2 0 4"
    ascent="1548"
    descent="-500"
    x-height="1305"
    cap-height="1606"
    bbox="-124 -300.083 1900 2496"
    underline-thickness="0"
    underline-position="0"
    unicode-range="U+0020-2122"
  />
<missing-glyph horiz-adv-x="1178" 
d="M1148 1015q-327 -44 -337 67q-3 50 56 119q-147 -78 -137 90q6 93 57 252q-87 -180 -162 -213l47 6l4 -31l-175 -25l15 -103l-30 -4l-19 135l122 17q-32 7 -60 46q-37 -77 -85 -27q-32 34 -105 182q-23 48 -32 64q93 -190 83 -276q-9 -84 -153 -43q113 -79 92 -118
q-23 -47 -218 -8q-22 5 -49 11q276 -81 283 -165q8 -63 -163 -120q200 5 191 -73q-9 -69 -175 -183q-27 -17 -59 -38q75 43 126 67t92 36q44 15 59 3q18 -9 18 -42q3 -30 -21 -88q-21 -57 -67 -144q69 101 103 139q38 39 53 24q18 -14 18 -77q3 -63 0 -163v-42q2 -14 0 -41
q0 -26 -1 -48q7 205 25 291q18 87 68 93q-3 3 -18 11q-14 12 -25 30q-11 20 -14 38q0 18 3 41q4 21 16 35q12 16 30 27q21 11 42 14q26 3 44 -2q24 -7 36 -17q16 -12 26 -30q10 -16 13 -38q3 -20 -2 -41q-3 -19 -16 -35q-9 -15 -31 -27q-18 -11 -41 -14q-1 2 -4 0
q-1 -1 -4 -1q6 -2 33 -16q-12 -9 -18 -27q-3 -15 -6 -46q-2 -30 -4 -39q-2 -10 -10 -14q-6 -4 -15 -4q-26 2 -32 41q-3 39 12 69l-31 11q-18 -39 -13 -84q3 -21 17 -44q10 -12 19 -18q15 -5 26 -8q24 -2 38 10q17 12 20 33q5 18 5 44q2 28 5 38q3 8 10 11t13 2q4 -1 12 -7
q10 -9 13 -27q3 -15 -1 -34q-3 -15 -12 -29l29 -12q21 38 14 82q-3 30 -22 45q-15 15 -36 15q7 36 21 55q15 19 33 22q21 5 44 -4q26 -7 53 -25q30 -16 61 -40q33 -22 68 -49q15 -9 21 -16q9 -5 19 -14q13 -9 22 -16q-138 101 -204 187q-91 118 41 120q21 0 42 -2
q-256 144 194 229zM974 379l-134 154l107 -174zM969 1401l-23 19l-190 -216zM737 884q2 -21 -7 -39q-10 -27 -32 -42q-9 -5 -13 -8l-5 33l4 4l9 9q17 21 11 53q-4 33 -25 48q-21 18 -58 12q-33 -3 -51 -27q-15 -21 -12 -54q4 -29 26 -47q12 -8 16 -10l16 2l-7 52l29 4

<glyph glyph-name=".notdef" horiz-adv-x="1178" 
d="M1148 1015q-327 -44 -337 67q-3 50 56 119q-147 -78 -137 90q6 93 57 252q-87 -180 -162 -213l47 6l4 -31l-175 -25l15 -103l-30 -4l-19 135l122 17q-32 7 -60 46q-37 -77 -85 -27q-32 34 -105 182q-23 48 -32 64q93 -190 83 -276q-9 -84 -153 -43q113 -79 92 -118
q-23 -47 -218 -8q-22 5 -49 11q276 -81 283 -165q8 -63 -163 -120q200 5 191 -73q-9 -69 -175 -183q-27 -17 -59 -38q75 43 126 67t92 36q44 15 59 3q18 -9 18 -42q3 -30 -21 -88q-21 -57 -67 -144q69 101 103 139q38 39 53 24q18 -14 18 -77q3 -63 0 -163v-42q2 -14 0 -41
q0 -26 -1 -48q7 205 25 291q18 87 68 93q-3 3 -18 11q-14 12 -25 30q-11 20 -14 38q0 18 3 41q4 21 16 35q12 16 30 27q21 11 42 14q26 3 44 -2q24 -7 36 -17q16 -12 26 -30q10 -16 13 -38q3 -20 -2 -41q-3 -19 -16 -35q-9 -15 -31 -27q-18 -11 -41 -14q-1 2 -4 0
q-1 -1 -4 -1q6 -2 33 -16q-12 -9 -18 -27q-3 -15 -6 -46q-2 -30 -4 -39q-2 -10 -10 -14q-6 -4 -15 -4q-26 2 -32 41q-3 39 12 69l-31 11q-18 -39 -13 -84q3 -21 17 -44q10 -12 19 -18q15 -5 26 -8q24 -2 38 10q17 12 20 33q5 18 5 44q2 28 5 38q3 8 10 11t13 2q4 -1 12 -7
q10 -9 13 -27q3 -15 -1 -34q-3 -15 -12 -29l29 -12q21 38 14 82q-3 30 -22 45q-15 15 -36 15q7 36 21 55q15 19 33 22q21 5 44 -4q26 -7 53 -25q30 -16 61 -40q33 -22 68 -49q15 -9 21 -16q9 -5 19 -14q13 -9 22 -16q-138 101 -204 187q-91 118 41 120q21 0 42 -2
q-256 144 194 229zM974 379l-134 154l107 -174zM969 1401l-23 19l-190 -216zM737 884q2 -21 -7 -39q-10 -27 -32 -42q-9 -5 -13 -8l-5 33l4 4l9 9q17 21 11 53q-4 33 -25 48q-21 18 -58 12q-33 -3 -51 -27q-15 -21 -12 -54q4 -29 26 -47q12 -8 16 -10l16 2l-7 52l29 4
l11 -84l-107 -15l-4 31l20 3q-26 24 -31 60q-3 19 2 40q7 21 16 36q12 18 30 27q21 12 42 14q27 4 44 -2q21 -6 36 -18q17 -14 26 -29q10 -17 13 -38q3 -5 1 -15zM734 678q0 8 -1 11q-3 33 -25 48q-20 18 -58 12q-33 -5 -51 -27q-15 -21 -12 -54q5 -30 26 -47q24 -16 57 -13
q36 6 52 28q12 16 12 42zM707 1095q0 -13 -3 -25q-4 -21 -16 -36q-9 -14 -30 -26t-42 -15q-24 -3 -44 2q-22 6 -37 18q-15 14 -25 29q-10 18 -13 39q-3 19 2 40q7 21 16 36q12 18 30 27q21 12 42 14q27 4 44 -2q21 -6 36 -18q17 -14 26 -29q10 -17 13 -39q3 -3 1 -15z
M675 1095v11q-3 33 -26 48q-21 18 -58 12q-33 -4 -51 -28q-15 -20 -12 -53q4 -29 26 -47t57 -13q37 7 52 28q12 16 12 42zM661 1407q2 9 -1 11l-10 74l-205 -28l5 -33l74 11l6 -42q4 -28 26 -46q22 -16 49 -13q29 5 44 25q12 16 12 41zM649 1496l-5 42l-88 54l69 77l-6 42
l-90 -100l-115 71l6 -42l88 -54l-69 -77l6 -42l90 100zM630 1407q0 -12 -6 -21q-8 -12 -23 -14t-26 7t-14 27l-6 40l69 10l5 -41v-4q1 -3 1 -4zM619 1714l-19 134l-205 -29l19 -134l30 4l-15 103l60 8l13 -91l29 4l-13 92l57 8l14 -103zM489 741q1 -15 -11 -30
q-9 -11 -33 -11h-57v10h58q16 3 25 9q9 9 8 24q0 12 -4 18q-5 13 -14 16q-9 -2 -17 -2h-56v10h57q34 0 34 33q0 21 -16 31h-75v11h97v-9l-10 -2q15 -14 14 -32q1 -24 -20 -36q12 -9 15 -18q6 -9 5 -22zM489 1036q2 -12 -7 -26q-6 -12 -18 -18v11q14 12 14 33q0 16 -11 29
q-9 12 -31 12q-21 0 -31 -12q-11 -13 -11 -29q0 -21 15 -33v-11q-12 6 -18 18q-7 14 -7 26q0 21 15 36t37 15q24 0 38 -15q15 -15 15 -36zM436 876q-22 0 -37 15t-15 36t15 36t37 15q24 0 38 -15q15 -15 15 -36t-15 -36q-14 -15 -38 -15zM467 956q-9 12 -31 12
q-21 0 -31 -12q-11 -12 -11 -29q0 -15 11 -29q11 -12 31 -12q22 0 31 12q11 14 11 29q0 17 -11 29zM411 1109v-10h-23v10h23zM289 801l-259 -65l12 -35zM253 1166l-158 122l-20 -25z" />
    <glyph glyph-name="NULL" horiz-adv-x="0" 
 />
    <glyph glyph-name="glyph2" horiz-adv-x="2048" 
 />
    <glyph glyph-name="a" unicode="a" horiz-adv-x="896" 
d="M856 448q-57 2 -213 -7q-85 -3 -127 -7q-40 -2 -112 0q-70 4 -124 14q-57 12 -105 44q-45 33 -73 75q-26 45 -44 98q-16 57 -22 108q-6 53 -5 110q5 221 113 338q45 48 111 72q69 25 146 22q75 -2 157 -20t124 -21v31h174v-857zM682 1126q-38 2 -126 20q-87 21 -141 18
q-98 -3 -152 -69q-63 -75 -64 -226q0 -225 120 -268q37 -11 91 -14q57 0 139 3q85 6 133 5v531z" />
    <glyph glyph-name="b" unicode="b" horiz-adv-x="897" 
d="M40 1679h174v-405q42 3 124 21t157 20q78 3 146 -22q69 -24 111 -72q111 -119 114 -338q2 -57 -4 -110q-6 -51 -23 -108q-17 -52 -44 -97q-27 -42 -73 -75q-45 -33 -105 -45q-51 -10 -124 -13q-70 -3 -112 -1q-41 4 -128 7q-155 9 -213 7v1231zM214 1126v-531
q48 2 132 -4q87 -3 139 -4q57 3 92 14q120 43 120 268q0 151 -63 226q-54 67 -153 70q-53 3 -140 -18q-87 -18 -127 -21z" />
    <glyph glyph-name="c" unicode="c" horiz-adv-x="745" 
d="M71 1111q39 102 124 156q87 55 205 55q153 0 291 -61l-26 -143q-133 64 -253 57q-111 -5 -165 -83q-51 -72 -51 -234q0 -132 51 -202q31 -40 70 -58q40 -15 96 -21q127 -9 292 14v-142q-157 -25 -305 -17q-260 14 -329 208q-12 39 -18 55q-4 18 -13 63q-6 46 -8 100
q-2 148 39 253z" />
    <glyph glyph-name="d" unicode="d" horiz-adv-x="898" 
d="M858 448q-57 2 -213 -7q-85 -3 -127 -7q-40 -2 -112 0q-70 4 -124 14q-74 14 -126 59q-51 45 -78 108q-26 63 -37 129t-9 139q6 219 114 338q45 48 111 72q69 25 146 22q75 -2 157 -20t124 -21v405h174v-1231zM684 1126q-40 3 -127 21q-87 21 -140 18q-96 -3 -153 -70
q-63 -75 -63 -226q0 -225 120 -268q37 -11 91 -14q57 0 139 3q85 6 133 5v531z" />
    <glyph glyph-name="e" unicode="e" horiz-adv-x="839" 
d="M423 1322q111 0 191 -32q82 -32 127 -93q33 -45 47 -109q16 -63 16 -132t-6 -147h-603q-1 -99 37 -160q51 -75 195 -75q159 0 362 43v-147q-231 -40 -366 -40q-216 0 -306 101q-87 99 -87 345q0 238 87 336q99 110 306 110zM423 1176q-143 0 -191 -74q-30 -48 -37 -156
h455q8 105 -28 156q-48 74 -199 74z" />
    <glyph glyph-name="f" unicode="f" horiz-adv-x="652" 
d="M182 1747q54 69 167 75q116 9 263 -39v-141q-189 54 -255 23q-42 -21 -45 -93q-2 -82 -1 -266l260 -1v-147l-260 2l1 -712h-176v711h-96v147h96v266q2 120 46 175z" />
    <glyph glyph-name="g" unicode="g" horiz-adv-x="897" 
d="M856 1305v-857v-52v-42q3 -30 1 -44q1 -12 -2 -41q-1 -27 -5 -43q-2 -14 -11 -38q-6 -24 -18 -39q-11 -15 -27 -34q-16 -18 -37 -33q-21 -14 -42 -26q-21 -9 -47 -18q-26 -6 -44 -12q-18 -3 -51 -6q-33 0 -47 -2t-55 1q-39 3 -50 3q-9 2 -57 5q-45 6 -54 6q-98 11 -170 8
v151q21 0 45 -1q25 0 64 -3q39 -2 66 -3q24 -1 96 -11q73 -10 121 -8q48 3 87 24q23 14 37 40q16 27 20 69q6 43 6 70q4 29 1 74q-4 2 -19 -1q-12 0 -20 -1q-86 -3 -127 -7q-39 -2 -112 0q-71 4 -125 14q-57 12 -105 44q-45 33 -73 75q-26 45 -44 98q-16 57 -22 108
q-6 53 -5 110q6 219 114 338q43 48 111 72q68 25 146 22q76 -2 157 -20q82 -18 124 -21v31h173zM683 1126q-35 3 -125 21q-88 21 -142 18q-98 -3 -153 -70q-63 -75 -63 -226q0 -225 120 -268q84 -30 363 -3v528z" />
    <glyph glyph-name="h" unicode="h" 
d="M212 1679v-490q106 81 195 109q87 27 159 18t131 -45q57 -34 91 -103q34 -66 34 -159v-561h-172v494q0 98 -42 154q-44 60 -110 67q-66 9 -139 -19q-63 -21 -146 -87q2 -203 -1 -609h-172v1231h172z" />
    <glyph glyph-name="i" unicode="i" horiz-adv-x="308" 
d="M155 1666q51 0 83 -34q36 -33 35 -84q1 -50 -35 -85q-33 -35 -83 -35q-49 0 -85 35q-33 35 -35 85q2 51 35 84q34 34 85 34zM242 1305v-857h-176v857h176z" />
    <glyph glyph-name="j" unicode="j" horiz-adv-x="583" 
d="M428 1671q52 1 85 -35q35 -33 35 -84t-35 -85q-37 -35 -85 -35q-50 0 -85 35q-33 34 -34 85q2 48 35 85q33 34 84 34zM517 1306v-908q1 -116 -47 -175q-54 -66 -167 -75q-113 -6 -263 39v141q190 -54 255 -23q45 24 46 93v908h176z" />
    <glyph glyph-name="k" unicode="k" horiz-adv-x="794" 
d="M214 1679v-742q63 71 177 211q117 142 131 157h216q-315 -363 -342 -394q70 0 124 -34q57 -33 91 -91q36 -57 62 -115q27 -57 53 -124q27 -66 48 -99h-196q-6 14 -16 39q-10 27 -19 54t-23 60q-14 34 -32 61q-16 28 -43 55q-25 27 -58 41q-31 15 -76 21q-43 9 -97 -6
v-325h-174v1231h174z" />
    <glyph glyph-name="l" unicode="l" horiz-adv-x="260" 
d="M220 1679v-1231h-180v1231h180z" />
    <glyph glyph-name="m" unicode="m" horiz-adv-x="1448" 
d="M211 1190q45 33 71 49q28 17 73 41t92 33t97 5q156 -12 228 -151q63 60 145 105q85 46 175 46q132 0 221 -80q95 -81 95 -227v-563h-172v494q0 78 -27 131q-27 54 -75 75q-46 20 -100 17q-56 -3 -114 -30q-66 -32 -120 -78q6 -15 6 -46v-562h-173v493q0 98 -39 154
q-40 60 -103 68t-133 -19q-32 -11 -76 -38q-42 -27 -66 -49q-3 -195 0 -609h-176v856h171v-115v0z" />
    <glyph glyph-name="n" unicode="n" 
d="M212 1305v-116q106 81 195 109q87 27 159 18t131 -45q57 -34 91 -103q34 -66 34 -159v-561h-172v494q0 98 -42 154q-44 60 -110 67q-66 9 -139 -19q-63 -21 -146 -87v-609h-173v857h172z" />
    <glyph glyph-name="o" unicode="o" horiz-adv-x="870" 
d="M436 1323q228 1 317 -101q87 -98 87 -345q0 -246 -87 -345q-105 -102 -317 -102q-228 0 -319 102q-87 99 -87 345q0 247 87 345q106 102 319 101zM436 1180q-152 0 -200 -75q-42 -57 -42 -229q0 -170 42 -227q54 -81 200 -76q152 1 202 76q38 59 40 230q2 172 -40 226
q-56 78 -202 75z" />
    <glyph glyph-name="p" unicode="p" horiz-adv-x="897" 
d="M495 1315q159 5 257 -94q64 -63 87 -146q24 -81 27 -192q2 -57 -4 -110q-6 -51 -23 -108q-17 -52 -44 -97q-27 -42 -73 -75q-45 -33 -105 -45q-51 -10 -124 -13q-70 -3 -112 -1q-41 4 -128 7h-18q-12 3 -18 2v-392h-175v1254h175v-30q41 3 122 20q81 18 156 20zM481 1165
q-49 3 -142 -17t-122 -22v-3v-525q15 0 78 -6q66 -3 87 -5q24 1 68 -2q46 0 75 3q31 6 52 13q120 43 120 268q0 151 -63 226q-54 67 -153 70z" />
    <glyph glyph-name="q" unicode="q" horiz-adv-x="913" 
d="M410 1315q75 -1 156 -19q82 -18 122 -21v30h175q3 -242 0 -1254h-175v392q-6 2 -18 -1q-12 0 -18 -1q-86 -3 -127 -7q-39 -2 -112 0q-71 4 -125 14q-57 12 -105 44q-45 33 -73 75q-26 45 -44 98q-16 57 -22 108q-6 53 -5 110q3 111 26 192q25 83 88 146q99 99 257 94z
M424 1165q-98 -3 -153 -70q-63 -75 -63 -226q0 -225 120 -268q24 -6 52 -12q30 -3 74 -4q46 1 69 1q24 3 87 6q64 6 78 6v525v3q-28 3 -121 21q-93 21 -143 18z" />
    <glyph glyph-name="r" unicode="r" horiz-adv-x="554" 
d="M514 1146q-74 3 -168 -24q-94 -26 -134 -74v-600h-172v857h172v-113q62 64 131 91q72 28 171 42v-179z" />
    <glyph glyph-name="s" unicode="s" horiz-adv-x="754" 
d="M364 1323q150 -1 285 -67q-21 -135 -25 -144q-129 66 -252 66q-156 0 -175 -84q-7 -32 14 -61q23 -27 74 -43q37 -9 103 -21t100 -21q172 -42 212 -155q24 -69 7 -140q-27 -113 -122 -170q-95 -56 -231 -53q-158 4 -293 67q3 15 11 66q9 54 15 81q69 -38 179 -56
q112 -16 205 10q27 10 48 32t27 53q6 33 -15 65q-19 30 -71 45q-30 9 -64 16q-33 9 -79 16q-45 9 -64 13q-51 12 -93 30q-40 21 -73 51q-33 33 -45 80q-12 51 0 110q14 65 58 116q88 101 264 98z" />
    <glyph glyph-name="t" unicode="t" horiz-adv-x="642" 
d="M360 1304l242 1v-147h-242l1 -483q1 -33 10 -55q9 -20 35 -34q56 -26 196 8v-145q-105 -21 -204 -16q-116 7 -167 70q-43 55 -46 175v480h-145v147h145v204l175 78v-283z" />
    <glyph glyph-name="u" unicode="u" 
d="M650 448v116q-105 -81 -195 -109q-84 -27 -159 -18q-74 9 -131 44q-55 35 -91 104q-34 69 -34 158v562h172v-494q0 -99 42 -155q44 -57 110 -66q66 -8 139 19q65 24 146 87v609h173v-857h-172z" />
    <glyph glyph-name="v" unicode="v" horiz-adv-x="850" 
d="M203 1305l223 -743l222 743h182l-274 -857h-263l-273 857h183z" />
    <glyph glyph-name="w" unicode="w" horiz-adv-x="1482" 
d="M203 1305l222 -743l223 743h187l223 -743l222 743h182l-267 -857h-250l-203 634l-203 -634h-250l-269 857h183z" />
    <glyph glyph-name="x" unicode="x" horiz-adv-x="958" 
d="M226 1305l253 -321l254 321h205l-337 -428l336 -429h-205l-253 320l-252 -320h-206l337 429l-338 428h206z" />
    <glyph glyph-name="y" unicode="y" 
d="M204 1305l229 -774l227 774h182l-262 -867q-56 -186 -64 -379h-184q4 101 13 164q6 33 12 68q9 36 20 86q14 51 17 70h-118l-256 858h184z" />
    <glyph glyph-name="z" unicode="z" horiz-adv-x="800" 
d="M760 1305v-165l-524 -541h524v-151h-720v164l524 542h-524v151h720z" />
    <glyph glyph-name="A" unicode="A" horiz-adv-x="1106" 
d="M683 1606l403 -1158h-184l-102 305h-493l-103 -305h-184l403 1158h260zM361 912h385l-192 540z" />
    <glyph glyph-name="B" unicode="B" horiz-adv-x="984" 
d="M582 1606q142 0 227 -85q87 -86 83 -216q0 -69 -36 -136q-36 -65 -87 -111q42 -21 80 -57q39 -33 61 -73q44 -74 44 -161q0 -141 -79 -227q-84 -92 -249 -92h-586v1158h542zM204 1109h356q88 0 134 50q42 47 42 125t-42 122q-48 51 -134 51h-357zM204 600h386
q90 0 142 56q48 52 48 133q0 82 -48 133q-50 57 -142 55h-386v-377z" />
    <glyph glyph-name="C" unicode="C" horiz-adv-x="968" 
d="M383 1602q127 34 280 5q125 -21 245 -79l-24 -156q-120 64 -213 80q-107 21 -194 0q-141 -30 -210 -147t-65 -308q4 -203 104 -309q48 -50 111 -69q63 -17 151 -20q144 -3 360 20v-162q-282 -30 -430 -21q-182 14 -289 104q-171 147 -178 449q-5 247 85 406
q90 162 267 207z" />
    <glyph glyph-name="D" unicode="D" horiz-adv-x="1046" 
d="M399 1606q134 0 239 -10q93 -8 162 -41q117 -51 162 -168q54 -129 54 -361q0 -234 -51 -359q-47 -120 -152 -168q-69 -32 -162 -41q-105 -10 -252 -10h-359v1158h359zM207 616q37 2 100 0q66 0 118 -1q56 1 101 1q94 4 159 25q81 31 123 124q39 85 37 261q0 180 -39 267
q-42 95 -126 121q-69 22 -167 24h-306v-822z" />
    <glyph glyph-name="E" unicode="E" horiz-adv-x="902" 
d="M862 1606v-164h-650v-318h539v-164h-539v-349h650v-163h-822v1158h822z" />
    <glyph glyph-name="F" unicode="F" horiz-adv-x="900" 
d="M860 1606v-164h-649v-314h539v-164h-539v-516h-171v1158h820z" />
    <glyph glyph-name="G" unicode="G" horiz-adv-x="992" 
d="M533 1620q63 0 134 -13q114 -21 237 -80l-24 -151q-120 64 -213 80q-108 21 -195 0q-140 -30 -209 -149q-69 -120 -65 -310q4 -207 104 -313q48 -50 111 -69q63 -17 151 -20q80 -1 221 8v326h-183v168h183h139h28v-640q-24 1 -50 -2t-59 -6t-52 -6q-183 -13 -289 -7
q-182 14 -289 104q-171 147 -178 449q-5 247 85 406q90 162 267 207q65 18 146 18z" />
    <glyph glyph-name="H" unicode="H" horiz-adv-x="996" 
d="M214 1606v-477h568v477h174v-1158h-174v519h-568v-519h-174v1158h174z" />
    <glyph glyph-name="I" unicode="I" horiz-adv-x="264" 
d="M224 1606v-1158h-184v1158h184z" />
    <glyph glyph-name="J" unicode="J" horiz-adv-x="738" 
d="M698 1606v-788v-71q0 -168 -102 -252q-92 -74 -255 -65q-45 2 -148 11q-99 9 -163 11v147q54 3 156 -7q105 -9 151 -9q126 0 168 99q19 45 19 138v786h174z" />
    <glyph glyph-name="K" unicode="K" horiz-adv-x="944" 
d="M209 1606v-585l452 585h217l-78 -98q-78 -96 -191 -241q-113 -143 -183 -236q72 7 132 -20q62 -25 101 -67q41 -42 80 -108q41 -64 65 -124q26 -57 59 -137q35 -79 61 -127h-197q-11 18 -26 46q-11 30 -23 58q-10 30 -25 65q-15 36 -29 66q-15 33 -36 65q-21 34 -45 58
q-23 26 -57 47q-33 23 -73 32q-39 10 -91 12q-50 3 -113 -12v-437h-169v1158h169z" />
    <glyph glyph-name="L" unicode="L" horiz-adv-x="850" 
d="M215 1606v-999h615v-159h-790v1158h175z" />
    <glyph glyph-name="M" unicode="M" horiz-adv-x="1252" 
d="M317 1606l308 -942l309 942h278v-1158h-170v947l-328 -947h-177l-328 941v-941h-169v1158h277z" />
    <glyph glyph-name="N" unicode="N" horiz-adv-x="1062" 
d="M267 1606l580 -935v935h175v-1158h-226l-581 933v-933h-175v1158h227z" />
    <glyph glyph-name="O" unicode="O" horiz-adv-x="1120" 
d="M555 1629q299 0 416 -132q119 -132 119 -471q0 -334 -119 -469q-132 -128 -411 -128q-296 0 -410 128q-120 135 -120 469q0 336 120 471q135 129 405 132zM560 1468q-218 0 -292 -116q-63 -102 -65 -329q3 -223 65 -325q40 -56 115 -83q78 -25 177 -25q222 0 293 111
q64 100 64 325q6 237 -64 330q-87 118 -293 112z" />
    <glyph glyph-name="P" unicode="P" horiz-adv-x="890" 
d="M485 1606q185 0 278 -88q97 -90 97 -290t-98 -295q-94 -92 -277 -92h-275v-393h-170v1158h445zM210 1452v-459h265q109 1 163 55q58 58 58 176t-58 175q-24 25 -71 39t-92 14h-265z" />
    <glyph glyph-name="Q" unicode="Q" horiz-adv-x="1120" 
d="M561 1625q297 1 410 -128q119 -132 119 -471q0 -334 -119 -469q-131 -128 -410 -128q-297 0 -411 128q-120 135 -120 469q0 336 120 471q135 129 411 128zM561 1468q-221 0 -293 -112q-63 -102 -65 -330q-7 -230 65 -328q86 -116 293 -111q223 0 292 111q64 100 64 328
q6 237 -64 330q-87 118 -292 112zM554 375q48 3 112 -11q66 -14 115 -30q51 -15 118 -15q67 3 127 32v-149q-56 -26 -120 -28q-64 0 -121 13q-57 15 -113 29q-56 16 -115 13q-59 -2 -110 -30v145q51 28 107 31z" />
    <glyph glyph-name="R" unicode="R" horiz-adv-x="976" 
d="M494 1606q180 0 274 -98q96 -96 90 -269q-3 -75 -39 -149q-45 -93 -133 -144q50 -12 89 -56q39 -42 63 -103q24 -58 41 -121q17 -60 37 -123t40 -95h-188q-10 15 -25 66q-12 52 -30 109q-15 57 -42 114q-24 57 -69 94q-44 37 -101 37q-289 -2 -292 -1l1 -419h-170v1158
h454zM209 1022l264 1q111 1 161 43q58 52 58 166t-58 170q-50 51 -161 49h-264v-429z" />
    <glyph glyph-name="S" unicode="S" horiz-adv-x="990" 
d="M475 1625q196 0 379 -84l-25 -142q-99 53 -233 73q-135 20 -249 -13q-49 -15 -82 -49q-32 -32 -41 -71q-12 -63 33 -114q36 -39 110 -61q57 -16 150 -34q95 -18 139 -30q226 -58 274 -199q30 -82 9 -181q-21 -96 -84 -160q-66 -68 -153 -98q-90 -33 -231 -33
q-198 1 -378 85l25 150q154 -68 325 -76q256 -12 319 127q34 73 -5 133t-133 84q-40 12 -139 34q-97 24 -151 37q-63 17 -126 50q-63 36 -97 78q-81 105 -45 245q42 162 221 224q72 27 188 25z" />
    <glyph glyph-name="T" unicode="T" horiz-adv-x="1008" 
d="M973 1606v-160h-383v-998h-171v998h-384v160h938z" />
    <glyph glyph-name="U" unicode="U" horiz-adv-x="1076" 
d="M228 1606l1 -656q3 -174 88 -266q85 -87 220 -89q139 0 220 87q87 94 87 268v656h192v-679q0 -234 -143 -369q-134 -128 -356 -128t-357 128q-140 135 -140 369v679h188z" />
    <glyph glyph-name="V" unicode="V" horiz-adv-x="1118" 
d="M210 1606l350 -1004l348 1004h190l-404 -1158h-270l-404 1158h190z" />
    <glyph glyph-name="W" unicode="W" horiz-adv-x="1920" 
d="M213 1606l338 -1004q232 760 304 1004h210l306 -1004l336 1004h193l-391 -1158h-258l-291 918l-291 -918h-262l-387 1158h193z" />
    <glyph glyph-name="X" unicode="X" horiz-adv-x="1146" 
d="M238 1606l335 -437l335 437h218l-444 -579l444 -579h-218l-335 437l-335 -437h-218l444 579l-444 579h218z" />
    <glyph glyph-name="Y" unicode="Y" horiz-adv-x="1048" 
d="M216 1605l308 -517l308 517h196l-417 -704v-453h-173v453l-418 704h196z" />
    <glyph glyph-name="Z" unicode="Z" horiz-adv-x="1032" 
d="M992 1606v-173l-729 -822h728v-163h-951v172l729 822h-728v164h951z" />
    <glyph glyph-name="space" unicode=" " horiz-adv-x="500" 
 />
    <glyph glyph-name="zero" unicode="0" horiz-adv-x="1000" 
d="M501 1625q135 2 212 -31q81 -30 138 -97q119 -132 119 -471q0 -334 -119 -469q-57 -64 -137 -97q-78 -30 -213 -31q-135 1 -214 31q-79 33 -137 97q-120 135 -120 469q0 336 120 471q58 67 137 97q79 33 214 31zM742 1344q-39 63 -93 85q-54 24 -148 24q-93 0 -148 -24
q-55 -22 -94 -85q-30 -46 -42 -124q-11 -76 -11 -194q0 -116 11 -192q12 -76 42 -124q39 -60 93 -84t149 -24q96 0 148 23q54 25 93 85q32 48 41 123q11 76 11 193q2 118 -10 194q-9 76 -42 124z" />
    <glyph glyph-name="one" unicode="1" horiz-adv-x="336" 
d="M256 1606v-1158h-176v1158h176z" />
    <glyph glyph-name="period" unicode="." horiz-adv-x="340" 
d="M255 464q-33 -33 -85 -35q-50 -1 -85 35t-35 85q0 51 35 84q35 35 85 35q52 0 85 -35q35 -33 35 -84q0 -49 -35 -85z" />
    <glyph glyph-name="comma" unicode="," horiz-adv-x="353" 
d="M59 572q-9 -50 21 -89q33 -38 84 -42q-35 -69 -74 -124h105q39 57 60 99q33 64 39 104q9 48 -14 88q-21 42 -67 54q-52 18 -98 -9q-44 -24 -56 -81z" />
    <glyph glyph-name="three" unicode="3" horiz-adv-x="878" 
d="M104 1593q32 3 111 13q81 10 146 15q66 6 123 3q148 -3 230 -66q99 -72 113 -213q9 -81 -27 -159q-34 -76 -118 -128q72 -33 118 -111q48 -75 48 -174q0 -135 -82 -236q-51 -63 -161 -91q-63 -14 -151 -16q-87 0 -171 7q-81 9 -199 26q-28 3 -44 4v169q40 -2 47 -3
q40 -3 136 -16q98 -12 144 -16q49 -3 136 1q83 10 125 49q52 49 52 135q0 90 -56 140q-56 51 -136 49h-215v148h194q79 1 133 43q58 45 58 125q0 81 -51 124q-42 35 -117 44q-36 7 -92 3q-56 -3 -96 -9q-40 -5 -98 -14q-57 -9 -96 -12q-6 0 -48 -3v166q38 3 44 3z" />
    <glyph glyph-name="two" unicode="2" horiz-adv-x="910" 
d="M125 1583q29 3 175 25q147 24 227 21q145 -3 232 -72q99 -75 105 -223q6 -110 -43 -189q-22 -39 -60 -70q-37 -29 -97 -68q-28 -15 -134 -76q-105 -57 -162 -94q-75 -48 -111 -90q-45 -53 -37 -107q2 -2 2 -8q3 -6 1 -8h642v-176h-815q0 129 -4 193q-6 111 36 182
q45 73 133 129q70 45 184 103q115 61 157 85q76 46 105 85q39 51 29 107q-9 64 -66 98q-46 30 -115 27q-87 0 -221 -21q-135 -18 -159 -22q-15 -2 -49 -4v169q6 -1 21 1q15 3 24 3z" />
    <glyph glyph-name="four" unicode="4" horiz-adv-x="964" 
d="M626 1606l-389 -699h396v292h173v-292h118v-170h-118v-289h-173v289h-593v185l384 684h202z" />
    <glyph glyph-name="five" unicode="5" horiz-adv-x="884" 
d="M778 1606v-167h-570v-279q44 2 122 15q82 15 127 16q192 3 282 -68q115 -89 115 -315q0 -174 -70 -265q-60 -78 -176 -102q-51 -9 -123 -11q-71 0 -122 3q-51 6 -145 15q-94 12 -133 14q-9 3 -45 3v178q42 0 49 -3q42 -3 105 -13q66 -9 110 -16q45 -7 108 -11
q64 -4 101 4q81 12 120 56q46 52 46 148q0 116 -60 166q-49 44 -148 46q-67 3 -208 -19q-140 -21 -174 -25q-7 0 -49 -3v633h738z" />
    <glyph glyph-name="six" unicode="6" horiz-adv-x="982" 
d="M507 1625q74 3 173 -7q102 -8 152 -10v-167q-42 3 -128 9q-84 8 -119 8q-129 0 -189 -18q-99 -32 -143 -126q-31 -72 -40 -189q37 3 171 23q135 21 210 21q171 3 255 -64q103 -81 103 -285q0 -254 -157 -333q-67 -33 -155 -48q-88 -13 -164 -10q-76 5 -134 20
q-104 30 -166 93q-117 123 -138 375q-8 99 -2 194q16 275 140 403q56 58 134 83q78 27 197 28zM612 1000q-64 3 -205 -21q-139 -21 -196 -25q6 -150 39 -225q40 -87 142 -122q80 -27 194 -15q100 12 151 67q49 51 46 153q-1 112 -49 152q-40 36 -122 36z" />
    <glyph glyph-name="seven" unicode="7" horiz-adv-x="966" 
d="M926 1606v-185l-338 -619q-60 -111 -70 -135q-21 -57 -23 -121v-98h-173v135q0 92 16 131q4 8 64 124q93 178 315 598h-677v170h886z" />
    <glyph glyph-name="nine" unicode="9" horiz-adv-x="982" 
d="M475 429q-71 -1 -173 7q-100 8 -152 10v167q45 -1 129 -10q85 -8 118 -8q126 1 189 19q102 33 143 126q33 75 40 189q-36 -3 -171 -23t-210 -21q-171 -3 -255 63q-103 82 -103 286q0 255 157 333q68 33 155 47q90 14 164 10q76 -4 134 -20q106 -28 166 -92
q117 -123 138 -375q8 -99 2 -194q-16 -273 -140 -403q-56 -56 -134 -83q-78 -25 -197 -28zM370 1054q66 0 205 21q141 22 196 25q-5 150 -39 225q-38 87 -142 122q-76 27 -194 14q-99 -9 -151 -66q-48 -48 -46 -153q3 -111 49 -153q40 -35 122 -35z" />
    <glyph glyph-name="eight" unicode="8" horiz-adv-x="973" 
d="M70 1324q4 78 40 137q38 62 96 95q60 36 131 52q72 18 150 17q59 1 116 -11q59 -9 110 -36q53 -24 92 -60q41 -33 62 -87q25 -51 22 -115q0 -75 -54 -147q-53 -69 -128 -114q117 -61 176 -131q60 -70 56 -178q-3 -108 -68 -185q-65 -78 -197 -111q-54 -12 -126 -18
q-72 -3 -153 1q-81 5 -158 35t-125 81q-70 75 -76 175q-6 102 57 186q51 66 164 150q-33 18 -64 40q-28 22 -60 54q-30 33 -48 77q-17 45 -15 93zM496 1472q-74 2 -137 -22q-61 -21 -91 -59q-30 -36 -28 -82q3 -45 45 -87q26 -24 77 -48q54 -24 91 -37q39 -12 105 -33
q46 24 87 60q41 38 62 80q31 64 10 114q-19 52 -79 82q-60 32 -142 32zM401 1004q-35 -24 -59 -43q-24 -17 -55 -47q-31 -27 -49 -60q-18 -32 -22 -66q-12 -90 62 -141q75 -50 219 -50q73 0 130 21q59 22 89 55q32 35 41 74q11 40 -13 82q-22 42 -76 74q-72 45 -267 101z
" />
    <glyph glyph-name="glyph68" horiz-adv-x="2048" 
d="M932 877q0 -33 -1 -53q-2 -48 40 -66q47 -18 53 -22q15 -4 18 -14q10 -14 7 -30q-5 -50 -74 -41q-27 4 -93 7v-65q39 -1 93 -7q77 -10 115 28q30 30 28 88q0 40 -21 62q-18 24 -63 39q-26 10 -32 24q0 3 -1 50h-69z" />
    <glyph glyph-name="glyph69" horiz-adv-x="2048" 
d="M955 2144l-200 352h99l146 -194l146 194h99l-200 -352h-90z" />
    <glyph glyph-name="glyph70" horiz-adv-x="2048" 
d="M955 2496l-200 -352h99l146 194l146 -194h99l-200 352h-90z" />
    <glyph glyph-name="glyph71" horiz-adv-x="2048" 
d="M1150 2423q-62 63 -150 63q-87 0 -150 -62q-63 -63 -63 -151q-1 -87 62 -150q63 -62 151 -62t150 62q63 63 63 150q0 88 -63 150zM911 2362q39 39 89 37q52 2 89 -36q37 -36 37 -90q0 -51 -37 -89q-37 -36 -89 -37q-50 0 -89 36q-37 39 -37 90q0 53 37 89z" />
    <glyph glyph-name="quotesingle" unicode="'" horiz-adv-x="272" 
d="M39 1642q-9 -42 17 -74q27 -32 71 -35q-28 -61 -61 -103h87q29 42 50 82q27 51 32 87q9 40 -14 73q-21 34 -59 44q-44 14 -79 -7t-44 -67z" />
    <glyph glyph-name="grave" unicode="`" horiz-adv-x="322" 
d="M30 2039l191 -294h71l-88 294h-174z" />
    <glyph glyph-name="acute" unicode="&#xb4;" horiz-adv-x="322" 
d="M292 1991l-191 -294h-71l88 294h174z" />
    <glyph glyph-name="glyph75" horiz-adv-x="2048" 
d="M911 2361q-29 29 -69 29q-39 0 -69 -29q-29 -27 -29 -70q0 -39 29 -69q30 -27 69 -29q42 2 70 29q30 30 29 69q0 43 -30 70zM1227 2361q-29 29 -69 29q-39 0 -69 -29q-30 -27 -30 -70q2 -39 29 -69q30 -27 70 -29q40 1 69 28q29 31 29 70q0 43 -29 70z" />
    <glyph glyph-name="cedilla" unicode="&#xb8;" horiz-adv-x="298" 
d="M80 449q0 -33 -1 -53q-2 -48 40 -66q47 -18 53 -22q15 -4 18 -14q10 -14 7 -30q-5 -50 -74 -41q-27 4 -93 7v-65q39 -1 93 -7q77 -10 115 28q30 30 28 88q0 40 -21 62q-18 24 -63 39q-26 10 -32 24q0 3 -1 50h-69z" />
    <glyph glyph-name="cedilla" unicode="&#x327;" horiz-adv-x="298" 
d="M80 449q0 -33 -1 -53q-2 -48 40 -66q47 -18 53 -22q15 -4 18 -14q10 -14 7 -30q-5 -50 -74 -41q-27 4 -93 7v-65q39 -1 93 -7q77 -10 115 28q30 30 28 88q0 40 -21 62q-18 24 -63 39q-26 10 -32 24q0 3 -1 50h-69z" />
    <glyph glyph-name="caron" unicode="&#x2c7;" horiz-adv-x="2048" 
d="M955 1696l-200 352h99l146 -194l146 194h99l-200 -352h-90z" />
    <glyph glyph-name="caron" unicode="&#x30c;" horiz-adv-x="2048" 
d="M955 1696l-200 352h99l146 -194l146 194h99l-200 -352h-90z" />
    <glyph glyph-name="circumflex" unicode="&#x2c6;" horiz-adv-x="530" 
d="M220 2003l-200 -352h99l146 194l146 -194h99l-200 352h-90z" />
    <glyph glyph-name="circumflex" unicode="&#x302;" horiz-adv-x="530" 
d="M220 2003l-200 -352h99l146 194l146 -194h99l-200 352h-90z" />
    <glyph glyph-name="ring" unicode="&#x2da;" horiz-adv-x="486" 
d="M393 1930q-62 63 -150 63q-87 1 -150 -62t-63 -151q0 -87 62 -150q64 -62 151 -62t150 62q63 63 63 150q0 88 -63 150zM154 1869q38 37 89 37q53 2 89 -36q39 -36 37 -90q2 -51 -37 -89q-36 -37 -89 -37q-51 0 -89 36q-36 39 -37 90q1 54 37 89z" />
    <glyph glyph-name="ring" unicode="&#x30a;" horiz-adv-x="486" 
d="M393 1930q-62 63 -150 63q-87 1 -150 -62t-63 -151q0 -87 62 -150q64 -62 151 -62t150 62q63 63 63 150q0 88 -63 150zM154 1869q38 37 89 37q53 2 89 -36q39 -36 37 -90q2 -51 -37 -89q-36 -37 -89 -37q-51 0 -89 36q-36 39 -37 90q1 54 37 89z" />
    <glyph glyph-name="horncmb" unicode="&#x31b;" horiz-adv-x="272" 
d="M39 1912q-9 -42 17 -74q27 -32 71 -35q-28 -61 -61 -103h87q29 42 50 82q27 51 32 87q9 40 -11 73q-18 34 -56 45q-44 15 -82 -7t-47 -68z" />
    <glyph glyph-name="gravecmb" unicode="&#x300;" horiz-adv-x="302" 
d="M20 1994l191 -294h71l-88 294h-174z" />
    <glyph glyph-name="acutecmb" unicode="&#x301;" horiz-adv-x="302" 
d="M282 1994l-191 -294h-71l88 294h174z" />
    <glyph glyph-name="dieresis" unicode="&#xa8;" horiz-adv-x="572" 
d="M197 1913q-29 29 -69 29q-39 0 -69 -29q-29 -27 -29 -70q0 -39 29 -69q30 -27 69 -29q42 2 70 29q30 30 29 69q0 43 -30 70zM513 1913q-29 29 -69 29q-39 0 -69 -29q-30 -27 -30 -70q2 -39 29 -69q30 -27 70 -29q40 1 69 28q29 31 29 70q0 43 -29 70z" />
    <glyph glyph-name="dieresis" unicode="&#x308;" horiz-adv-x="572" 
d="M197 1913q-29 29 -69 29q-39 0 -69 -29q-29 -27 -29 -70q0 -39 29 -69q30 -27 69 -29q42 2 70 29q30 30 29 69q0 43 -30 70zM513 1913q-29 29 -69 29q-39 0 -69 -29q-30 -27 -30 -70q2 -39 29 -69q30 -27 70 -29q40 1 69 28q29 31 29 70q0 43 -29 70z" />
    <glyph glyph-name="tilde" unicode="&#x2dc;" horiz-adv-x="553" 
d="M33 1745q-3 73 13 117q12 33 46 54q36 22 81 13q10 -1 16 -4q26 -5 101 -38q44 -16 68 -25q24 -8 50 -7q28 3 38 20q15 23 13 56h64q2 -81 -13 -118q-10 -33 -46 -53q-33 -21 -81 -13q-9 3 -16 4q-23 9 -101 38q-44 17 -68 25q-24 10 -50 7q-26 1 -38 -20
q-10 -20 -13 -56h-64z" />
    <glyph glyph-name="tilde" unicode="&#x303;" horiz-adv-x="553" 
d="M33 1745q-3 73 13 117q12 33 46 54q36 22 81 13q10 -1 16 -4q26 -5 101 -38q44 -16 68 -25q24 -8 50 -7q28 3 38 20q15 23 13 56h64q2 -81 -13 -118q-10 -33 -46 -53q-33 -21 -81 -13q-9 3 -16 4q-23 9 -101 38q-44 17 -68 25q-24 10 -50 7q-26 1 -38 -20
q-10 -20 -13 -56h-64z" />
    <glyph glyph-name="Agrave" unicode="&#xc0;" horiz-adv-x="1106" 
d="M683 1606l403 -1158h-184l-102 305h-493l-103 -305h-184l403 1158h260zM361 912h385l-192 540zM424 1994l191 -294h71l-88 294h-174z" />
    <glyph glyph-name="Aacute" unicode="&#xc1;" horiz-adv-x="1106" 
d="M683 1606l403 -1158h-184l-102 305h-493l-103 -305h-184l403 1158h260zM361 912h385l-192 540zM684 2002l-191 -294h-71l88 294h174z" />
    <glyph glyph-name="Acircumflex" unicode="&#xc2;" horiz-adv-x="1106" 
d="M683 1606l403 -1158h-184l-102 305h-493l-103 -305h-184l403 1158h260zM361 912h385l-192 540zM508 2060l-200 -352h99l146 194l146 -194h99l-200 352h-90z" />
    <glyph glyph-name="Atilde" unicode="&#xc3;" horiz-adv-x="1106" 
d="M683 1606l403 -1158h-184l-102 305h-493l-103 -305h-184l403 1158h260zM361 912h385l-192 540zM310 1714q-2 75 13 117q13 33 46 54q36 21 81 13q10 -2 16 -4q24 -6 101 -38q45 -16 68 -25q23 -7 50 -7q27 2 38 20q13 22 13 56h64q0 -80 -13 -118q-10 -32 -46 -53
q-35 -21 -81 -13q-10 2 -16 4q-24 8 -101 38q-45 18 -68 25q-23 9 -50 7q-27 0 -38 -20q-9 -20 -13 -56h-64z" />
    <glyph glyph-name="Adieresis" unicode="&#xc4;" horiz-adv-x="1106" 
d="M683 1606l403 -1158h-184l-102 305h-493l-103 -305h-184l403 1158h260zM361 912h385l-192 540zM464 1876q-27 30 -69 29q-39 1 -69 -29q-27 -28 -29 -70q2 -39 29 -69q30 -29 69 -29q43 0 70 29q29 30 29 69q0 42 -30 70zM780 1876q-27 30 -69 29q-39 1 -69 -29
q-30 -28 -30 -70q0 -39 29 -69q31 -29 70 -29q42 0 69 28q30 30 29 70q1 42 -29 70z" />
    <glyph glyph-name="Aring" unicode="&#xc5;" horiz-adv-x="1106" 
d="M683 1606l403 -1158h-184l-102 305h-493l-103 -305h-184l403 1158h260zM361 912h385l-192 540zM703 2070q-62 63 -150 63q-87 1 -150 -62t-63 -151q0 -87 62 -150q64 -62 151 -62t150 62q63 63 63 150q0 88 -63 150zM464 2009q38 37 89 37q53 2 89 -36q39 -36 37 -90
q2 -51 -37 -89q-36 -37 -89 -37q-51 0 -89 36q-36 39 -37 90q1 54 37 89z" />
    <glyph glyph-name="Ccedilla" unicode="&#xc7;" horiz-adv-x="968" 
d="M383 1602q127 34 280 5q125 -21 245 -79l-24 -156q-120 64 -213 80q-107 21 -194 0q-141 -30 -210 -147t-65 -308q4 -203 104 -309q48 -50 111 -69q63 -17 151 -20q144 -3 360 20v-162q-282 -30 -430 -21q-182 14 -289 104q-171 147 -178 449q-5 247 85 406
q90 162 267 207zM488 407q0 -33 -1 -53q-2 -48 40 -66q47 -18 53 -22q15 -4 18 -14q10 -14 7 -30q-5 -50 -74 -41q-27 4 -93 7v-65q39 -1 93 -7q77 -10 115 28q30 30 28 88q0 40 -21 62q-18 24 -63 39q-26 10 -32 24q0 3 -1 50h-69z" />
    <glyph glyph-name="Egrave" unicode="&#xc8;" horiz-adv-x="902" 
d="M862 1606v-164h-650v-318h539v-164h-539v-349h650v-163h-822v1158h822zM320 2002l191 -294h71l-88 294h-174z" />
    <glyph glyph-name="Eacute" unicode="&#xc9;" horiz-adv-x="902" 
d="M862 1606v-164h-650v-318h539v-164h-539v-349h650v-163h-822v1158h822zM582 2002l-191 -294h-71l88 294h174z" />
    <glyph glyph-name="Ecircumflex" unicode="&#xca;" horiz-adv-x="902" 
d="M862 1606v-164h-650v-318h539v-164h-539v-349h650v-163h-822v1158h822zM406 2060l-200 -352h99l146 194l146 -194h99l-200 352h-90z" />
    <glyph glyph-name="Edieresis" unicode="&#xcb;" horiz-adv-x="902" 
d="M862 1606v-164h-650v-318h539v-164h-539v-349h650v-163h-822v1158h822zM362 1876q-27 30 -69 29q-39 1 -69 -29q-27 -28 -29 -70q2 -39 29 -69q30 -29 69 -29q43 0 70 29q29 30 29 69q0 42 -30 70zM678 1876q-27 30 -69 29q-39 1 -69 -29q-30 -28 -30 -70q0 -39 29 -69
q31 -29 70 -29q42 0 69 28q30 30 29 70q1 42 -29 70z" />
    <glyph glyph-name="Igrave" unicode="&#xcc;" horiz-adv-x="264" 
d="M224 1606v-1158h-184v1158h184zM1 2002l191 -294h71l-88 294h-174z" />
    <glyph glyph-name="Iacute" unicode="&#xcd;" horiz-adv-x="264" 
d="M224 1606v-1158h-184v1158h184zM263 2002l-191 -294h-71l88 294h174z" />
    <glyph glyph-name="Icircumflex" unicode="&#xce;" horiz-adv-x="264" 
d="M224 1606v-1158h-184v1158h184zM87 2060l-200 -352h99l146 194l146 -194h99l-200 352h-90z" />
    <glyph glyph-name="Idieresis" unicode="&#xcf;" horiz-adv-x="264" 
d="M224 1606v-1158h-184v1158h184zM43 1876q-29 30 -69 29q-39 1 -69 -29q-29 -28 -29 -70q0 -39 29 -69q30 -29 69 -29q42 0 70 29q30 30 29 69q0 42 -30 70zM359 1876q-29 30 -69 29q-39 1 -69 -29q-30 -28 -30 -70q2 -39 29 -69q30 -29 70 -29t69 28q29 30 29 70
q0 42 -29 70z" />
    <glyph glyph-name="Ntilde" unicode="&#xd1;" horiz-adv-x="1062" 
d="M267 1606l580 -935v935h175v-1158h-226l-581 933v-933h-175v1158h227zM288 1714q-2 75 13 117q13 33 46 54q36 21 81 13q10 -2 16 -4q24 -6 101 -38q45 -16 68 -25q23 -7 50 -7q27 2 38 20q13 22 13 56h64q0 -80 -13 -118q-10 -32 -46 -53q-35 -21 -81 -13q-10 2 -16 4
q-24 8 -101 38q-45 18 -68 25q-23 9 -50 7q-27 0 -38 -20q-9 -20 -13 -56h-64z" />
    <glyph glyph-name="Ograve" unicode="&#xd2;" horiz-adv-x="1120" 
d="M560 1625q298 1 411 -128q119 -132 119 -471q0 -334 -119 -469q-132 -128 -411 -128q-296 0 -410 128q-120 135 -120 469q0 336 120 471q134 129 410 128zM560 1468q-218 0 -292 -116q-63 -102 -65 -329q3 -223 65 -325q40 -56 115 -83q78 -25 177 -25q222 0 293 111
q64 100 64 325q6 237 -64 330q-87 118 -293 112zM429 2021l191 -294h71l-88 294h-174z" />
    <glyph glyph-name="Oacute" unicode="&#xd3;" horiz-adv-x="1120" 
d="M560 1625q298 1 411 -128q119 -132 119 -471q0 -334 -119 -469q-132 -128 -411 -128q-296 0 -410 128q-120 135 -120 469q0 336 120 471q134 129 410 128zM560 1468q-218 0 -292 -116q-63 -102 -65 -329q3 -223 65 -325q40 -56 115 -83q78 -25 177 -25q222 0 293 111
q64 100 64 325q6 237 -64 330q-87 118 -293 112zM691 2021l-191 -294h-71l88 294h174z" />
    <glyph glyph-name="Ocircumflex" unicode="&#xd4;" horiz-adv-x="1120" 
d="M560 1625q298 1 411 -128q119 -132 119 -471q0 -334 -119 -469q-132 -128 -411 -128q-296 0 -410 128q-120 135 -120 469q0 336 120 471q134 129 410 128zM560 1468q-218 0 -292 -116q-63 -102 -65 -329q3 -223 65 -325q40 -56 115 -83q78 -25 177 -25q222 0 293 111
q64 100 64 325q6 237 -64 330q-87 118 -293 112zM515 2079l-200 -352h99l146 194l146 -194h99l-200 352h-90z" />
    <glyph glyph-name="Otilde" unicode="&#xd5;" horiz-adv-x="1120" 
d="M560 1625q298 1 411 -128q119 -132 119 -471q0 -334 -119 -469q-132 -128 -411 -128q-296 0 -410 128q-120 135 -120 469q0 336 120 471q134 129 410 128zM560 1468q-218 0 -292 -116q-63 -102 -65 -329q3 -223 65 -325q40 -56 115 -83q78 -25 177 -25q222 0 293 111
q64 100 64 325q6 237 -64 330q-87 118 -293 112zM317 1733q-3 73 13 117q12 33 46 54q36 22 81 13q10 -1 16 -4q26 -5 101 -38q44 -16 68 -25q24 -8 50 -7q28 3 38 20q15 23 13 56h64q2 -81 -13 -118q-10 -33 -46 -53q-33 -21 -81 -13q-9 3 -16 4q-23 9 -101 38
q-44 17 -68 25q-24 10 -50 7q-26 1 -38 -20q-10 -20 -13 -56h-64z" />
    <glyph glyph-name="Odieresis" unicode="&#xd6;" horiz-adv-x="1120" 
d="M560 1625q298 1 411 -128q119 -132 119 -471q0 -334 -119 -469q-132 -128 -411 -128q-296 0 -410 128q-120 135 -120 469q0 336 120 471q134 129 410 128zM560 1468q-218 0 -292 -116q-63 -102 -65 -329q3 -223 65 -325q40 -56 115 -83q78 -25 177 -25q222 0 293 111
q64 100 64 325q6 237 -64 330q-87 118 -293 112zM471 1895q-29 29 -69 29q-39 0 -69 -29q-29 -27 -29 -70q0 -39 29 -69q30 -27 69 -29q42 2 70 29q30 30 29 69q0 43 -30 70zM787 1895q-29 29 -69 29q-39 0 -69 -29q-30 -27 -30 -70q2 -39 29 -69q30 -27 70 -29q40 1 69 28
q29 31 29 70q0 43 -29 70z" />
    <glyph glyph-name="Ugrave" unicode="&#xd9;" horiz-adv-x="1076" 
d="M228 1606l1 -656q3 -174 88 -266q85 -87 220 -89q139 0 220 87q87 94 87 268v656h192v-679q0 -234 -143 -369q-134 -128 -356 -128t-357 128q-140 135 -140 369v679h188zM407 2002l191 -294h71l-88 294h-174z" />
    <glyph glyph-name="Uacute" unicode="&#xda;" horiz-adv-x="1076" 
d="M228 1606l1 -656q3 -174 88 -266q85 -87 220 -89q139 0 220 87q87 94 87 268v656h192v-679q0 -234 -143 -369q-134 -128 -356 -128t-357 128q-140 135 -140 369v679h188zM669 2002l-191 -294h-71l88 294h174z" />
    <glyph glyph-name="Ucircumflex" unicode="&#xdb;" horiz-adv-x="1076" 
d="M228 1606l1 -656q3 -174 88 -266q85 -87 220 -89q139 0 220 87q87 94 87 268v656h192v-679q0 -234 -143 -369q-134 -128 -356 -128t-357 128q-140 135 -140 369v679h188zM493 2060l-200 -352h99l146 194l146 -194h99l-200 352h-90z" />
    <glyph glyph-name="Udieresis" unicode="&#xdc;" horiz-adv-x="1076" 
d="M228 1606l1 -656q3 -174 88 -266q85 -87 220 -89q139 0 220 87q87 94 87 268v656h192v-679q0 -234 -143 -369q-134 -128 -356 -128t-357 128q-140 135 -140 369v679h188zM449 1876q-29 30 -69 29q-39 1 -69 -29q-29 -28 -29 -70q0 -39 29 -69q30 -29 69 -29q42 0 70 29
q30 30 29 69q0 42 -30 70zM765 1876q-29 30 -69 29q-39 1 -69 -29q-30 -28 -30 -70q2 -39 29 -69q30 -29 70 -29t69 28q29 30 29 70q0 42 -29 70z" />
    <glyph glyph-name="Yacute" unicode="&#xdd;" horiz-adv-x="1048" 
d="M216 1605l308 -517l308 517h196l-417 -704v-453h-173v453l-418 704h196zM655 2001l-191 -294h-71l88 294h174z" />
    <glyph glyph-name="Thorn" unicode="&#xde;" horiz-adv-x="1268" 
d="M973 1606v-160h-383v-998h-171v998h-384v160h938zM1030 1529q-10 -41 17 -74q27 -32 71 -35q-30 -60 -61 -103h87q30 43 50 82q26 51 32 87q9 40 -11 73q-17 36 -56 45q-43 15 -82 -7q-38 -21 -47 -68z" />
    <glyph glyph-name="agrave" unicode="&#xe0;" horiz-adv-x="896" 
d="M856 448q-57 2 -213 -7q-85 -3 -127 -7q-40 -2 -112 0q-70 4 -124 14q-57 12 -105 44q-45 33 -73 75q-26 45 -44 98q-16 57 -22 108q-6 53 -5 110q5 221 113 338q45 48 111 72q69 25 146 22q75 -2 157 -20t124 -21v31h174v-857zM682 1126q-38 2 -126 20q-87 21 -141 18
q-98 -3 -152 -69q-63 -75 -64 -226q0 -225 120 -268q37 -11 91 -14q57 0 139 3q85 6 133 5v531zM312 1713l191 -294h71l-88 294h-174z" />
    <glyph glyph-name="aacute" unicode="&#xe1;" horiz-adv-x="896" 
d="M856 448q-57 2 -213 -7q-85 -3 -127 -7q-40 -2 -112 0q-70 4 -124 14q-57 12 -105 44q-45 33 -73 75q-26 45 -44 98q-16 57 -22 108q-6 53 -5 110q5 221 113 338q45 48 111 72q69 25 146 22q75 -2 157 -20t124 -21v31h174v-857zM682 1126q-38 2 -126 20q-87 21 -141 18
q-98 -3 -152 -69q-63 -75 -64 -226q0 -225 120 -268q37 -11 91 -14q57 0 139 3q85 6 133 5v531zM634 1713l-191 -294h-71l88 294h174z" />
    <glyph glyph-name="acircumflex" unicode="&#xe2;" horiz-adv-x="896" 
d="M856 448q-57 2 -213 -7q-85 -3 -127 -7q-40 -2 -112 0q-70 4 -124 14q-57 12 -105 44q-45 33 -73 75q-26 45 -44 98q-16 57 -22 108q-6 53 -5 110q5 221 113 338q45 48 111 72q69 25 146 22q75 -2 157 -20t124 -21v31h174v-857zM682 1126q-38 2 -126 20q-87 21 -141 18
q-98 -3 -152 -69q-63 -75 -64 -226q0 -225 120 -268q37 -11 91 -14q57 0 139 3q85 6 133 5v531zM433 1771l-200 -352h99l146 194l146 -194h99l-200 352h-90z" />
    <glyph glyph-name="atilde" unicode="&#xe3;" horiz-adv-x="896" 
d="M856 448q-57 2 -213 -7q-85 -3 -127 -7q-40 -2 -112 0q-70 4 -124 14q-57 12 -105 44q-45 33 -73 75q-26 45 -44 98q-16 57 -22 108q-6 53 -5 110q5 221 113 338q45 48 111 72q69 25 146 22q75 -2 157 -20t124 -21v31h174v-857zM682 1126q-38 2 -126 20q-87 21 -141 18
q-98 -3 -152 -69q-63 -75 -64 -226q0 -225 120 -268q37 -11 91 -14q57 0 139 3q85 6 133 5v531zM220 1425q-2 73 13 117q13 33 46 54q36 22 81 13q10 -1 16 -4q24 -5 101 -38q45 -16 68 -25q23 -8 50 -7q27 3 38 20q13 23 13 56h64q0 -81 -13 -118q-10 -33 -46 -53
q-35 -21 -81 -13q-10 3 -16 4q-24 9 -101 38q-45 17 -68 25q-23 10 -50 7q-27 1 -38 -20q-9 -20 -13 -56h-64z" />
    <glyph glyph-name="adieresis" unicode="&#xe4;" horiz-adv-x="896" 
d="M856 448q-57 2 -213 -7q-85 -3 -127 -7q-40 -2 -112 0q-70 4 -124 14q-57 12 -105 44q-45 33 -73 75q-26 45 -44 98q-16 57 -22 108q-6 53 -5 110q5 221 113 338q45 48 111 72q69 25 146 22q75 -2 157 -20t124 -21v31h174v-857zM682 1126q-38 2 -126 20q-87 21 -141 18
q-98 -3 -152 -69q-63 -75 -64 -226q0 -225 120 -268q37 -11 91 -14q57 0 139 3q85 6 133 5v531zM374 1587q-27 29 -69 29q-39 0 -69 -29q-27 -27 -29 -70q2 -39 29 -69q30 -27 69 -29q43 2 70 29q29 30 29 69q0 43 -30 70zM690 1587q-27 29 -69 29q-39 0 -69 -29
q-30 -27 -30 -70q0 -39 29 -69q31 -27 70 -29q42 1 69 28q30 31 29 70q1 43 -29 70z" />
    <glyph glyph-name="aring" unicode="&#xe5;" horiz-adv-x="896" 
d="M856 448q-57 2 -213 -7q-85 -3 -127 -7q-40 -2 -112 0q-70 4 -124 14q-57 12 -105 44q-45 33 -73 75q-26 45 -44 98q-16 57 -22 108q-6 53 -5 110q5 221 113 338q45 48 111 72q69 25 146 22q75 -2 157 -20t124 -21v31h174v-857zM682 1126q-38 2 -126 20q-87 21 -141 18
q-98 -3 -152 -69q-63 -75 -64 -226q0 -225 120 -268q37 -11 91 -14q57 0 139 3q85 6 133 5v531zM613 1781q-62 63 -150 63q-87 0 -150 -62q-63 -63 -63 -151q0 -87 62 -150q64 -62 151 -62t150 62q63 63 63 150q0 88 -63 150zM374 1720q38 39 89 37q53 2 89 -36
q39 -36 37 -90q2 -51 -37 -89q-36 -36 -89 -37q-51 0 -89 36q-36 39 -37 90q1 53 37 89z" />
    <glyph glyph-name="ccedilla" unicode="&#xe7;" horiz-adv-x="745" 
d="M71 1111q39 102 124 156q87 55 205 55q153 0 291 -61l-26 -143q-133 64 -253 57q-111 -5 -165 -83q-51 -72 -51 -234q0 -132 51 -202q31 -40 70 -58q40 -15 96 -21q127 -9 292 14v-142q-157 -25 -305 -17q-260 14 -329 208q-12 39 -18 55q-4 18 -13 63q-6 46 -8 100
q-2 148 39 253zM367 408q2 -32 -1 -53q-2 -48 40 -66q46 -19 53 -22q15 -5 18 -14q9 -14 7 -30q-4 -50 -74 -41q-27 4 -93 7v-65q39 0 93 -7q78 -9 115 28q31 31 28 88q0 41 -21 62q-20 24 -63 39q-27 10 -32 24q-1 4 -1 50h-69z" />
    <glyph glyph-name="egrave" unicode="&#xe8;" horiz-adv-x="839" 
d="M423 1322q111 0 191 -32q82 -32 127 -93q33 -45 47 -109q16 -63 16 -132t-6 -147h-603q-1 -99 37 -160q51 -75 195 -75q159 0 362 43v-147q-231 -40 -366 -40q-216 0 -306 101q-87 99 -87 345q0 238 87 336q99 110 306 110zM423 1176q-143 0 -191 -74q-30 -48 -37 -156
h455q8 105 -28 156q-48 74 -199 74zM286 1718l191 -294h71l-88 294h-174z" />
    <glyph glyph-name="eacute" unicode="&#xe9;" horiz-adv-x="839" 
d="M423 1322q111 0 191 -32q82 -32 127 -93q33 -45 47 -109q16 -63 16 -132t-6 -147h-603q-1 -99 37 -160q51 -75 195 -75q159 0 362 43v-147q-231 -40 -366 -40q-216 0 -306 101q-87 99 -87 345q0 238 87 336q99 110 306 110zM423 1176q-143 0 -191 -74q-30 -48 -37 -156
h455q8 105 -28 156q-48 74 -199 74zM548 1718l-191 -294h-71l88 294h174z" />
    <glyph glyph-name="ecircumflex" unicode="&#xea;" horiz-adv-x="839" 
d="M423 1322q111 0 191 -32q82 -32 127 -93q33 -45 47 -109q16 -63 16 -132t-6 -147h-603q-1 -99 37 -160q51 -75 195 -75q159 0 362 43v-147q-231 -40 -366 -40q-216 0 -306 101q-87 99 -87 345q0 238 87 336q99 110 306 110zM423 1176q-143 0 -191 -74q-30 -48 -37 -156
h455q8 105 -28 156q-48 74 -199 74zM372 1776l-200 -352h99l146 194l146 -194h99l-200 352h-90z" />
    <glyph glyph-name="edieresis" unicode="&#xeb;" horiz-adv-x="839" 
d="M423 1322q111 0 191 -32q82 -32 127 -93q33 -45 47 -109q16 -63 16 -132t-6 -147h-603q-1 -99 37 -160q51 -75 195 -75q159 0 362 43v-147q-231 -40 -366 -40q-216 0 -306 101q-87 99 -87 345q0 238 87 336q99 110 306 110zM423 1176q-143 0 -191 -74q-30 -48 -37 -156
h455q8 105 -28 156q-48 74 -199 74zM328 1592q-27 30 -69 29q-39 1 -69 -29q-27 -28 -29 -70q2 -39 29 -69q30 -29 69 -29q43 0 70 29q29 30 29 69q0 42 -30 70zM644 1592q-27 30 -69 29q-39 1 -69 -29q-30 -28 -30 -70q0 -39 29 -69q31 -29 70 -29q42 0 69 28q30 30 29 70
q1 42 -29 70z" />
    <glyph glyph-name="ntilde" unicode="&#xf1;" 
d="M212 1305v-116q106 81 195 109q87 27 159 18t131 -45q57 -34 91 -103q34 -66 34 -159v-561h-172v494q0 98 -42 154q-44 60 -110 67q-66 9 -139 -19q-63 -21 -146 -87v-609h-173v857h172zM188 1433q-2 73 13 117q13 33 46 54q36 22 81 13q10 -1 16 -4q24 -5 101 -38
q45 -16 68 -25q23 -8 50 -7q27 3 38 20q13 23 13 56h64q0 -81 -13 -118q-10 -33 -46 -53q-35 -21 -81 -13q-10 3 -16 4q-24 9 -101 38q-45 17 -68 25q-23 10 -50 7q-27 1 -38 -20q-9 -20 -13 -56h-64z" />
    <glyph glyph-name="ograve" unicode="&#xf2;" horiz-adv-x="870" 
d="M436 1323q228 1 317 -101q87 -98 87 -345q0 -246 -87 -345q-105 -102 -317 -102q-228 0 -319 102q-87 99 -87 345q0 247 87 345q106 102 319 101zM436 1180q-152 0 -200 -75q-42 -57 -42 -229q0 -170 42 -227q54 -81 200 -76q152 1 202 76q38 59 40 230q2 172 -40 226
q-56 78 -202 75zM304 1719l191 -294h71l-88 294h-174z" />
    <glyph glyph-name="oacute" unicode="&#xf3;" horiz-adv-x="870" 
d="M436 1323q228 1 317 -101q87 -98 87 -345q0 -246 -87 -345q-105 -102 -317 -102q-228 0 -319 102q-87 99 -87 345q0 247 87 345q106 102 319 101zM436 1180q-152 0 -200 -75q-42 -57 -42 -229q0 -170 42 -227q54 -81 200 -76q152 1 202 76q38 59 40 230q2 172 -40 226
q-56 78 -202 75zM566 1719l-191 -294h-71l88 294h174z" />
    <glyph glyph-name="ocircumflex" unicode="&#xf4;" horiz-adv-x="870" 
d="M436 1323q228 1 317 -101q87 -98 87 -345q0 -246 -87 -345q-105 -102 -317 -102q-228 0 -319 102q-87 99 -87 345q0 247 87 345q106 102 319 101zM436 1180q-152 0 -200 -75q-42 -57 -42 -229q0 -170 42 -227q54 -81 200 -76q152 1 202 76q38 59 40 230q2 172 -40 226
q-56 78 -202 75zM390 1777l-200 -352h99l146 194l146 -194h99l-200 352h-90z" />
    <glyph glyph-name="otilde" unicode="&#xf5;" horiz-adv-x="870" 
d="M436 1323q228 1 317 -101q87 -98 87 -345q0 -246 -87 -345q-105 -102 -317 -102q-228 0 -319 102q-87 99 -87 345q0 247 87 345q106 102 319 101zM436 1180q-152 0 -200 -75q-42 -57 -42 -229q0 -170 42 -227q54 -81 200 -76q152 1 202 76q38 59 40 230q2 172 -40 226
q-56 78 -202 75zM192 1431q-2 73 13 117q13 33 46 54q36 22 81 13q10 -1 16 -4q24 -5 101 -38q45 -16 68 -25q23 -8 50 -7q27 3 38 20q13 23 13 56h64q0 -81 -13 -118q-10 -33 -46 -53q-35 -21 -81 -13q-10 3 -16 4q-24 9 -101 38q-45 17 -68 25q-23 10 -50 7q-27 1 -38 -20
q-9 -20 -13 -56h-64z" />
    <glyph glyph-name="odieresis" unicode="&#xf6;" horiz-adv-x="870" 
d="M436 1323q228 1 317 -101q87 -98 87 -345q0 -246 -87 -345q-105 -102 -317 -102q-228 0 -319 102q-87 99 -87 345q0 247 87 345q106 102 319 101zM436 1180q-152 0 -200 -75q-42 -57 -42 -229q0 -170 42 -227q54 -81 200 -76q152 1 202 76q38 59 40 230q2 172 -40 226
q-56 78 -202 75zM346 1593q-27 29 -69 29q-39 0 -69 -29q-27 -27 -29 -70q2 -39 29 -69q30 -27 69 -29q43 2 70 29q29 30 29 69q0 43 -30 70zM662 1593q-27 29 -69 29q-39 0 -69 -29q-30 -27 -30 -70q0 -39 29 -69q31 -27 70 -29q42 1 69 28q30 31 29 70q1 43 -29 70z" />
    <glyph glyph-name="ugrave" unicode="&#xf9;" 
d="M650 448v116q-105 -81 -195 -109q-84 -27 -159 -18q-74 9 -131 44q-55 35 -91 104q-34 69 -34 158v562h172v-494q0 -99 42 -155q44 -57 110 -66q66 -8 139 19q65 24 146 87v609h173v-857h-172zM300 1701l191 -294h71l-88 294h-174z" />
    <glyph glyph-name="uacute" unicode="&#xfa;" 
d="M650 448v116q-105 -81 -195 -109q-84 -27 -159 -18q-74 9 -131 44q-55 35 -91 104q-34 69 -34 158v562h172v-494q0 -99 42 -155q44 -57 110 -66q66 -8 139 19q65 24 146 87v609h173v-857h-172zM562 1701l-191 -294h-71l88 294h174z" />
    <glyph glyph-name="ucircumflex" unicode="&#xfb;" 
d="M650 448v116q-105 -81 -195 -109q-84 -27 -159 -18q-74 9 -131 44q-55 35 -91 104q-34 69 -34 158v562h172v-494q0 -99 42 -155q44 -57 110 -66q66 -8 139 19q65 24 146 87v609h173v-857h-172zM386 1759l-200 -352h99l146 194l146 -194h99l-200 352h-90z" />
    <glyph glyph-name="udieresis" unicode="&#xfc;" 
d="M650 448v116q-105 -81 -195 -109q-84 -27 -159 -18q-74 9 -131 44q-55 35 -91 104q-34 69 -34 158v562h172v-494q0 -99 42 -155q44 -57 110 -66q66 -8 139 19q65 24 146 87v609h173v-857h-172zM342 1575q-27 29 -69 29q-39 0 -69 -29q-27 -27 -29 -70q2 -39 29 -69
q30 -27 69 -29q43 2 70 29q29 30 29 69q0 43 -30 70zM658 1575q-27 29 -69 29q-39 0 -69 -29q-30 -27 -30 -70q0 -39 29 -69q31 -27 70 -29q42 1 69 28q30 31 29 70q1 43 -29 70z" />
    <glyph glyph-name="yacute" unicode="&#xfd;" 
d="M204 1305l229 -774l227 774h182l-262 -867q-56 -186 -64 -379h-184q4 101 13 164q6 33 12 68q9 36 20 86q14 51 17 70h-118l-256 858h184zM562 1701l-191 -294h-71l88 294h174z" />
    <glyph glyph-name="thorn" unicode="&#xfe;" horiz-adv-x="864" 
d="M360 1304l242 1v-147h-242l1 -483q1 -33 10 -55q9 -20 35 -34q56 -26 196 8v-145q-105 -21 -204 -16q-116 7 -167 70q-43 55 -46 175v480h-145v147h145v204l175 78v-283zM626 1510q-10 -42 17 -74t71 -35q-30 -61 -61 -103h87q30 42 50 82q26 51 32 87q9 40 -11 73
q-17 34 -56 45q-43 15 -82 -7q-38 -22 -47 -68z" />
    <glyph glyph-name="ydieresis" unicode="&#xff;" 
d="M204 1305l229 -774l227 774h182l-262 -867q-56 -186 -64 -379h-184q4 101 13 164q6 33 12 68q9 36 20 86q14 51 17 70h-118l-256 858h184zM342 1575q-27 29 -69 29q-39 0 -69 -29q-27 -27 -29 -70q2 -39 29 -69q30 -27 69 -29q43 2 70 29q29 30 29 69q0 43 -30 70z
M658 1575q-27 29 -69 29q-39 0 -69 -29q-30 -27 -30 -70q0 -39 29 -69q31 -27 70 -29q42 1 69 28q30 31 29 70q1 43 -29 70z" />
    <glyph glyph-name="Cacute" unicode="&#x106;" horiz-adv-x="968" 
d="M383 1602q127 34 280 5q125 -21 245 -79l-24 -156q-120 64 -213 80q-107 21 -194 0q-141 -30 -210 -147t-65 -308q4 -203 104 -309q48 -50 111 -69q63 -17 151 -20q144 -3 360 20v-162q-282 -30 -430 -21q-182 14 -289 104q-171 147 -178 449q-5 247 85 406
q90 162 267 207zM680 2032l-191 -294h-71l88 294h174z" />
    <glyph glyph-name="cacute" unicode="&#x107;" horiz-adv-x="745" 
d="M71 1111q39 102 124 156q87 55 205 55q153 0 291 -61l-26 -143q-133 64 -253 57q-111 -5 -165 -83q-51 -72 -51 -234q0 -132 51 -202q31 -40 70 -58q40 -15 96 -21q127 -9 292 14v-142q-157 -25 -305 -17q-260 14 -329 208q-12 39 -18 55q-4 18 -13 63q-6 46 -8 100
q-2 148 39 253zM553 1718l-191 -294h-71l88 294h174z" />
    <glyph glyph-name="Ccircumflex" unicode="&#x108;" horiz-adv-x="968" 
d="M383 1602q127 34 280 5q125 -21 245 -79l-24 -156q-120 64 -213 80q-107 21 -194 0q-141 -30 -210 -147t-65 -308q4 -203 104 -309q48 -50 111 -69q63 -17 151 -20q144 -3 360 20v-162q-282 -30 -430 -21q-182 14 -289 104q-171 147 -178 449q-5 247 85 406
q90 162 267 207zM462 2090l-200 -352h99l146 194l146 -194h99l-200 352h-90z" />
    <glyph glyph-name="ccircumflex" unicode="&#x109;" horiz-adv-x="745" 
d="M71 1111q39 102 124 156q87 55 205 55q153 0 291 -61l-26 -143q-133 64 -253 57q-111 -5 -165 -83q-51 -72 -51 -234q0 -132 51 -202q31 -40 70 -58q40 -15 96 -21q127 -9 292 14v-142q-157 -25 -305 -17q-260 14 -329 208q-12 39 -18 55q-4 18 -13 63q-6 46 -8 100
q-2 148 39 253zM323 1776l-200 -352h99l146 194l146 -194h99l-200 352h-90z" />
    <glyph glyph-name="Ccaron" unicode="&#x10c;" horiz-adv-x="968" 
d="M383 1602q127 34 280 5q125 -21 245 -79l-24 -156q-120 64 -213 80q-107 21 -194 0q-141 -30 -210 -147t-65 -308q4 -203 104 -309q48 -50 111 -69q63 -17 151 -20q144 -3 360 20v-162q-282 -30 -430 -21q-182 14 -289 104q-171 147 -178 449q-5 247 85 406
q90 162 267 207zM462 1738l-200 352h99l146 -194l146 194h99l-200 -352h-90z" />
    <glyph glyph-name="ccaron" unicode="&#x10d;" horiz-adv-x="745" 
d="M71 1111q39 102 124 156q87 55 205 55q153 0 291 -61l-26 -143q-133 64 -253 57q-111 -5 -165 -83q-51 -72 -51 -234q0 -132 51 -202q31 -40 70 -58q40 -15 96 -21q127 -9 292 14v-142q-157 -25 -305 -17q-260 14 -329 208q-12 39 -18 55q-4 18 -13 63q-6 46 -8 100
q-2 148 39 253zM323 1424l-200 352h99l146 -194l146 194h99l-200 -352h-90z" />
    <glyph glyph-name="Dcaron" unicode="&#x10e;" horiz-adv-x="1046" 
d="M399 1606q134 0 239 -10q93 -8 162 -41q117 -51 162 -168q54 -129 54 -361q0 -234 -51 -359q-47 -120 -152 -168q-69 -32 -162 -41q-105 -10 -252 -10h-359v1158h359zM207 616q37 2 100 0q66 0 118 -1q56 1 101 1q94 4 159 25q81 31 123 124q39 85 37 261q0 180 -39 267
q-42 95 -126 121q-69 22 -167 24h-306v-822zM435 1708l-200 352h99l146 -194l146 194h99l-200 -352h-90z" />
    <glyph glyph-name="dcaron" unicode="&#x10f;" horiz-adv-x="898" 
d="M858 448q-57 2 -213 -7q-85 -3 -127 -7q-40 -2 -112 0q-70 4 -124 14q-74 14 -126 59q-51 45 -78 108q-26 63 -37 129t-9 139q6 219 114 338q45 48 111 72q69 25 146 22q75 -2 157 -20t124 -21v438h174v-1264zM684 1126q-40 3 -127 21q-87 21 -140 18q-96 -3 -153 -70
q-63 -75 -63 -226q0 -225 120 -268q37 -11 91 -14q57 0 139 3q85 6 133 5v531zM717 1814l-200 352h99l146 -194l146 194h99l-200 -352h-90z" />
    <glyph glyph-name="Ecaron" unicode="&#x11a;" horiz-adv-x="902" 
d="M862 1606v-164h-650v-318h539v-164h-539v-349h650v-163h-822v1158h822zM406 1708l-200 352h99l146 -194l146 194h99l-200 -352h-90z" />
    <glyph glyph-name="ecaron" unicode="&#x11b;" horiz-adv-x="839" 
d="M423 1322q111 0 191 -32q82 -32 127 -93q33 -45 47 -109q16 -63 16 -132t-6 -147h-603q-1 -99 37 -160q51 -75 195 -75q159 0 362 43v-147q-231 -40 -366 -40q-216 0 -306 101q-87 99 -87 345q0 238 87 336q99 110 306 110zM423 1176q-143 0 -191 -74q-30 -48 -37 -156
h455q8 105 -28 156q-48 74 -199 74zM372 1424l-200 352h99l146 -194l146 194h99l-200 -352h-90z" />
    <glyph glyph-name="Gcircumflex" unicode="&#x11c;" horiz-adv-x="992" 
d="M533 1620q63 0 134 -13q114 -21 237 -80l-24 -151q-120 64 -213 80q-108 21 -195 0q-140 -30 -209 -149q-69 -120 -65 -310q4 -207 104 -313q48 -50 111 -69q63 -17 151 -20q80 -1 221 8v326h-183v168h183h139h28v-640q-24 1 -50 -2t-59 -6t-52 -6q-183 -13 -289 -7
q-182 14 -289 104q-171 147 -178 449q-5 247 85 406q90 162 267 207q65 18 146 18zM476 2074l-200 -352h99l146 194l146 -194h99l-200 352h-90z" />
    <glyph glyph-name="gcircumflex" unicode="&#x11d;" horiz-adv-x="897" 
d="M856 1305v-857v-52v-42q3 -30 1 -44q1 -12 -2 -41q-1 -27 -5 -43q-2 -14 -11 -38q-6 -24 -18 -39q-11 -15 -27 -34q-16 -18 -37 -33q-21 -14 -42 -26q-21 -9 -47 -18q-26 -6 -44 -12q-18 -3 -51 -6q-33 0 -47 -2t-55 1q-39 3 -50 3q-9 2 -57 5q-45 6 -54 6q-98 11 -170 8
v151q21 0 45 -1q25 0 64 -3q39 -2 66 -3q24 -1 96 -11q73 -10 121 -8q48 3 87 24q23 14 37 40q16 27 20 69q6 43 6 70q4 29 1 74q-4 2 -19 -1q-12 0 -20 -1q-86 -3 -127 -7q-39 -2 -112 0q-71 4 -125 14q-57 12 -105 44q-45 33 -73 75q-26 45 -44 98q-16 57 -22 108
q-6 53 -5 110q6 219 114 338q43 48 111 72q68 25 146 22q76 -2 157 -20q82 -18 124 -21v31h173zM683 1126q-35 3 -125 21q-88 21 -142 18q-98 -3 -153 -70q-63 -75 -63 -226q0 -225 120 -268q84 -30 363 -3v528zM429 1771l-200 -352h99l146 194l146 -194h99l-200 352h-90z
" />
    <glyph glyph-name="Gcedilla" unicode="&#x122;" horiz-adv-x="992" 
d="M533 1620q63 0 134 -13q114 -21 237 -80l-24 -151q-120 64 -213 80q-108 21 -195 0q-140 -30 -209 -149q-69 -120 -65 -310q4 -207 104 -313q48 -50 111 -69q63 -17 151 -20q80 -1 221 8v326h-183v168h183h139h28v-640q-24 1 -50 -2t-59 -6t-52 -6q-183 -13 -289 -7
q-182 14 -289 104q-171 147 -178 449q-5 247 85 406q90 162 267 207q65 18 146 18zM506 386q0 -32 -1 -53q-2 -48 40 -66q47 -19 53 -22q15 -5 18 -14q10 -14 7 -30q-5 -50 -74 -41q-27 4 -93 7v-65q39 0 93 -7q77 -9 115 28q30 31 28 88q0 41 -21 62q-18 24 -63 39
q-26 10 -32 24q0 4 -1 50h-69z" />
    <glyph glyph-name="gcedilla" unicode="&#x123;" horiz-adv-x="897" 
d="M856 1305v-857v-52v-42q3 -30 1 -44q1 -12 -2 -41q-1 -27 -5 -43q-2 -14 -11 -38q-6 -24 -18 -39q-11 -15 -27 -34q-16 -18 -37 -33q-21 -14 -42 -26q-21 -9 -47 -18q-26 -6 -44 -12q-18 -3 -51 -6q-33 0 -47 -2t-55 1q-39 3 -50 3q-9 2 -57 5q-45 6 -54 6q-98 11 -170 8
v151q21 0 45 -1q25 0 64 -3q39 -2 66 -3q24 -1 96 -11q73 -10 121 -8q48 3 87 24q23 14 37 40q16 27 20 69q6 43 6 70q4 29 1 74q-4 2 -19 -1q-12 0 -20 -1q-86 -3 -127 -7q-39 -2 -112 0q-71 4 -125 14q-57 12 -105 44q-45 33 -73 75q-26 45 -44 98q-16 57 -22 108
q-6 53 -5 110q6 219 114 338q43 48 111 72q68 25 146 22q76 -2 157 -20q82 -18 124 -21v31h173zM683 1126q-35 3 -125 21q-88 21 -142 18q-98 -3 -153 -70q-63 -75 -63 -226q0 -225 120 -268q84 -30 363 -3v528zM435 -7q2 -33 -1 -53q-2 -48 40 -66q46 -18 53 -22
q15 -4 18 -14q9 -14 7 -30q-4 -50 -74 -41q-27 4 -93 7v-65q39 -1 93 -7q78 -10 115 28q31 30 28 88q0 40 -21 62q-20 24 -63 39q-27 10 -32 24q-1 3 -1 50h-69z" />
    <glyph glyph-name="Hcircumflex" unicode="&#x124;" horiz-adv-x="996" 
d="M214 1606v-477h568v477h174v-1158h-174v519h-568v-519h-174v1158h174zM453 2060l-200 -352h99l146 194l146 -194h99l-200 352h-90z" />
    <glyph glyph-name="hcircumflex" unicode="&#x125;" horiz-adv-x="1018" 
d="M368 1679v-490q106 81 195 109q87 27 159 18t131 -45q57 -34 91 -103q34 -66 34 -159v-561h-172v494q0 98 -42 154q-44 60 -110 67q-66 9 -139 -19q-63 -21 -146 -87q2 -203 -1 -609h-172v1231h172zM230 2133l-200 -352h99l146 194l146 -194h99l-200 352h-90z" />
    <glyph glyph-name="Itilde" unicode="&#x128;" horiz-adv-x="553" 
d="M368 1606v-1158h-184v1158h184zM33 1714q-3 75 13 117q12 33 46 54q36 21 81 13q10 -2 16 -4q26 -6 101 -38q44 -16 68 -25q24 -7 50 -7q28 2 38 20q15 22 13 56h64q2 -80 -13 -118q-10 -32 -46 -53q-33 -21 -81 -13q-9 2 -16 4q-23 8 -101 38q-44 18 -68 25q-24 9 -50 7
q-26 0 -38 -20q-10 -20 -13 -56h-64z" />
    <glyph glyph-name="Jcircumflex" unicode="&#x134;" horiz-adv-x="867" 
d="M698 1606v-788v-71q0 -168 -102 -252q-92 -74 -255 -65q-45 2 -148 11q-99 9 -163 11v147q54 3 156 -7q105 -9 151 -9q126 0 168 99q19 45 19 138v786h174zM553 2060l-200 -352h99l146 194l146 -194h99l-200 352h-90z" />
    <glyph glyph-name="jcircumflex" unicode="&#x135;" horiz-adv-x="699" 
d="M517 1305v-908q1 -115 -47 -175q-54 -68 -167 -75q-113 -6 -263 39v141q190 -53 255 -23q45 22 46 93v908h176zM369 1782l-200 -352h99l146 194l146 -194h99l-200 352h-90z" />
    <glyph glyph-name="Kcedilla" unicode="&#x136;" horiz-adv-x="944" 
d="M209 1606v-585l452 585h217l-78 -98q-78 -96 -191 -241q-113 -143 -183 -236q72 7 132 -20q62 -25 101 -67q41 -42 80 -108q41 -64 65 -124q26 -57 59 -137q35 -79 61 -127h-197q-11 18 -26 46q-11 30 -23 58q-10 30 -25 65q-15 36 -29 66q-15 33 -36 65q-21 34 -45 58
q-23 26 -57 47q-33 23 -73 32q-39 10 -91 12q-50 3 -113 -12v-437h-169v1158h169zM413 366q2 -32 -1 -53q-2 -48 40 -66q46 -19 53 -22q15 -5 18 -14q9 -14 7 -30q-4 -50 -74 -41q-27 4 -93 7v-65q39 0 93 -7q78 -9 115 28q31 31 28 88q0 41 -21 62q-20 24 -63 39
q-27 10 -32 24q-1 4 -1 50h-69z" />
    <glyph glyph-name="kcedilla" unicode="&#x137;" horiz-adv-x="794" 
d="M214 1679v-742q63 71 177 211q117 142 131 157h216q-315 -363 -342 -394q70 0 124 -34q57 -33 91 -91q36 -57 62 -115q27 -57 53 -124q27 -66 48 -99h-196q-6 14 -16 39q-10 27 -19 54t-23 60q-14 34 -32 61q-16 28 -43 55q-25 27 -58 41q-31 15 -76 21q-43 9 -97 -6
v-325h-174v1231h174zM338 366q0 -32 -1 -53q-2 -48 40 -66q47 -19 53 -22q15 -5 18 -14q10 -14 7 -30q-5 -50 -74 -41q-27 4 -93 7v-65q39 0 93 -7q77 -9 115 28q30 31 28 88q0 41 -21 62q-18 24 -63 39q-26 10 -32 24q0 4 -1 50h-69z" />
    <glyph glyph-name="Lacute" unicode="&#x139;" horiz-adv-x="898" 
d="M263 1606v-999h615v-159h-790v1158h175zM314 2002l-191 -294h-71l88 294h174z" />
    <glyph glyph-name="lacute" unicode="&#x13a;" horiz-adv-x="322" 
d="M239 1679v-1231h-180v1231h180zM292 2075l-191 -294h-71l88 294h174z" />
    <glyph glyph-name="Lcedilla" unicode="&#x13b;" horiz-adv-x="850" 
d="M215 1606v-999h615v-159h-790v1158h175zM366 402q0 -32 -1 -53q-2 -48 40 -66q47 -19 53 -22q15 -5 18 -14q10 -14 7 -30q-5 -50 -74 -41q-27 4 -93 7v-65q39 0 93 -7q77 -9 115 28q30 31 28 88q0 41 -21 62q-18 24 -63 39q-26 10 -32 24q0 4 -1 50h-69z" />
    <glyph glyph-name="lcedilla" unicode="&#x13c;" horiz-adv-x="319" 
d="M220 1679v-1231h-180v1231h180zM91 390q2 -32 -1 -53q-2 -48 40 -66q46 -19 53 -22q15 -5 18 -14q9 -14 7 -30q-4 -50 -74 -41q-27 4 -93 7v-65q39 0 93 -7q78 -9 115 28q31 31 28 88q0 41 -21 62q-20 24 -63 39q-27 10 -32 24q-1 4 -1 50h-69z" />
    <glyph glyph-name="Lcaron" unicode="&#x13d;" horiz-adv-x="946" 
d="M311 1606v-999h615v-159h-790v1158h175zM180 1708l-200 352h99l146 -194l146 194h99l-200 -352h-90z" />
    <glyph glyph-name="lcaron" unicode="&#x13e;" horiz-adv-x="260" 
d="M220 1679v-1231h-180v1231h180zM85 1781l-200 352h99l146 -194l146 194h99l-200 -352h-90z" />
    <glyph glyph-name="Nacute" unicode="&#x143;" horiz-adv-x="1062" 
d="M267 1606l580 -935v935h175v-1158h-226l-581 933v-933h-175v1158h227zM662 2002l-191 -294h-71l88 294h174z" />
    <glyph glyph-name="nacute" unicode="&#x144;" 
d="M212 1305v-116q106 81 195 109q87 27 159 18t131 -45q57 -34 91 -103q34 -66 34 -159v-561h-172v494q0 98 -42 154q-44 60 -110 67q-66 9 -139 -19q-63 -21 -146 -87v-609h-173v857h172zM562 1721l-191 -294h-71l88 294h174z" />
    <glyph glyph-name="Ncedilla" unicode="&#x145;" horiz-adv-x="1062" 
d="M267 1606l580 -935v935h175v-1158h-226l-581 933v-933h-175v1158h227zM462 366q0 -32 -1 -53q-2 -48 40 -66q47 -19 53 -22q15 -5 18 -14q10 -14 7 -30q-5 -50 -74 -41q-27 4 -93 7v-65q39 0 93 -7q77 -9 115 28q30 31 28 88q0 41 -21 62q-18 24 -63 39q-26 10 -32 24
q0 4 -1 50h-69z" />
    <glyph glyph-name="ncedilla" unicode="&#x146;" 
d="M212 1305v-116q106 81 195 109q87 27 159 18t131 -45q57 -34 91 -103q34 -66 34 -159v-561h-172v494q0 98 -42 154q-44 60 -110 67q-66 9 -139 -19q-63 -21 -146 -87v-609h-173v857h172zM362 366q0 -32 -1 -53q-2 -48 40 -66q47 -19 53 -22q15 -5 18 -14q10 -14 7 -30
q-5 -50 -74 -41q-27 4 -93 7v-65q39 0 93 -7q77 -9 115 28q30 31 28 88q0 41 -21 62q-18 24 -63 39q-26 10 -32 24q0 4 -1 50h-69z" />
    <glyph glyph-name="Ncaron" unicode="&#x147;" horiz-adv-x="1062" 
d="M267 1606l580 -935v935h175v-1158h-226l-581 933v-933h-175v1158h227zM486 1708l-200 352h99l146 -194l146 194h99l-200 -352h-90z" />
    <glyph glyph-name="ncaron" unicode="&#x148;" 
d="M212 1305v-116q106 81 195 109q87 27 159 18t131 -45q57 -34 91 -103q34 -66 34 -159v-561h-172v494q0 98 -42 154q-44 60 -110 67q-66 9 -139 -19q-63 -21 -146 -87v-609h-173v857h172zM386 1427l-200 352h99l146 -194l146 194h99l-200 -352h-90z" />
    <glyph glyph-name="Racute" unicode="&#x154;" horiz-adv-x="976" 
d="M494 1606q180 0 274 -98q96 -96 90 -269q-3 -75 -39 -149q-45 -93 -133 -144q50 -12 89 -56q39 -42 63 -103q24 -58 41 -121q17 -60 37 -123t40 -95h-188q-10 15 -25 66q-12 52 -30 109q-15 57 -42 114q-24 57 -69 94q-44 37 -101 37q-289 -2 -292 -1l1 -419h-170v1158
h454zM209 1022l264 1q111 1 161 43q58 52 58 166t-58 170q-50 51 -161 49h-264v-429zM629 2002l-191 -294h-71l88 294h174z" />
    <glyph glyph-name="racute" unicode="&#x155;" horiz-adv-x="554" 
d="M514 1146q-74 3 -168 -24q-94 -26 -134 -74v-600h-172v857h172v-113q62 64 131 91q72 28 171 42v-179zM408 1721l-191 -294h-71l88 294h174z" />
    <glyph glyph-name="Rcedilla" unicode="&#x156;" horiz-adv-x="976" 
d="M494 1606q180 0 274 -98q96 -96 90 -269q-3 -75 -39 -149q-45 -93 -133 -144q50 -12 89 -56q39 -42 63 -103q24 -58 41 -121q17 -60 37 -123t40 -95h-188q-10 15 -25 66q-12 52 -30 109q-15 57 -42 114q-24 57 -69 94q-44 37 -101 37q-289 -2 -292 -1l1 -419h-170v1158
h454zM209 1022l264 1q111 1 161 43q58 52 58 166t-58 170q-50 51 -161 49h-264v-429zM393 366q2 -32 -1 -53q-2 -48 40 -66q46 -19 53 -22q15 -5 18 -14q9 -14 7 -30q-4 -50 -74 -41q-27 4 -93 7v-65q39 0 93 -7q78 -9 115 28q31 31 28 88q0 41 -21 62q-20 24 -63 39
q-27 10 -32 24q-1 4 -1 50h-69z" />
    <glyph glyph-name="rcedilla" unicode="&#x157;" horiz-adv-x="554" 
d="M514 1146q-74 3 -168 -24q-94 -26 -134 -74v-600h-172v857h172v-113q62 64 131 91q72 28 171 42v-179zM94 390q0 -32 -1 -53q-2 -48 40 -66q47 -19 53 -22q15 -5 18 -14q10 -14 7 -30q-5 -50 -74 -41q-27 4 -93 7v-65q39 0 93 -7q77 -9 115 28q30 31 28 88q0 41 -21 62
q-18 24 -63 39q-26 10 -32 24q0 4 -1 50h-69z" />
    <glyph glyph-name="Rcaron" unicode="&#x158;" horiz-adv-x="976" 
d="M494 1606q180 0 274 -98q96 -96 90 -269q-3 -75 -39 -149q-45 -93 -133 -144q50 -12 89 -56q39 -42 63 -103q24 -58 41 -121q17 -60 37 -123t40 -95h-188q-10 15 -25 66q-12 52 -30 109q-15 57 -42 114q-24 57 -69 94q-44 37 -101 37q-289 -2 -292 -1l1 -419h-170v1158
h454zM209 1022l264 1q111 1 161 43q58 52 58 166t-58 170q-50 51 -161 49h-264v-429zM357 1708l-200 352h99l146 -194l146 194h99l-200 -352h-90z" />
    <glyph glyph-name="rcaron" unicode="&#x159;" horiz-adv-x="554" 
d="M514 1146q-74 3 -168 -24q-94 -26 -134 -74v-600h-172v857h172v-113q62 64 131 91q72 28 171 42v-179zM232 1427l-200 352h99l146 -194l146 194h99l-200 -352h-90z" />
    <glyph glyph-name="Sacute" unicode="&#x15a;" horiz-adv-x="990" 
d="M475 1625q196 0 379 -84l-25 -142q-99 53 -233 73q-135 20 -249 -13q-49 -15 -82 -49q-32 -32 -41 -71q-12 -63 33 -114q36 -39 110 -61q57 -16 150 -34q95 -18 139 -30q226 -58 274 -199q30 -82 9 -181q-21 -96 -84 -160q-66 -68 -153 -98q-90 -33 -231 -33
q-198 1 -378 85l25 150q154 -68 325 -76q256 -12 319 127q34 73 -5 133t-133 84q-40 12 -139 34q-97 24 -151 37q-63 17 -126 50q-63 36 -97 78q-81 105 -45 245q42 162 221 224q72 27 188 25zM626 2021l-191 -294h-71l88 294h174z" />
    <glyph glyph-name="sacute" unicode="&#x15b;" horiz-adv-x="754" 
d="M364 1323q150 -1 285 -67q-21 -135 -25 -144q-129 66 -252 66q-156 0 -175 -84q-7 -32 14 -61q23 -27 74 -43q37 -9 103 -21t100 -21q172 -42 212 -155q24 -69 7 -140q-27 -113 -122 -170q-95 -56 -231 -53q-158 4 -293 67q3 15 11 66q9 54 15 81q69 -38 179 -56
q112 -16 205 10q27 10 48 32t27 53q6 33 -15 65q-19 30 -71 45q-30 9 -64 16q-33 9 -79 16q-45 9 -64 13q-51 12 -93 30q-40 21 -73 51q-33 33 -45 80q-12 51 0 110q14 65 58 116q88 101 264 98zM508 1721l-191 -294h-71l88 294h174z" />
    <glyph glyph-name="Scircumflex" unicode="&#x15c;" horiz-adv-x="990" 
d="M475 1625q196 0 379 -84l-25 -142q-99 53 -233 73q-135 20 -249 -13q-49 -15 -82 -49q-32 -32 -41 -71q-12 -63 33 -114q36 -39 110 -61q57 -16 150 -34q95 -18 139 -30q226 -58 274 -199q30 -82 9 -181q-21 -96 -84 -160q-66 -68 -153 -98q-90 -33 -231 -33
q-198 1 -378 85l25 150q154 -68 325 -76q256 -12 319 127q34 73 -5 133t-133 84q-40 12 -139 34q-97 24 -151 37q-63 17 -126 50q-63 36 -97 78q-81 105 -45 245q42 162 221 224q72 27 188 25zM450 2079l-200 -352h99l146 194l146 -194h99l-200 352h-90z" />
    <glyph glyph-name="scircumflex" unicode="&#x15d;" horiz-adv-x="754" 
d="M364 1323q150 -1 285 -67q-21 -135 -25 -144q-129 66 -252 66q-156 0 -175 -84q-7 -32 14 -61q23 -27 74 -43q37 -9 103 -21t100 -21q172 -42 212 -155q24 -69 7 -140q-27 -113 -122 -170q-95 -56 -231 -53q-158 4 -293 67q3 15 11 66q9 54 15 81q69 -38 179 -56
q112 -16 205 10q27 10 48 32t27 53q6 33 -15 65q-19 30 -71 45q-30 9 -64 16q-33 9 -79 16q-45 9 -64 13q-51 12 -93 30q-40 21 -73 51q-33 33 -45 80q-12 51 0 110q14 65 58 116q88 101 264 98zM332 1779l-200 -352h99l146 194l146 -194h99l-200 352h-90z" />
    <glyph glyph-name="Scedilla" unicode="&#x15e;" horiz-adv-x="990" 
d="M475 1625q196 0 379 -84l-25 -142q-99 53 -233 73q-135 20 -249 -13q-49 -15 -82 -49q-32 -32 -41 -71q-12 -63 33 -114q36 -39 110 -61q57 -16 150 -34q95 -18 139 -30q226 -58 274 -199q30 -82 9 -181q-21 -96 -84 -160q-66 -68 -153 -98q-90 -33 -231 -33
q-198 1 -378 85l25 150q154 -68 325 -76q256 -12 319 127q34 73 -5 133t-133 84q-40 12 -139 34q-97 24 -151 37q-63 17 -126 50q-63 36 -97 78q-81 105 -45 245q42 162 221 224q72 27 188 25zM450 392q0 -32 -1 -53q-2 -48 40 -66q47 -19 53 -22q15 -5 18 -14q10 -14 7 -30
q-5 -50 -74 -41q-27 4 -93 7v-65q39 0 93 -7q77 -9 115 28q30 31 28 88q0 41 -21 62q-18 24 -63 39q-26 10 -32 24q0 4 -1 50h-69z" />
    <glyph glyph-name="scedilla" unicode="&#x15f;" horiz-adv-x="754" 
d="M364 1323q150 -1 285 -67q-21 -135 -25 -144q-129 66 -252 66q-156 0 -175 -84q-7 -32 14 -61q23 -27 74 -43q37 -9 103 -21t100 -21q172 -42 212 -155q24 -69 7 -140q-27 -113 -122 -170q-95 -56 -231 -53q-158 4 -293 67q3 15 11 66q9 54 15 81q69 -38 179 -56
q112 -16 205 10q27 10 48 32t27 53q6 33 -15 65q-19 30 -71 45q-30 9 -64 16q-33 9 -79 16q-45 9 -64 13q-51 12 -93 30q-40 21 -73 51q-33 33 -45 80q-12 51 0 110q14 65 58 116q88 101 264 98zM323 396q2 -32 -1 -53q-2 -48 40 -66q46 -19 53 -22q15 -5 18 -14
q9 -14 7 -30q-4 -50 -74 -41q-27 4 -93 7v-65q39 0 93 -7q78 -9 115 28q31 31 28 88q0 41 -21 62q-20 24 -63 39q-27 10 -32 24q-1 4 -1 50h-69z" />
    <glyph glyph-name="Scaron" unicode="&#x160;" horiz-adv-x="990" 
d="M475 1625q196 0 379 -84l-25 -142q-99 53 -233 73q-135 20 -249 -13q-49 -15 -82 -49q-32 -32 -41 -71q-12 -63 33 -114q36 -39 110 -61q57 -16 150 -34q95 -18 139 -30q226 -58 274 -199q30 -82 9 -181q-21 -96 -84 -160q-66 -68 -153 -98q-90 -33 -231 -33
q-198 1 -378 85l25 150q154 -68 325 -76q256 -12 319 127q34 73 -5 133t-133 84q-40 12 -139 34q-97 24 -151 37q-63 17 -126 50q-63 36 -97 78q-81 105 -45 245q42 162 221 224q72 27 188 25zM450 1727l-200 352h99l146 -194l146 194h99l-200 -352h-90z" />
    <glyph glyph-name="scaron" unicode="&#x161;" horiz-adv-x="754" 
d="M364 1323q150 -1 285 -67q-21 -135 -25 -144q-129 66 -252 66q-156 0 -175 -84q-7 -32 14 -61q23 -27 74 -43q37 -9 103 -21t100 -21q172 -42 212 -155q24 -69 7 -140q-27 -113 -122 -170q-95 -56 -231 -53q-158 4 -293 67q3 15 11 66q9 54 15 81q69 -38 179 -56
q112 -16 205 10q27 10 48 32t27 53q6 33 -15 65q-19 30 -71 45q-30 9 -64 16q-33 9 -79 16q-45 9 -64 13q-51 12 -93 30q-40 21 -73 51q-33 33 -45 80q-12 51 0 110q14 65 58 116q88 101 264 98zM332 1427l-200 352h99l146 -194l146 194h99l-200 -352h-90z" />
    <glyph glyph-name="Tcedilla" unicode="&#x162;" horiz-adv-x="1008" 
d="M973 1606v-160h-383v-998h-171v998h-384v160h938zM471 399q2 -33 -1 -53q-2 -48 40 -66q46 -18 53 -22q15 -4 18 -14q9 -14 7 -30q-4 -50 -74 -41q-27 4 -93 7v-65q39 -1 93 -7q78 -10 115 28q31 30 28 88q0 40 -21 62q-20 24 -63 39q-27 10 -32 24q-1 3 -1 50h-69z" />
    <glyph glyph-name="tcedilla" unicode="&#x163;" horiz-adv-x="642" 
d="M360 1304l242 1v-147h-242l1 -483q1 -33 10 -55q9 -20 35 -34q56 -26 196 8v-145q-105 -21 -204 -16q-116 7 -167 70q-43 55 -46 175v480h-145v147h145v204l175 78v-283zM351 397q2 -33 -1 -53q-2 -48 40 -66q46 -18 53 -22q15 -4 18 -14q9 -14 7 -30q-4 -50 -74 -41
q-27 4 -93 7v-65q39 -1 93 -7q78 -10 115 28q31 30 28 88q0 40 -21 62q-20 24 -63 39q-27 10 -32 24q-1 3 -1 50h-69z" />
    <glyph glyph-name="Tcaron" unicode="&#x164;" horiz-adv-x="1008" 
d="M973 1606v-160h-383v-998h-171v998h-384v160h938zM459 1708l-200 352h99l146 -194l146 194h99l-200 -352h-90z" />
    <glyph glyph-name="tcaron" unicode="&#x165;" horiz-adv-x="640" 
d="M368 1304l242 1v-147h-242l1 -483q1 -33 10 -55q9 -20 35 -34q56 -26 196 8v-145q-105 -21 -204 -16q-116 7 -167 70q-43 55 -46 175v480h-145v147h145v204l175 78v-283zM230 1689l-200 352h99l146 -194l146 194h99l-200 -352h-90z" />
    <glyph glyph-name="Utilde" unicode="&#x168;" horiz-adv-x="1076" 
d="M228 1606l1 -656q3 -174 88 -266q85 -87 220 -89q139 0 220 87q87 94 87 268v656h192v-679q0 -234 -143 -369q-134 -128 -356 -128t-357 128q-140 135 -140 369v679h188zM295 1714q-3 75 13 117q12 33 46 54q36 21 81 13q10 -2 16 -4q26 -6 101 -38q44 -16 68 -25
q24 -7 50 -7q28 2 38 20q15 22 13 56h64q2 -80 -13 -118q-10 -32 -46 -53q-33 -21 -81 -13q-9 2 -16 4q-23 8 -101 38q-44 18 -68 25q-24 9 -50 7q-26 0 -38 -20q-10 -20 -13 -56h-64z" />
    <glyph glyph-name="utilde" unicode="&#x169;" 
d="M650 448v116q-105 -81 -195 -109q-84 -27 -159 -18q-74 9 -131 44q-55 35 -91 104q-34 69 -34 158v562h172v-494q0 -99 42 -155q44 -57 110 -66q66 -8 139 19q65 24 146 87v609h173v-857h-172zM188 1413q-2 73 13 117q13 33 46 54q36 22 81 13q10 -1 16 -4q24 -5 101 -38
q45 -16 68 -25q23 -8 50 -7q27 3 38 20q13 23 13 56h64q0 -81 -13 -118q-10 -33 -46 -53q-35 -21 -81 -13q-10 3 -16 4q-24 9 -101 38q-45 17 -68 25q-23 10 -50 7q-27 1 -38 -20q-9 -20 -13 -56h-64z" />
    <glyph glyph-name="Uring" unicode="&#x16e;" horiz-adv-x="1076" 
d="M228 1606l1 -656q3 -174 88 -266q85 -87 220 -89q139 0 220 87q87 94 87 268v656h192v-679q0 -234 -143 -369q-134 -128 -356 -128t-357 128q-140 135 -140 369v679h188zM688 2070q-62 63 -150 63q-87 1 -150 -62t-63 -151q-1 -87 62 -150q63 -62 151 -62t150 62
q63 63 63 150q0 88 -63 150zM449 2009q39 37 89 37q52 2 89 -36q37 -36 37 -90q0 -51 -37 -89q-37 -37 -89 -37q-50 0 -89 36q-37 39 -37 90q0 54 37 89z" />
    <glyph glyph-name="uring" unicode="&#x16f;" 
d="M650 448v116q-105 -81 -195 -109q-84 -27 -159 -18q-74 9 -131 44q-55 35 -91 104q-34 69 -34 158v562h172v-494q0 -99 42 -155q44 -57 110 -66q66 -8 139 19q65 24 146 87v609h173v-857h-172zM581 1769q-62 63 -150 63q-87 0 -150 -62q-63 -63 -63 -151q0 -87 62 -150
q64 -62 151 -62t150 62q63 63 63 150q0 88 -63 150zM342 1708q38 39 89 37q53 2 89 -36q39 -36 37 -90q2 -51 -37 -89q-36 -36 -89 -37q-51 0 -89 36q-36 39 -37 90q1 53 37 89z" />
    <glyph glyph-name="Wcircumflex" unicode="&#x174;" horiz-adv-x="1920" 
d="M213 1606l338 -1004q232 760 304 1004h210l306 -1004l336 1004h193l-391 -1158h-258l-291 918l-291 -918h-262l-387 1158h193zM915 2060l-200 -352h99l146 194l146 -194h99l-200 352h-90z" />
    <glyph glyph-name="wcircumflex" unicode="&#x175;" horiz-adv-x="1482" 
d="M203 1305l222 -743l223 743h187l223 -743l222 743h182l-267 -857h-250l-203 634l-203 -634h-250l-269 857h183zM696 1759l-200 -352h99l146 194l146 -194h99l-200 352h-90z" />
    <glyph glyph-name="Ycircumflex" unicode="&#x176;" horiz-adv-x="1048" 
d="M216 1605l308 -517l308 517h196l-417 -704v-453h-173v453l-418 704h196zM479 2059l-200 -352h99l146 194l146 -194h99l-200 352h-90z" />
    <glyph glyph-name="ycircumflex" unicode="&#x177;" 
d="M204 1305l229 -774l227 774h182l-262 -867q-56 -186 -64 -379h-184q4 101 13 164q6 33 12 68q9 36 20 86q14 51 17 70h-118l-256 858h184zM386 1759l-200 -352h99l146 194l146 -194h99l-200 352h-90z" />
    <glyph glyph-name="Ydieresis" unicode="&#x178;" horiz-adv-x="1048" 
d="M216 1605l308 -517l308 517h196l-417 -704v-453h-173v453l-418 704h196zM435 1875q-29 29 -69 29q-39 0 -69 -29q-29 -27 -29 -70q0 -39 29 -69q30 -27 69 -29q42 2 70 29q30 30 29 69q0 43 -30 70zM751 1875q-29 29 -69 29q-39 0 -69 -29q-30 -27 -30 -70q2 -39 29 -69
q30 -27 70 -29q40 1 69 28q29 31 29 70q0 43 -29 70z" />
    <glyph glyph-name="Zacute" unicode="&#x179;" horiz-adv-x="1032" 
d="M992 1606v-173l-729 -822h728v-163h-951v172l729 822h-728v164h951zM647 2002l-191 -294h-71l88 294h174z" />
    <glyph glyph-name="zacute" unicode="&#x17a;" horiz-adv-x="800" 
d="M760 1305v-165l-524 -541h524v-151h-720v164l524 542h-524v151h720zM531 1701l-191 -294h-71l88 294h174z" />
    <glyph glyph-name="Zcaron" unicode="&#x17d;" horiz-adv-x="1032" 
d="M992 1606v-173l-729 -822h728v-163h-951v172l729 822h-728v164h951zM471 1708l-200 352h99l146 -194l146 194h99l-200 -352h-90z" />
    <glyph glyph-name="zcaron" unicode="&#x17e;" horiz-adv-x="800" 
d="M760 1305v-165l-524 -541h524v-151h-720v164l524 542h-524v151h720zM355 1407l-200 352h99l146 -194l146 194h99l-200 -352h-90z" />
    <glyph glyph-name="Ohorn" unicode="&#x1a0;" horiz-adv-x="1120" 
d="M560 1625q298 1 411 -128q119 -132 119 -471q0 -334 -119 -469q-132 -128 -411 -128q-296 0 -410 128q-120 135 -120 469q0 336 120 471q134 129 410 128zM560 1468q-218 0 -292 -116q-63 -102 -65 -329q3 -223 65 -325q40 -56 115 -83q78 -25 177 -25q222 0 293 111
q64 100 64 325q6 237 -64 330q-87 118 -293 112zM1113 1544q-9 -42 17 -74q27 -32 71 -35q-28 -61 -61 -103h87q29 42 50 82q27 51 32 87q9 40 -11 73q-18 34 -56 45q-44 15 -82 -7t-47 -68z" />
    <glyph glyph-name="ohorn" unicode="&#x1a1;" horiz-adv-x="870" 
d="M436 1323q228 1 317 -101q87 -98 87 -345q0 -246 -87 -345q-105 -102 -317 -102q-228 0 -319 102q-87 99 -87 345q0 247 87 345q106 102 319 101zM436 1180q-152 0 -200 -75q-42 -57 -42 -229q0 -170 42 -227q54 -81 200 -76q152 1 202 76q38 59 40 230q2 172 -40 226
q-56 78 -202 75zM868 1237q-10 -41 17 -74q27 -32 71 -35q-30 -60 -61 -103h87q30 43 50 82q26 51 32 87q9 40 -11 73q-17 36 -56 45q-43 15 -82 -7q-38 -21 -47 -68z" />
    <glyph glyph-name="Uhorn" unicode="&#x1af;" horiz-adv-x="1076" 
d="M228 1606l1 -656q3 -174 88 -266q85 -87 220 -89q139 0 220 87q87 94 87 268v656h192v-679q0 -234 -143 -369q-134 -128 -356 -128t-357 128q-140 135 -140 369v679h188zM1125 1543q-9 -41 17 -74q27 -32 71 -35q-28 -60 -61 -103h87q29 43 50 82q27 51 32 87
q9 40 -11 73q-18 36 -56 45q-44 15 -82 -7q-38 -21 -47 -68z" />
    <glyph glyph-name="uhorn" unicode="&#x1b0;" 
d="M650 448v116q-105 -81 -195 -109q-84 -27 -159 -18q-74 9 -131 44q-55 35 -91 104q-34 69 -34 158v562h172v-494q0 -99 42 -155q44 -57 110 -66q66 -8 139 19q65 24 146 87v609h173v-857h-172zM920 1242q-10 -42 17 -74t71 -35q-30 -61 -61 -103h87q30 42 50 82
q26 51 32 87q9 40 -11 73q-17 34 -56 45q-43 15 -82 -7q-38 -22 -47 -68z" />
    <glyph glyph-name="Acaron" unicode="&#x1cd;" horiz-adv-x="1106" 
d="M683 1606l403 -1158h-184l-102 305h-493l-103 -305h-184l403 1158h260zM361 912h385l-192 540zM508 1708l-200 352h99l146 -194l146 194h99l-200 -352h-90z" />
    <glyph glyph-name="acaron" unicode="&#x1ce;" horiz-adv-x="896" 
d="M856 448q-57 2 -213 -7q-85 -3 -127 -7q-40 -2 -112 0q-70 4 -124 14q-57 12 -105 44q-45 33 -73 75q-26 45 -44 98q-16 57 -22 108q-6 53 -5 110q5 221 113 338q45 48 111 72q69 25 146 22q75 -2 157 -20t124 -21v31h174v-857zM682 1126q-38 2 -126 20q-87 21 -141 18
q-98 -3 -152 -69q-63 -75 -64 -226q0 -225 120 -268q37 -11 91 -14q57 0 139 3q85 6 133 5v531zM398 1419l-200 352h99l146 -194l146 194h99l-200 -352h-90z" />
    <glyph glyph-name="Icaron" unicode="&#x1cf;" horiz-adv-x="264" 
d="M224 1606v-1158h-184v1158h184zM87 1708l-200 352h99l146 -194l146 194h99l-200 -352h-90z" />
    <glyph glyph-name="Ocaron" unicode="&#x1d1;" horiz-adv-x="1120" 
d="M560 1625q298 1 411 -128q119 -132 119 -471q0 -334 -119 -469q-132 -128 -411 -128q-296 0 -410 128q-120 135 -120 469q0 336 120 471q134 129 410 128zM560 1468q-218 0 -292 -116q-63 -102 -65 -329q3 -223 65 -325q40 -56 115 -83q78 -25 177 -25q222 0 293 111
q64 100 64 325q6 237 -64 330q-87 118 -293 112zM515 1727l-200 352h99l146 -194l146 194h99l-200 -352h-90z" />
    <glyph glyph-name="ocaron" unicode="&#x1d2;" horiz-adv-x="870" 
d="M436 1323q228 1 317 -101q87 -98 87 -345q0 -246 -87 -345q-105 -102 -317 -102q-228 0 -319 102q-87 99 -87 345q0 247 87 345q106 102 319 101zM436 1180q-152 0 -200 -75q-42 -57 -42 -229q0 -170 42 -227q54 -81 200 -76q152 1 202 76q38 59 40 230q2 172 -40 226
q-56 78 -202 75zM390 1425l-200 352h99l146 -194l146 194h99l-200 -352h-90z" />
    <glyph glyph-name="Ucaron" unicode="&#x1d3;" horiz-adv-x="1076" 
d="M228 1606l1 -656q3 -174 88 -266q85 -87 220 -89q139 0 220 87q87 94 87 268v656h192v-679q0 -234 -143 -369q-134 -128 -356 -128t-357 128q-140 135 -140 369v679h188zM493 1708l-200 352h99l146 -194l146 194h99l-200 -352h-90z" />
    <glyph glyph-name="ucaron" unicode="&#x1d4;" 
d="M650 448v116q-105 -81 -195 -109q-84 -27 -159 -18q-74 9 -131 44q-55 35 -91 104q-34 69 -34 158v562h172v-494q0 -99 42 -155q44 -57 110 -66q66 -8 139 19q65 24 146 87v609h173v-857h-172zM386 1407l-200 352h99l146 -194l146 194h99l-200 -352h-90z" />
    <glyph glyph-name="Gcaron" unicode="&#x1e6;" horiz-adv-x="992" 
d="M533 1620q63 0 134 -13q114 -21 237 -80l-24 -151q-120 64 -213 80q-108 21 -195 0q-140 -30 -209 -149q-69 -120 -65 -310q4 -207 104 -313q48 -50 111 -69q63 -17 151 -20q80 -1 221 8v326h-183v168h183h139h28v-640q-24 1 -50 -2t-59 -6t-52 -6q-183 -13 -289 -7
q-182 14 -289 104q-171 147 -178 449q-5 247 85 406q90 162 267 207q65 18 146 18zM446 1722l-200 352h99l146 -194l146 194h99l-200 -352h-90z" />
    <glyph glyph-name="gcaron" unicode="&#x1e7;" horiz-adv-x="897" 
d="M856 1305v-857v-52v-42q3 -30 1 -44q1 -12 -2 -41q-1 -27 -5 -43q-2 -14 -11 -38q-6 -24 -18 -39q-11 -15 -27 -34q-16 -18 -37 -33q-21 -14 -42 -26q-21 -9 -47 -18q-26 -6 -44 -12q-18 -3 -51 -6q-33 0 -47 -2t-55 1q-39 3 -50 3q-9 2 -57 5q-45 6 -54 6q-98 11 -170 8
v151q21 0 45 -1q25 0 64 -3q39 -2 66 -3q24 -1 96 -11q73 -10 121 -8q48 3 87 24q23 14 37 40q16 27 20 69q6 43 6 70q4 29 1 74q-4 2 -19 -1q-12 0 -20 -1q-86 -3 -127 -7q-39 -2 -112 0q-71 4 -125 14q-57 12 -105 44q-45 33 -73 75q-26 45 -44 98q-16 57 -22 108
q-6 53 -5 110q6 219 114 338q43 48 111 72q68 25 146 22q76 -2 157 -20q82 -18 124 -21v31h173zM683 1126q-35 3 -125 21q-88 21 -142 18q-98 -3 -153 -70q-63 -75 -63 -226q0 -225 120 -268q84 -30 363 -3v528zM429 1419l-200 352h99l146 -194l146 194h99l-200 -352h-90z
" />
    <glyph glyph-name="Kcaron" unicode="&#x1e8;" horiz-adv-x="944" 
d="M209 1606v-585l452 585h217l-78 -98q-78 -96 -191 -241q-113 -143 -183 -236q72 7 132 -20q62 -25 101 -67q41 -42 80 -108q41 -64 65 -124q26 -57 59 -137q35 -79 61 -127h-197q-11 18 -26 46q-11 30 -23 58q-10 30 -25 65q-15 36 -29 66q-15 33 -36 65q-21 34 -45 58
q-23 26 -57 47q-33 23 -73 32q-39 10 -91 12q-50 3 -113 -12v-437h-169v1158h169zM389 1708l-200 352h99l146 -194l146 194h99l-200 -352h-90z" />
    <glyph glyph-name="kcaron" unicode="&#x1e9;" horiz-adv-x="934" 
d="M354 1679v-742q63 71 177 211q117 142 131 157h216q-315 -363 -342 -394q70 0 124 -34q57 -33 91 -91q36 -57 62 -115q27 -57 53 -124q27 -66 48 -99h-196q-6 14 -16 39q-10 27 -19 54t-23 60q-14 34 -32 61q-16 28 -43 55q-25 27 -58 41q-31 15 -76 21q-43 9 -97 -6
v-325h-174v1231h174zM220 1781l-200 352h99l146 -194l146 194h99l-200 -352h-90z" />
    <glyph glyph-name="jcaron" unicode="&#x1f0;" horiz-adv-x="702" 
d="M517 1305v-908q1 -115 -47 -175q-54 -68 -167 -75q-113 -6 -263 39v141q190 -53 255 -23q45 22 46 93v908h176zM382 1410l-200 352h99l146 -194l146 194h99l-200 -352h-90z" />
    <glyph glyph-name="Gacute" unicode="&#x1f4;" horiz-adv-x="992" 
d="M533 1620q63 0 134 -13q114 -21 237 -80l-24 -151q-120 64 -213 80q-108 21 -195 0q-140 -30 -209 -149q-69 -120 -65 -310q4 -207 104 -313q48 -50 111 -69q63 -17 151 -20q80 -1 221 8v326h-183v168h183h139h28v-640q-24 1 -50 -2t-59 -6t-52 -6q-183 -13 -289 -7
q-182 14 -289 104q-171 147 -178 449q-5 247 85 406q90 162 267 207q65 18 146 18zM622 2016l-191 -294h-71l88 294h174z" />
    <glyph glyph-name="gacute" unicode="&#x1f5;" horiz-adv-x="897" 
d="M856 1305v-857v-52v-42q3 -30 1 -44q1 -12 -2 -41q-1 -27 -5 -43q-2 -14 -11 -38q-6 -24 -18 -39q-11 -15 -27 -34q-16 -18 -37 -33q-21 -14 -42 -26q-21 -9 -47 -18q-26 -6 -44 -12q-18 -3 -51 -6q-33 0 -47 -2t-55 1q-39 3 -50 3q-9 2 -57 5q-45 6 -54 6q-98 11 -170 8
v151q21 0 45 -1q25 0 64 -3q39 -2 66 -3q24 -1 96 -11q73 -10 121 -8q48 3 87 24q23 14 37 40q16 27 20 69q6 43 6 70q4 29 1 74q-4 2 -19 -1q-12 0 -20 -1q-86 -3 -127 -7q-39 -2 -112 0q-71 4 -125 14q-57 12 -105 44q-45 33 -73 75q-26 45 -44 98q-16 57 -22 108
q-6 53 -5 110q6 219 114 338q43 48 111 72q68 25 146 22q76 -2 157 -20q82 -18 124 -21v31h173zM683 1126q-35 3 -125 21q-88 21 -142 18q-98 -3 -153 -70q-63 -75 -63 -226q0 -225 120 -268q84 -30 363 -3v528zM635 1713l-191 -294h-71l88 294h174z" />
    <glyph glyph-name="Hcaron" unicode="&#x21e;" horiz-adv-x="996" 
d="M214 1606v-477h568v477h174v-1158h-174v519h-568v-519h-174v1158h174zM453 1708l-200 352h99l146 -194l146 194h99l-200 -352h-90z" />
    <glyph glyph-name="hcaron" unicode="&#x21f;" horiz-adv-x="1012" 
d="M362 1679v-490q106 81 195 109q87 27 159 18t131 -45q57 -34 91 -103q34 -66 34 -159v-561h-172v494q0 98 -42 154q-44 60 -110 67q-66 9 -139 -19q-63 -21 -146 -87q2 -203 -1 -609h-172v1231h172zM230 1781l-200 352h99l146 -194l146 194h99l-200 -352h-90z" />
    <glyph glyph-name="Ecedilla" unicode="&#x228;" horiz-adv-x="902" 
d="M862 1606v-164h-650v-318h539v-164h-539v-349h650v-163h-822v1158h822zM382 394q0 -32 -1 -53q-2 -48 40 -66q47 -19 53 -22q15 -5 18 -14q10 -14 7 -30q-5 -50 -74 -41q-27 4 -93 7v-65q39 0 93 -7q77 -9 115 28q30 31 28 88q0 41 -21 62q-18 24 -63 39q-26 10 -32 24
q0 4 -1 50h-69z" />
    <glyph glyph-name="ecedilla" unicode="&#x229;" horiz-adv-x="839" 
d="M423 1322q111 0 191 -32q82 -32 127 -93q33 -45 47 -109q16 -63 16 -132t-6 -147h-603q-1 -99 37 -160q51 -75 195 -75q159 0 362 43v-147q-231 -40 -366 -40q-216 0 -306 101q-87 99 -87 345q0 238 87 336q99 110 306 110zM423 1176q-143 0 -191 -74q-30 -48 -37 -156
h455q8 105 -28 156q-48 74 -199 74zM396 393q0 -33 -1 -53q-2 -48 40 -66q47 -18 53 -22q15 -4 18 -14q10 -14 7 -30q-5 -50 -74 -41q-27 4 -93 7v-65q39 -1 93 -7q77 -10 115 28q30 30 28 88q0 40 -21 62q-18 24 -63 39q-26 10 -32 24q0 3 -1 50h-69z" />
    <glyph glyph-name="igrave" unicode="&#xec;" horiz-adv-x="342" 
d="M89 1305v-857h176v857h-176zM40 1713l191 -294h71l-88 294h-174z" />
    <glyph glyph-name="iacute" unicode="&#xed;" horiz-adv-x="342" 
d="M89 1305v-857h176v857h-176zM302 1713l-191 -294h-71l88 294h174z" />
    <glyph glyph-name="icircumflex" unicode="&#xee;" horiz-adv-x="570" 
d="M198 1305v-857h176v857h-176zM240 1776l-200 -352h99l146 194l146 -194h99l-200 352h-90z" />
    <glyph glyph-name="idieresis" unicode="&#xef;" horiz-adv-x="592" 
d="M208 1305v-857h176v857h-176zM207 1592q-29 30 -69 29q-39 1 -69 -29q-29 -28 -29 -70q0 -39 29 -69q30 -29 69 -29q42 0 70 29q30 30 29 69q0 42 -30 70zM523 1592q-29 30 -69 29q-39 1 -69 -29q-30 -28 -30 -70q2 -39 29 -69q30 -29 70 -29t69 28q29 30 29 70
q0 42 -29 70z" />
    <glyph glyph-name="quoteright" unicode="&#x2019;" horiz-adv-x="313" 
d="M40 1511q-9 -51 21 -89q33 -38 84 -42q-35 -70 -74 -124h105q39 57 60 99q33 63 39 104q9 49 -14 88q-21 42 -67 54q-52 18 -98 -9q-44 -26 -56 -81z" />
    <glyph glyph-name="less" unicode="&#x3c;" horiz-adv-x="820" 
d="M780 1503v-108l-650 -368l650 -368v-108l-760 431v90z" />
    <glyph glyph-name="greater" unicode="&#x3e;" horiz-adv-x="820" 
d="M40 1503v-108l650 -368l-650 -368v-108l760 431v90z" />
    <glyph glyph-name="percent" unicode="%" horiz-adv-x="922" 
d="M605 1564l-400 -1134h112l400 1134h-112zM217 1541h-5q-84 -2 -129 -47q-53 -54 -53 -181v-2q0 -124 53 -180q42 -44 126 -47h9h4q82 2 126 47q52 54 52 180v2q0 127 -52 181q-42 44 -127 47h-4zM183 1456q17 4 33 4q18 0 32 -4q30 -8 46 -40q16 -33 18 -103v-1
q-2 -70 -18 -103q-14 -32 -50 -41q-24 -6 -58 1q-34 9 -49 40q-18 37 -18 103v1q0 67 18 103q15 32 46 40zM709 910h-5q-84 -2 -129 -47q-53 -55 -53 -181v-2q0 -126 53 -181q42 -44 126 -47h9h4q82 2 126 47q52 55 52 181v2q0 128 -52 181q-42 45 -127 47h-4zM708 829
q14 1 32 -5q32 -8 46 -39q15 -31 17 -103v-1q-2 -71 -17 -103q-14 -32 -50 -41q-26 -6 -58 0q-34 9 -49 41q-18 36 -18 102v1v1q0 68 18 103q15 31 46 39q21 6 33 5z" />
    <glyph glyph-name="brokenbar" unicode="&#xa6;" horiz-adv-x="182" 
d="M40 1455v-323h102v323h-102zM40 922v-324h102v324h-102z" />
    <glyph glyph-name="underscore" unicode="_" horiz-adv-x="842" 
d="M40 430v-103h762v103h-762z" />
    <glyph glyph-name="bar" unicode="|" horiz-adv-x="204" 
d="M50 1402v-1418h104v1418h-104z" />
    <glyph glyph-name="logicalnot" unicode="&#xac;" horiz-adv-x="834" 
d="M30 1179v-102h665v-202h99v304h-764z" />
    <glyph glyph-name="asciitilde" unicode="~" horiz-adv-x="617" 
d="M33 934q-3 75 13 117q12 33 46 54q36 21 81 13q10 -2 16 -4q55 -14 133 -38q108 -30 139 -31q37 -1 49 19q15 22 13 56h64q2 -80 -13 -118q-10 -32 -46 -53q-33 -21 -81 -13q-9 2 -16 4q-93 26 -133 38q-36 12 -60 18q-21 9 -53 12q-28 6 -48 1q-18 -3 -27 -19
q-10 -20 -13 -56h-64z" />
    <glyph glyph-name="equal" unicode="=" horiz-adv-x="644" 
d="M40 1212v-103h564v103h-564zM40 944v-102h564v102h-564z" />
    <glyph glyph-name="hyphen" unicode="-" horiz-adv-x="644" 
d="M40 1075v-96h564v96h-564z" />
    <glyph glyph-name="plus" unicode="+" horiz-adv-x="842" 
d="M373 1408v-333h-333v-96h333v-334h96v334h333v96h-333v333h-96z" />
    <glyph glyph-name="section" unicode="&#xa7;" horiz-adv-x="798" 
d="M355 1736q-123 0 -204 -55q-100 -69 -109 -196q-6 -135 120 -208q14 -8 29 -14h-1q-118 -57 -142 -176q-18 -93 15 -167q34 -74 121 -110q88 -36 224 -62q116 -21 176 -54q75 -38 71 -125q-3 -72 -62 -114q-59 -44 -155 -44q-82 -1 -168 29q-84 32 -127 68l-46 -83
q145 -105 346 -106q123 1 204 55q103 70 109 196q9 138 -120 209q-2 3 -8 4q-3 3 -11 4l-10 5l1 1q120 58 142 175q18 92 -15 167t-121 111q-82 34 -224 61q-112 21 -176 55q-75 42 -71 125q5 72 62 114q59 43 155 43q84 3 168 -29q87 -28 127 -67l46 82q-145 108 -346 106z
M369 1212h2l2 -1q125 -21 197 -54q56 -24 77 -70q21 -45 11 -99q-6 -33 -29 -63q-23 -29 -56 -47q-54 -30 -144 -35l-2 1h-2q-123 24 -197 54q-56 26 -77 71q-21 48 -11 99q15 70 85 109q54 32 144 35z" />
    <glyph glyph-name="paragraph" unicode="&#xb6;" horiz-adv-x="735" 
d="M362 1626q-152 0 -242 -89t-90 -224q0 -132 93 -222t239 -90h69v-793h94v1350h79v-1350h91v1418h-189h-144z" />
    <glyph glyph-name="at" unicode="@" horiz-adv-x="1568" 
d="M785 1702q-393 2 -555 -181q-170 -191 -170 -653q0 -457 170 -651q162 -181 555 -182q119 1 209 16v149q-86 -18 -209 -18q-325 0 -443 133q-56 69 -95 204q-35 139 -37 349q2 213 37 349q39 141 95 204q118 135 443 135q324 0 441 -135q134 -147 131 -553
q1 -146 -19 -269h-121h-57v694h-166v-40q-40 3 -128 20q-86 18 -158 20h-18q-150 -2 -229 -90q-105 -113 -111 -326q0 -69 9 -134q11 -61 35 -124q25 -60 75 -104q52 -43 121 -57q106 -18 366 -7q134 7 180 7h81h89h141h16q45 172 44 410q1 464 -169 653q-160 183 -553 181z
M730 1148q50 2 136 -18q90 -18 128 -19v-512q-44 0 -131 -3q-83 -4 -142 -4q-56 3 -92 13q-115 43 -115 258q0 145 61 218q54 64 146 67h9z" />
    <glyph glyph-name="quotedbl" unicode="&#x22;" horiz-adv-x="478" 
d="M187 1599q-27 27 -65 27t-65 -26q-27 -27 -20 -67l54 -253h61q39 154 55 253q7 40 -20 66zM421 1599q-27 27 -65 27t-65 -26q-27 -27 -20 -67q9 -43 22 -107q15 -63 24 -105l9 -41h61q36 154 54 253q7 40 -20 66z" />
    <glyph glyph-name="quotedblright" unicode="&#x201d;" horiz-adv-x="613" 
d="M155 1626q-41 0 -74 -26q-32 -26 -41 -71q-9 -51 21 -89q33 -38 84 -42q-33 -68 -74 -123h105q40 60 60 98q33 63 39 105q9 48 -14 88q-21 42 -67 54q-18 6 -39 6zM455 1626q-41 0 -74 -26q-32 -26 -41 -71q-9 -51 21 -89q33 -38 84 -42q-33 -68 -74 -123h105
q40 60 60 98q33 63 39 105q9 48 -14 88q-21 42 -67 54q-18 6 -39 6z" />
    <glyph glyph-name="quotedblleft" unicode="&#x201c;" horiz-adv-x="613" 
d="M458 1275q42 -1 74 25t41 71q12 51 -21 89q-30 39 -84 42q36 72 74 124h-105q-36 -56 -60 -99q-33 -63 -39 -104q-8 -46 14 -88q24 -39 67 -54q19 -6 39 -6zM158 1275q42 -1 74 25t41 71q12 51 -21 89q-30 39 -84 42q36 72 74 124h-105q-36 -56 -60 -99q-33 -63 -39 -104
q-8 -46 14 -88q24 -39 67 -54q19 -6 39 -6z" />
    <glyph glyph-name="question" unicode="?" horiz-adv-x="666" 
d="M301 1642q-129 0 -271 -59l43 -143q63 32 128 46q65 16 122 10t97 -39q42 -33 53 -94q21 -99 -94 -168q-31 -19 -100 -49q-64 -28 -96 -79q-31 -51 -25 -109q8 -69 8 -78q3 -9 0 -99h157q3 23 -6 95t-2 93q19 53 88 77q57 21 103 54t81 83q36 51 42 113q7 63 -14 144
q-31 106 -115 154q-82 51 -199 48zM243 680q-54 0 -90 -36t-36 -89t36 -89t90 -36q52 0 88 36t36 89t-36 89t-88 36z" />
    <glyph glyph-name="exclam" unicode="!" horiz-adv-x="310" 
d="M64 1636l29 -829h125l28 829h-182zM156 679q-54 0 -90 -36t-36 -88q0 -53 36 -89t90 -36q52 0 88 36t36 89q0 52 -36 88t-88 36z" />
    <glyph glyph-name="numbersign" unicode="#" horiz-adv-x="1200" 
d="M528 1859l-110 -627h-388v-102h370l-44 -242h-326v-100h308l-110 -629h101l111 629h242l-111 -629h101l110 629h388v100h-370l44 242h326v102h-308l110 627h-102l-110 -627h-242l111 627h-101zM500 1130h242l-42 -242h-242z" />
    <glyph glyph-name="bracketleft" unicode="[" horiz-adv-x="485" 
d="M60 1777v-1701h365v117h-243v1465h243v119h-365z" />
    <glyph glyph-name="bracketright" unicode="]" horiz-adv-x="485" 
d="M425 1767v-1701h-365v117h242v1465h-242v119h365z" />
    <glyph glyph-name="parenleft" unicode="(" horiz-adv-x="405" 
d="M238 1777q-8 -11 -22 -38q-10 -25 -46 -109q-33 -82 -60 -177q-26 -91 -48 -235q-22 -142 -22 -290t20 -290q22 -140 50 -238q30 -96 58 -174q30 -75 50 -114l20 -36h107q-3 18 -13 45q-8 31 -29 124q-19 95 -37 188q-15 96 -30 231q-12 136 -14 262q0 200 30 413
q33 213 63 325l30 113h-107z" />
    <glyph glyph-name="parenright" unicode=")" horiz-adv-x="405" 
d="M167 1777q9 -11 21 -38q14 -25 47 -109q36 -82 60 -177q27 -91 48 -235q21 -142 22 -290q0 -148 -21 -290q-20 -140 -49 -238q-27 -96 -57 -174q-28 -75 -51 -114l-20 -36h-107q6 18 13 45q9 31 29 124q22 95 37 188q18 96 30 231q15 136 13 262q3 200 -30 413
q-30 213 -62 325l-30 113h107z" />
    <glyph glyph-name="braceleft" unicode="{" horiz-adv-x="508" 
d="M308 1777q-62 -1 -118 -47q-54 -45 -65 -127q-3 -33 3 -108q8 -75 14 -149q8 -74 4 -150q-2 -74 -31 -128q-27 -54 -85 -68v-147q58 -13 85 -67q28 -54 30 -130q5 -75 -3 -150q-6 -74 -14 -150q-6 -75 -3 -108q9 -80 63 -126q57 -44 120 -46q58 0 150 20v91
q-24 -9 -79 -18q-52 -8 -79 -5q-50 10 -56 72q-8 63 1 156t14 192q7 100 -21 195q-27 97 -102 147q74 52 100 147q14 48 20 96q8 48 4 98q-4 100 -14 193q-10 94 -4 156q8 63 58 72q27 4 79 -3q55 -9 79 -19v91q-81 21 -150 20z" />
    <glyph glyph-name="braceright" unicode="}" horiz-adv-x="508" 
d="M200 1777q64 -1 119 -47q57 -45 65 -127q4 -33 -4 -108q-6 -75 -13 -149t-5 -150q4 -74 31 -128q29 -54 85 -68v-147q-56 -13 -85 -67q-27 -54 -30 -130q-2 -75 4 -150q7 -74 13 -150q8 -75 4 -108q-8 -80 -64 -126q-54 -44 -120 -46q-57 0 -150 20v91q27 -9 79 -18
q55 -8 79 -5q51 10 57 72q9 63 -1 156q-8 93 -15 192q-5 100 22 195q30 97 102 147q-73 52 -101 147q-28 98 -24 194q6 100 14 193q12 94 4 156q-8 63 -58 72q-24 4 -79 -3q-52 -9 -79 -19v91q82 21 150 20z" />
    <glyph glyph-name="backslash" unicode="\" horiz-adv-x="809" 
d="M161 1727l618 -1701h-131q-102 284 -308 850q-206 568 -310 851h131z" />
    <glyph glyph-name="slash" unicode="/" horiz-adv-x="809" 
d="M648 1727l-618 -1701h131q104 284 308 850q207 568 310 851h-131z" />
    <glyph glyph-name="sterling" unicode="&#xa3;" horiz-adv-x="912" 
d="M160 1084h-130v-140h145q15 -304 -76 -496h148h606v144h-543q28 152 24 352h426v140h-437q-17 138 4 217q24 81 87 116q62 30 130 21q70 -8 136 -51q68 -41 104 -104q18 27 41 67t37 63q-58 63 -127 103q-67 42 -133 55q-66 15 -126 13t-114 -20q-118 -39 -169 -157
q-48 -117 -33 -323z" />
    <glyph glyph-name="ampersand" unicode="&#x26;" horiz-adv-x="1116" 
d="M412 1616q-146 0 -233 -87t-85 -222q3 -72 37 -138q39 -66 89 -114q-98 -55 -144 -133q-46 -75 -46 -165q0 -143 81 -233q85 -94 256 -94q146 0 359 38q50 -33 136 -37q98 -4 214 17v144q-62 -15 -122 -19q-60 -3 -97 10q-27 15 -36 35q-9 22 -11 58q0 38 -1 296h264v143
h-264v282l-171 -73v-208h-212q-87 0 -137 51q-43 46 -43 127q0 93 43 138q51 52 137 52q33 2 102 -10q70 -9 110 -11v132q-38 1 -113 10q-75 11 -113 11zM404 972h234v-305q0 -47 7 -83q-117 -18 -250 -19q-91 0 -145 57q-50 54 -50 136q0 42 16 86q18 46 42 72
q52 56 146 56z" />
    <glyph glyph-name="asciicircum" unicode="^" horiz-adv-x="666" 
d="M390 1606l256 -449h-91l-222 327l-222 -327h-91l256 449h114z" />
    <glyph glyph-name="asterisk" unicode="*" horiz-adv-x="638" 
d="M30 1406l202 -100l-201 -100l57 -100l188 124l-14 -224h114l-13 225l187 -125l58 99l-202 101l202 100l-58 99l-188 -124l14 225h-114l14 -225l-188 124z" />
    <glyph glyph-name="colon" unicode=":" horiz-adv-x="300" 
d="M235 1287q-33 36 -85 36q-50 1 -85 -35t-35 -85q0 -48 35 -84q35 -35 85 -35q52 0 85 35q35 36 35 84q0 51 -35 84zM235 633q-33 36 -85 36q-50 1 -85 -35t-35 -85q0 -48 35 -84q35 -35 85 -35q52 0 85 35q35 36 35 84q0 51 -35 84z" />
    <glyph glyph-name="dollar" unicode="$" horiz-adv-x="878" 
d="M391 1654v-196q-83 -2 -146 -22q-159 -56 -189 -198q-26 -129 38 -210q66 -80 197 -116q25 -6 100 -23v-309h-7q-150 8 -282 68l-24 -140q148 -70 313 -76v-196h84v199q72 6 129 26q78 27 133 85q54 57 72 138q21 84 -7 158q-42 122 -239 172q-39 12 -88 19v283
q142 -12 240 -71l24 139q-132 62 -264 71v199h-84zM391 1317v-269q-45 10 -70 17q-54 15 -90 54q-33 39 -24 88q5 29 31 55q28 27 67 39q39 13 86 16zM475 872q42 -10 62 -16q61 -15 94 -57q43 -55 16 -113q-25 -58 -94 -85q-27 -9 -78 -18v289z" />
    <glyph glyph-name="Euro" unicode="&#x20ac;" horiz-adv-x="1116" 
d="M732 1626q-140 2 -259 -50q-117 -50 -201 -154q-82 -102 -110 -244h-89h-19l-4 -18q-3 -27 -15 -78l-5 -27h27h93v-54h-77h-18l-4 -19l-9 -45q-6 -29 -7 -32l-5 -27h28h104q40 -210 197 -329t373 -119q183 0 324 91l10 7v13v99v48l-37 -30q-119 -96 -297 -97
q-196 -2 -322 120q-45 45 -73 89q-27 45 -42 108h654h19l18 123h-22h-683v54h695h18l17 123h-19h-697q25 108 115 197q124 120 322 120q180 0 296 -96l14 -12l21 143q-147 96 -331 96z" />
    <glyph glyph-name="cent" unicode="&#xa2;" horiz-adv-x="872" 
d="M400 1509v-263q-156 -14 -263 -131t-107 -275t107 -274t263 -131v-263h84v264q106 12 192 75q87 63 131 158h-122q-72 -105 -201 -126v595q72 -9 130 -54q60 -44 92 -108h116q-38 110 -130 182q-90 75 -208 87v264h-84zM400 1139v-597q-112 15 -188 99q-76 85 -76 199
q0 116 76 200q76 87 188 99z" />
    <glyph glyph-name="yen" unicode="&#xa5;" horiz-adv-x="1012" 
d="M20 1608l405 -683h-211v-84h223v-94h-223v-84h223v-212h117v212h224v84h-224v94h224v84h-212l406 683h-140l-336 -573l-336 573h-140z" />
    <glyph glyph-name="semicolon" unicode=";" horiz-adv-x="313" 
d="M242 1287q-34 36 -85 36q-49 1 -85 -35q-33 -36 -35 -85q2 -48 35 -84q36 -35 85 -35q51 0 85 35q36 36 35 84q1 51 -35 84zM155 669q-41 1 -74 -26q-32 -26 -41 -71q-10 -50 20 -89q33 -37 85 -41q-35 -70 -74 -124h105q39 57 60 99q33 63 39 104q9 49 -14 88
q-21 42 -67 54q-18 6 -39 6z" />
    <glyph glyph-name="glyph265" horiz-adv-x="1178" 
 />
    <glyph glyph-name="quoteleft" unicode="&#x2018;" horiz-adv-x="313" 
d="M158 1257q42 -1 74 25t41 71q12 51 -21 89q-30 39 -84 42q36 72 74 124h-105q-36 -56 -60 -99q-33 -63 -39 -104q-8 -46 14 -88q24 -39 67 -54q19 -6 39 -6z" />
    <glyph glyph-name="copyright" unicode="&#xa9;" horiz-adv-x="1078" 
d="M784 1360q-110 66 -245 66q-131 0 -245 -65q-112 -64 -178 -178q-66 -111 -66 -246q0 -131 65 -245q67 -112 178 -178q114 -66 246 -66q134 0 245 65q114 67 178 178q66 114 66 246q0 134 -65 245q-65 114 -179 178zM275 1201q111 109 264 109t263 -109
q110 -108 110 -264q2 -153 -109 -264q-110 -109 -264 -109q-153 0 -263 109q-110 111 -110 264q0 156 109 264zM519 1212q-51 0 -89 -12q-36 -12 -68 -41q-32 -27 -47 -84q-15 -56 -16 -138q-1 -78 13 -132q15 -54 42 -84q28 -28 62 -43q36 -12 84 -15q45 -1 162 8q9 1 37 3
v108q-33 -2 -41 -3q-12 0 -38 -3q-45 -6 -81 -5q-34 3 -61 14q-26 11 -40 49q-14 40 -14 103q0 29 3 53t7 41q6 18 14 30q10 13 18 21q8 9 23 12q17 6 26 7q11 3 32 2q22 1 34 -2q13 0 39 -3q27 -2 42 -4q6 0 37 -2v108q-28 3 -37 3q-92 9 -143 9z" />
    <glyph glyph-name="registered" unicode="&#xae;" horiz-adv-x="678" 
d="M543 1541q-84 85 -204 85q-118 2 -204 -84q-85 -84 -85 -205q0 -118 84 -205q87 -84 205 -85q120 1 204 85q85 87 85 205q0 120 -85 204zM177 1497q69 67 162 67q95 2 161 -66q69 -66 67 -161q2 -93 -67 -162q-66 -67 -161 -67q-93 0 -161 67q-66 69 -67 162q0 94 66 160
zM218 1500v-318v-1h57h2v111h70q23 2 35 -22q15 -22 19 -52q9 -30 12 -37h64q-9 10 -16 40q-6 32 -18 59q-9 30 -31 40q38 28 40 77q3 48 -25 75q-27 28 -78 28h-131zM277 1446h65q50 0 50 -51q0 -48 -50 -48h-65v99z" />
    <glyph glyph-name="trademark" unicode="&#x2122;" horiz-adv-x="1010" 
d="M488 1606v-473h86v324l114 -324h82l115 325v-325h85v473h-123l-117 -355l-117 355h-125zM40 1606v-81h147v-392h93v392h147v81h-150h-87h-150z" />
    <glyph glyph-name="germandbls" unicode="&#xdf;" horiz-adv-x="939" 
d="M379 1772q-151 1 -245 -95t-94 -235v-994h176v985q0 114 75 166t154.5 18t90.5 -130q6 -56 -14 -99.5t-63 -90.5q-65 -72 -69.5 -146.5t58.5 -145.5q30 -32 90.5 -84.5t99 -87.5t64.5 -81t14 -85q-15 -51 -74.5 -71.5t-139.5 -12.5t-169 39q-6 -27 -14 -79t-11 -68
q81 -37 208 -44.5t211 23.5q88 35 135 107.5t36 165.5q-5 41 -23.5 79.5t-53 77t-58.5 61t-68 60.5q-49 43 -76.5 79t-36 61.5t-2 55t18 49.5t31.5 54.5t32 61.5q23 52 27.5 107.5t-12.5 108.5t-52.5 95.5t-99 68.5t-146.5 26z" />
    </font>
</defs>
</svg>
