<?xml version="1.0" standalone="no"?>
<!DOCTYPE svg PUBLIC "-//W3C//DTD SVG 1.1//EN" "http://www.w3.org/Graphics/SVG/1.1/DTD/svg11.dtd" >
<svg>
<metadata>
Created by FontForge 20120731 at Thu Feb 20 19:22:54 2014
 By root
1.12(c) 2001 by Tomoyuki Watanabe Siple Light
</metadata>
<defs>
<font id="SipleLight" horiz-adv-x="217" >
  <font-face 
    font-family="Siple"
    font-weight="300"
    font-stretch="normal"
    units-per-em="1000"
    panose-1="0 0 3 0 0 0 0 0 0 0"
    ascent="800"
    descent="-200"
    x-height="498"
    cap-height="750"
    bbox="-1 -254 943 986"
    underline-thickness="20"
    underline-position="-123"
    unicode-range="U+0020-F002"
  />
<missing-glyph horiz-adv-x="500" 
d="M63 0v750h375v-750h-375zM125 63h250v625h-250v-625z" />
    <glyph glyph-name=".notdef" horiz-adv-x="500" 
d="M63 0v750h375v-750h-375zM125 63h250v625h-250v-625z" />
    <glyph glyph-name=".null" horiz-adv-x="0" 
 />
    <glyph glyph-name="nonmarkingreturn" horiz-adv-x="425" 
 />
    <glyph glyph-name="space" unicode=" " horiz-adv-x="425" 
 />
    <glyph glyph-name="exclam" unicode="!" horiz-adv-x="183" 
d="M123 750l-30 -562h-64l-28 562h122zM125 62q0 -26 -18.5 -44t-44.5 -18q-25 0 -43.5 18.5t-18.5 43.5q0 26 18 44.5t44 18.5t44.5 -18.5t18.5 -44.5z" />
    <glyph glyph-name="quotedbl" unicode="&#x22;" horiz-adv-x="616" 
d="M329 688q0 -38 -18 -105q-22 -78 -44 -78q-23 0 -45 78q-18 67 -18 105q0 26 18.5 44t44.5 18t44 -18t18 -44zM162 688q0 -38 -18 -105q-22 -78 -45 -78q-22 0 -44 78q-18 67 -18 105q0 26 18.5 44t43.5 18q26 0 44.5 -18t18.5 -44z" />
    <glyph glyph-name="numbersign" unicode="#" horiz-adv-x="602" 
d="M565 416h-122l-44 -155h132v-60h-149l-53 -186h-60l53 186h-140l-53 -184h-59l53 184h-123v60h140l44 155h-150v60h167l43 151h60l-43 -151h140l43 150h59l-43 -150h105v-60zM383 416h-139l-45 -155h140z" />
    <glyph glyph-name="dollar" unicode="$" horiz-adv-x="501" 
d="M459 182q0 -199 -204 -210v-59h-66v58q-86 4 -137 41.5t-51 94.5l75 1q0 -37 46 -60q35 -18 67 -18v285q-189 47 -189 187q0 100 53 144q43 35 136 41v64h66v-63q69 0 121 -32q63 -37 64 -104l-68 3q-11 68 -117 75v-266q70 -19 120 -51q84 -54 84 -131zM189 380v251
q-64 -2 -92 -28q-34 -30 -34 -102q0 -84 126 -121zM394 187q0 57 -139 110v-264q70 8 103 40q36 37 36 114z" />
    <glyph glyph-name="percent" unicode="%" horiz-adv-x="678" 
d="M234 572q0 -48 -34 -82.5t-83 -34.5t-83 34.5t-34 82.5q0 49 34 83t83 34t83 -34t34 -83zM552 689l-378 -688l-78 -1l378 689h78zM639 120q0 -48 -34.5 -82.5t-82.5 -34.5q-49 0 -83 34.5t-34 82.5q0 49 34 83t83 34q48 0 82.5 -34t34.5 -83zM188 569q0 30 -21.5 51
t-50.5 21q-30 0 -51 -21t-21 -51q0 -29 21 -50t51 -21q29 0 50.5 21t21.5 50zM592 117q0 30 -21 51t-50 21q-30 0 -51 -21t-21 -51t21 -51t51 -21q29 0 50 21t21 51z" />
    <glyph glyph-name="ampersand" unicode="&#x26;" horiz-adv-x="560" 
d="M528 1l-63 2q-23 27 -63 74q-62 -77 -179 -77q-95 0 -157 49q-66 53 -66 141q0 79 39 125q27 33 116 86q-70 103 -77 148q-4 23 -4 44q0 133 129 133q62 0 100 -34.5t38 -93.5q0 -61 -26 -117q-29 -61 -78 -97q49 -70 143 -194l5 63h62q0 -89 -17 -128zM282 600
q0 68 -82 68q-64 0 -64 -81q0 -18 3 -37q5 -30 65 -118q78 76 78 168zM357 132q-114 142 -167 219q-78 -57 -88 -67q-40 -40 -40 -95q0 -64 48 -98q43 -30 115 -30q95 0 132 71z" />
    <glyph glyph-name="quotesingle" unicode="'" horiz-adv-x="500" 
d="M319 687q0 -37 -19 -105q-22 -79 -44 -79q-23 0 -45 79q-18 68 -18 105q0 26 18.5 44.5t44.5 18.5t44.5 -18.5t18.5 -44.5z" />
    <glyph glyph-name="parenleft" unicode="(" horiz-adv-x="270" 
d="M253 798q-165 -206 -178 -472q4 -68 22 -139q44 -171 153 -325q-20 0 -51 -1h-35q-152 215 -164 465q3 75 21 150q41 178 144 322h88z" />
    <glyph glyph-name="parenright" unicode=")" horiz-adv-x="313" 
d="M253 326q-3 -73 -20 -146q-41 -175 -144 -319h-35q-31 1 -52 1q163 229 176 464q-4 78 -22 153q-45 180 -156 319h87q154 -214 166 -472z" />
    <glyph glyph-name="asterisk" unicode="*" horiz-adv-x="438" 
d="M394 632l-150 -93l99 -117l-49 -42l-98 117l-99 -117l-49 42l101 119l-149 90l33 55l132 -80v144h64v-144l132 81z" />
    <glyph glyph-name="plus" unicode="+" horiz-adv-x="404" 
d="M370 282h-156v-154h-61v154h-153v60h153v156h61v-156h156v-60z" />
    <glyph glyph-name="comma" unicode="," horiz-adv-x="187" 
d="M125 64q0 -24 -1 -10q4 -70 -5 -96q-11 -35 -23 -47q-6 -7 -29 -19q-5 -2 -12 -1q-7 2 -7 7q0 4 6 8q19 13 26 51q4 20 4 49q-9 -4 -22 -4q-25 0 -43.5 18.5t-18.5 43.5q0 26 18 44.5t44 18.5t44.5 -18.5t18.5 -44.5z" />
    <glyph glyph-name="hyphen" unicode="-" horiz-adv-x="255" 
d="M194 252h-194v61h194v-61z" />
    <glyph glyph-name="hyphen" unicode="&#x2010;" horiz-adv-x="255" 
d="M194 252h-194v61h194v-61z" />
    <glyph glyph-name="period" unicode="." horiz-adv-x="212" 
d="M148 62q0 -26 -18.5 -44t-44.5 -18q-25 0 -43.5 18.5t-18.5 43.5q0 26 18 44.5t44 18.5t44.5 -18.5t18.5 -44.5z" />
    <glyph glyph-name="slash" unicode="/" horiz-adv-x="278" 
d="M232 750l-169 -749h-63l168 750z" />
    <glyph glyph-name="zero" unicode="0" horiz-adv-x="618" 
d="M574 336q0 -336 -256 -336q-132 0 -204 90q-70 87 -70 245q0 161 65 254q69 98 198 98t200 -97q67 -93 67 -254zM514 338q0 279 -206 279q-201 0 -201 -281q0 -263 212 -263q104 0 152 70q43 64 43 195z" />
    <glyph glyph-name="one" unicode="1" horiz-adv-x="618" 
d="M340 0h-65v628h-88v61h152z" />
    <glyph glyph-name="two" unicode="2" horiz-adv-x="618" 
d="M504 0h-386v64q79 86 157 172q157 183 157 252q0 67 -21 97q-30 39 -109 39q-125 -6 -125 -84q0 -11 3 -23h-64q-2 15 -2 29q0 86 86 121q36 14 87 17q114 0 158 -36q50 -42 50 -158q0 -75 -105 -221q-81 -111 -175 -205h289v-64z" />
    <glyph glyph-name="three" unicode="3" horiz-adv-x="618" 
d="M512 491q0 -107 -89 -147q88 -44 88 -149q0 -117 -50 -159q-44 -36 -158 -36q-51 3 -87 17q-86 35 -86 121q0 14 2 29h64q-3 -12 -3 -23q0 -78 125 -84q79 0 109 40q21 29 21 96q0 63 -61 94q-43 22 -117 26q-38 1 -75 2v49q21 -1 40 -1q134 0 187 61q23 26 27 62
q0 68 -22 97q-29 40 -109 40q-124 -6 -124 -85q0 -10 2 -22h-63q-3 16 -3 30q0 86 87 120q36 14 87 17q114 0 158 -36q50 -42 50 -159z" />
    <glyph glyph-name="four" unicode="4" horiz-adv-x="618" 
d="M535 212h-124v-212h-64v212h-265v64l265 412h64v-412h124v-64zM347 276v292l-187 -292h187z" />
    <glyph glyph-name="five" unicode="5" horiz-adv-x="618" 
d="M499 217q0 -90 -63.5 -153.5t-153.5 -63.5q-120 0 -184 102h72q49 -46 113 -46q67 0 114.5 47.5t47.5 114.5t-47.5 115t-114.5 48q-72 0 -121 -54l-66 -1v364h379v-62h-316v-233q54 40 123 40q90 0 153.5 -63.5t63.5 -154.5z" />
    <glyph glyph-name="six" unicode="6" horiz-adv-x="618" 
d="M527 192q0 -83 -57.5 -137.5t-142.5 -54.5q-74 0 -131 44t-71 110h-1q-33 93 -33 219q0 58 10 108q24 121 87 169q44 33 127 37q81 4 145 -32.5t64 -89.5h-66q0 31 -42.5 50t-97.5 14q-76 -7 -110 -43q-31 -32 -47 -113q-14 -69 -8 -178q63 85 168 85q86 0 146 -53
t60 -135zM476 193q0 61 -45 99t-109 38t-106.5 -38t-42.5 -99q0 -62 45 -101t109 -39t106.5 39t42.5 101z" />
    <glyph glyph-name="seven" unicode="7" horiz-adv-x="618" 
d="M564 689l-190 -689h-64l170 626l-266 -1v-126h-64v190h414z" />
    <glyph glyph-name="eight" unicode="8" horiz-adv-x="618" 
d="M529 190q0 -89 -61.5 -139.5t-155.5 -50.5q-95 0 -157 49q-66 53 -66 141q0 119 108 171q-80 46 -80 144q0 82 57 132q54 47 140 47q85 0 139 -48.5t54 -131.5q0 -101 -79 -146q101 -53 101 -168zM456 505q0 120 -142 120q-144 0 -144 -119q0 -109 126 -121h35
q125 6 125 120zM469 189q0 65 -46 99q-41 31 -113 31t-114 -31q-45 -34 -45 -99q0 -64 48 -98q43 -30 115 -30q155 0 155 128z" />
    <glyph glyph-name="nine" unicode="9" horiz-adv-x="618" 
d="M510 241q-10 -126 -72 -189q-52 -53 -128 -52q-73 1 -133 46.5t-60 97.5h66q0 -32 38.5 -59.5t85.5 -24.5q52 3 88 41q47 47 59 142q10 81 7 145q-56 -58 -155 -58q-86 0 -144 49.5t-58 131.5t57 129t144 47q76 0 132 -37t70 -102q7 -90 7 -183q0 -68 -4 -124zM458 510
q0 60 -46 94q-42 30 -108 30t-106 -30q-43 -33 -43 -94t44 -96q41 -34 106 -34q66 0 109.5 34.5t43.5 95.5z" />
    <glyph glyph-name="colon" unicode=":" horiz-adv-x="182" 
d="M131 392q0 -25 -18 -43.5t-44 -18.5t-44.5 18t-18.5 44t18.5 44t44.5 18t44 -18t18 -44zM125 62q0 -26 -18.5 -44t-44.5 -18q-25 0 -43.5 18.5t-18.5 43.5q0 26 18 44.5t44 18.5t44.5 -18.5t18.5 -44.5z" />
    <glyph glyph-name="semicolon" unicode=";" horiz-adv-x="182" 
d="M131 392q0 -25 -18 -43.5t-44 -18.5t-44.5 18t-18.5 44t18.5 44t44.5 18t44 -18t18 -44zM125 57q2 -74 -6 -99q-11 -35 -23 -47q-6 -7 -29 -19q-5 -2 -12 -1q-7 2 -7 7q0 4 6 8q19 13 26 51q4 20 4 49q-9 -4 -22 -4q-25 0 -43.5 18.5t-18.5 43.5q0 26 18 44.5t44 18.5
q25 0 43.5 -21.5t19.5 -48.5z" />
    <glyph glyph-name="less" unicode="&#x3c;" horiz-adv-x="448" 
d="M401 353l-289 -95l289 -100l-1 -74l-400 146v55l400 143z" />
    <glyph glyph-name="equal" unicode="=" horiz-adv-x="406" 
d="M369 373h-369v61h369v-61zM371 191h-370v60h370v-60z" />
    <glyph glyph-name="greater" unicode="&#x3e;" horiz-adv-x="430" 
d="M401 230l-400 -146l-1 74l289 100l-289 95l1 75l400 -143v-55z" />
    <glyph glyph-name="question" unicode="?" horiz-adv-x="424" 
d="M382 555q0 -118 -160 -170v-199q-45 0 -64 -1l-1 248q66 15 97 31q65 33 65 89q0 68 -22 97q-29 40 -109 40q-125 -6 -125 -84q0 -11 3 -23h-64q-2 15 -2 29q0 86 86 121q36 14 87 17q115 0 159 -36q50 -42 50 -159zM254 62q0 -26 -18.5 -44t-44.5 -18q-25 0 -43.5 18.5
t-18.5 43.5q0 26 18 44.5t44 18.5t44.5 -18.5t18.5 -44.5z" />
    <glyph glyph-name="at" unicode="@" horiz-adv-x="770" 
d="M727 388q0 -110 -53 -182q-59 -79 -165 -79q-23 0 -33 16t-7 63q-61 -68 -142 -68q-23 0 -45 6q-59 17 -94 70.5t-35 122.5q0 37 11 74q22 75 77.5 121.5t119.5 46.5q103 0 152 -100l10 61l57 -10l-53 -333q-2 -4 -2 -8q0 -6 7 -6q82 37 105 72t23 131q0 117 -88.5 196
t-210.5 79q-138 0 -225 -114q-78 -102 -78 -234q0 -119 87 -186t240 -67q34 0 103.5 9.5t111.5 20.5v-61q-34 -10 -103 -19.5t-107 -9.5q-181 0 -285.5 84.5t-104.5 230.5q0 160 90 272q102 127 275 127q149 0 254 -90q108 -94 108 -236zM480 320q8 27 8 54q0 60 -35 103
q-37 47 -95 47q-49 0 -90.5 -35t-57.5 -91q-8 -26 -8 -53q0 -60 35 -104q37 -47 95 -47q48 0 90 35t58 91z" />
    <glyph glyph-name="A" unicode="A" horiz-adv-x="562" 
d="M512 3l-65 -2l-91 311h-200l-93 -312l-63 1l226 749h60zM337 374l-81 275l-82 -275h163z" />
    <glyph glyph-name="B" unicode="B" horiz-adv-x="473" 
d="M424 221q0 -122 -86 -179q-64 -42 -164 -42h-174v750h129q252 0 252 -195q0 -113 -80 -168q123 -65 123 -166zM318 554q0 65 -32 97q-40 39 -137 39q-57 0 -86 -1v-280h135q31 0 68 31q52 42 52 114zM360 220q0 57 -60.5 92.5t-150.5 35.5h-86v-287q68 1 91 1
q206 0 206 158z" />
    <glyph glyph-name="C" unicode="C" horiz-adv-x="589" 
d="M582 593h-77q-76 87 -182 87q-108 0 -184 -89t-76 -214q0 -126 76 -215t184 -89q99 0 174 78h82q-45 -70 -111 -110q-69 -41 -147 -41q-133 0 -227 110t-94 265t94 265t227 110q80 0 148.5 -42t112.5 -115z" />
    <glyph glyph-name="D" unicode="D" horiz-adv-x="479" 
d="M430 375q0 -153 -111 -265q-107 -110 -243 -110h-76v750h76q136 0 243 -109q111 -113 111 -266zM367 377q0 139 -108 228q-92 75 -195 75v-608q121 0 212 93t91 212z" />
    <glyph glyph-name="E" unicode="E" horiz-adv-x="413" 
d="M401 0h-401v750h400v-64h-336v-277h249v-64h-249v-281h337v-64z" />
    <glyph glyph-name="F" unicode="F" horiz-adv-x="411" 
d="M400 686h-336v-277h249v-64h-249v-345h-64v750h400v-64z" />
    <glyph glyph-name="G" unicode="G" horiz-adv-x="634" 
d="M616 253q-63 -254 -295 -253q-133 1 -227 110.5t-94 264.5t94 265t227 110q82 0 152.5 -45t114.5 -122h-75q-78 97 -190 97q-108 0 -184 -89t-76 -214q0 -126 76 -215t184 -89q174 0 226 180h-149v60h216v-60z" />
    <glyph glyph-name="H" unicode="H" horiz-adv-x="470" 
d="M408 2h-64v346h-280v-348h-64v748h64v-336h280v338h64v-748z" />
    <glyph glyph-name="I" unicode="I" horiz-adv-x="127" 
d="M64 0h-64v750h64v-750z" />
    <glyph glyph-name="J" unicode="J" horiz-adv-x="422" 
d="M361 190q0 -190 -181 -190q-178 0 -180 190h64q0 -127 118 -127q62 0 93 53q18 31 21 70v0l1 564h64v-560z" />
    <glyph glyph-name="K" unicode="K" horiz-adv-x="455" 
d="M425 0h-81l-280 336v-336h-64v747h64v-304l256 307h81l-299 -360z" />
    <glyph glyph-name="L" unicode="L" horiz-adv-x="414" 
d="M411 0h-411v750h64v-686h347v-64z" />
    <glyph glyph-name="M" unicode="M" horiz-adv-x="622" 
d="M560 3h-64v636l-218 -381l-214 377v-635h-64v747h64l215 -364l217 367l64 -3v-744z" />
    <glyph glyph-name="N" unicode="N" horiz-adv-x="499" 
d="M437 3h-64l-309 611v-614h-64v747h64l309 -600v603h64v-747z" />
    <glyph glyph-name="O" unicode="O" horiz-adv-x="691" 
d="M642 375q0 -155 -94 -265t-227 -110t-227 110t-94 265t94 265t227 110t227 -110t94 -265zM582 377q0 125 -76 214t-183 89q-108 0 -184 -89t-76 -214q0 -126 76 -215t184 -89q107 0 183 89t76 215z" />
    <glyph glyph-name="P" unicode="P" horiz-adv-x="417" 
d="M382 534q0 -131 -85 -180q-71 -41 -233 -41v-313h-64v750h129q112 0 181 -55q72 -58 72 -161zM319 533q0 93 -86 132q-56 25 -138 25q-14 0 -31 -1v-310q133 0 179 19q76 31 76 135z" />
    <glyph glyph-name="Q" unicode="Q" horiz-adv-x="695" 
d="M641 375q0 -180 -121 -293l62 -82h-81l-32 43q-68 -42 -148 -42q-133 0 -227 109.5t-94 264.5t94 265t227 110t226.5 -110t93.5 -265zM582 377q0 125 -76 214t-184 89q-107 0 -183 -89t-76 -214t76 -214t183 -89q56 0 105 26l-65 87l79 1l39 -52q102 90 102 241z" />
    <glyph glyph-name="R" unicode="R" horiz-adv-x="464" 
d="M420 1h-78l-188 313q-16 -1 -51 -1h-39v-313h-64v750h129q112 0 181 -55q72 -58 72 -161q0 -167 -158 -210zM319 533q0 92 -73 128q-58 29 -182 29v-311q134 0 194.5 36t60.5 118z" />
    <glyph glyph-name="S" unicode="S" horiz-adv-x="499" 
d="M459 221q0 -139 -86 -189q-54 -32 -163 -32q-94 0 -151.5 40t-57.5 102l75 2q0 -39 46 -63q36 -19 67 -19q106 0 151 30q54 37 54 134q0 34 -62 77q-57 39 -104 47q-80 13 -135 47q-93 56 -93 159q0 121 72 163q53 31 180 31q70 0 123 -33q63 -39 64 -110l-67 3
q-12 76 -134 80q-91 3 -127 -19q-48 -29 -48 -117q0 -107 175 -143q64 -11 123 -46q98 -57 98 -144z" />
    <glyph glyph-name="T" unicode="T" horiz-adv-x="487" 
d="M455 686h-196v-686h-64v686h-195v64h455v-64z" />
    <glyph glyph-name="U" unicode="U" horiz-adv-x="584" 
d="M524 750v-494q0 -256 -273 -256q-248 0 -251 249q-1 108 0 280q1 228 1 220h64v-487q0 -204 187 -203q101 0 154 53q49 50 49 139v499h69z" />
    <glyph glyph-name="V" unicode="V" horiz-adv-x="554" 
d="M513 750l-227 -750h-59l-227 749l66 -1l191 -647l193 649h63z" />
    <glyph glyph-name="W" unicode="W" horiz-adv-x="731" 
d="M684 750l-155 -750h-58l-125 601l-125 -601h-65l-156 748l62 1l126 -618l127 618h62l122 -603l123 604h62z" />
    <glyph glyph-name="X" unicode="X" horiz-adv-x="523" 
d="M482 1h-73l-168 309l-168 -310h-73l204 378l-201 371h73l165 -304l165 305h73l-201 -372z" />
    <glyph glyph-name="Y" unicode="Y" horiz-adv-x="471" 
d="M436 750l-186 -383v-367h-64v366l-186 384h71l147 -303l146 303h72z" />
    <glyph glyph-name="Z" unicode="Z" horiz-adv-x="531" 
d="M503 0h-503v64h1l422 622h-423v64h502v-64l-426 -622h427v-64z" />
    <glyph glyph-name="bracketleft" unicode="[" horiz-adv-x="211" 
d="M169 -103h-169v914h169v-61h-109v-792h109v-61z" />
    <glyph glyph-name="backslash" unicode="\" horiz-adv-x="281" 
d="M232 0h-64l-168 750h63z" />
    <glyph glyph-name="bracketright" unicode="]" horiz-adv-x="232" 
d="M170 -103h-170v61h109v792h-109v61h170v-914z" />
    <glyph glyph-name="asciicircum" unicode="^" horiz-adv-x="423" 
d="M369 376l-63 -27l-121 289l-122 -288l-63 26l157 374h55z" />
    <glyph glyph-name="underscore" unicode="_" horiz-adv-x="580" 
d="M507 -54h-507v45h507v-45z" />
    <glyph glyph-name="grave" unicode="`" horiz-adv-x="276" 
d="M220 517h-77l-143 233h129z" />
    <glyph glyph-name="a" unicode="a" horiz-adv-x="562" 
d="M501 4h-62v83q-76 -87 -189 -87q-103 0 -176.5 73.5t-73.5 176.5q0 104 73.5 177t176.5 73q113 0 189 -87v90h62v-499zM438 251q0 77 -55 132t-132 55t-131.5 -55t-54.5 -132t54.5 -131.5t131.5 -54.5t132 54.5t55 131.5z" />
    <glyph glyph-name="b" unicode="b" horiz-adv-x="548" 
d="M508 251q0 -104 -73.5 -177.5t-177.5 -73.5q-119 0 -195 92v-91h-62v749h62v-340q76 92 195 92q104 0 177.5 -73.5t73.5 -177.5zM445 252q0 78 -54.5 133t-132.5 55q-77 0 -132 -55t-55 -133q0 -77 55 -132t132 -55q78 0 132.5 55t54.5 132z" />
    <glyph glyph-name="c" unicode="c" horiz-adv-x="454" 
d="M451 100q-75 -100 -201 -100q-103 0 -176.5 73.5t-73.5 176.5q0 104 73.5 177.5t176.5 73.5q121 0 197 -96h-96q-45 31 -102 31q-77 0 -131.5 -55t-54.5 -132t54.5 -131.5t131.5 -54.5q52 0 102 37h100z" />
    <glyph glyph-name="d" unicode="d" horiz-adv-x="567" 
d="M504 4h-63v83q-76 -87 -190 -87q-104 0 -177.5 73.5t-73.5 177.5t73.5 177.5t177.5 73.5q116 0 190 -87v335h63v-746zM440 252q0 78 -55 133t-133 55q-77 0 -132 -55t-55 -133q0 -77 55 -132t132 -55q78 0 133 55t55 132z" />
    <glyph glyph-name="e" unicode="e" horiz-adv-x="536" 
d="M498 231h-434q7 -71 59.5 -119.5t125.5 -48.5q88 0 143 66h77q-32 -59 -90.5 -94t-128.5 -35q-103 0 -176.5 73.5t-73.5 176.5q0 104 73 177.5t177 73.5q91 0 160.5 -58t86.5 -146zM430 297q-16 61 -66 100t-115 39q-64 0 -114 -39t-66 -100h361z" />
    <glyph glyph-name="f" unicode="f" horiz-adv-x="289" 
d="M248 438h-123v-438h-63v438h-62v64h62l-1 131q0 65 40 95q29 22 72 22q31 0 31 -6v-56q0 -2 -2 -2q-1 0 -12.5 3t-19.5 3q-45 0 -45 -88v-102h123v-64z" />
    <glyph glyph-name="g" unicode="g" horiz-adv-x="561" 
d="M502 -59q0 -128 -111 -170q-48 -18 -140 -18q-20 1 -43 7q-54 14 -111 49q6 6 47 41q50 -34 137 -37q98 0 134 59q24 39 24 123q0 1 1 1v1v88q-75 -85 -189 -85q-104 0 -177.5 74t-73.5 178t74 177.5t177 73.5q114 0 189 -85v2h62v-479zM438 251q0 77 -55 132t-133 55
q-77 0 -132 -55t-55 -132q0 -78 55 -133t132 -55q78 0 133 55t55 133z" />
    <glyph glyph-name="h" unicode="h" horiz-adv-x="427" 
d="M367 0l-63 1v205q0 105 -19 157q-30 80 -112 80q-110 0 -110 -162v-280h-63v749h63v-280q40 32 110 32q126 0 168 -96q26 -59 26 -200v-206z" />
    <glyph glyph-name="i" unicode="i" horiz-adv-x="146" 
d="M102 705q0 -19 -13 -32t-32 -13t-32 13t-13 32t13 32t32 13t32 -13t13 -32zM89 0h-64v497h64v-497z" />
    <glyph glyph-name="j" unicode="j" horiz-adv-x="185" 
d="M130 706q0 -18 -13 -31.5t-32 -13.5t-32 13.5t-13 31.5q0 19 13 32t32 13t32 -13t13 -32zM118 -138q0 -64 -32 -94q-24 -22 -59 -22q-27 0 -27 7v56q0 12 14 13q19 1 26 9q14 15 14 60v605h64v-634z" />
    <glyph glyph-name="k" unicode="k" horiz-adv-x="328" 
d="M386 1h-81l-206 235v-236h-64l1 750h64l-1 -409l134 161h82l-177 -214z" />
    <glyph glyph-name="l" unicode="l" horiz-adv-x="147" 
d="M105 7q0 -7 -24 -7q-31 0 -52 22q-29 30 -29 94v86q1 571 1 548h63v-605q0 -26 20.5 -56t20.5 -26v-56z" />
    <glyph glyph-name="m" unicode="m" horiz-adv-x="547" 
d="M509 0h-64v213q0 119 -6 151q-14 73 -69 73q-80 0 -79 -210q0 -3 1 -227h-64v215q0 119 -6 151q-14 73 -69 73q-45 0 -69 -72q-20 -61 -21 -150v0v-217h-63v500h63v-29q28 26 90 26q79 0 110 -64q32 63 107 63q92 0 120 -89q17 -52 18 -192v0z" />
    <glyph glyph-name="n" unicode="n" horiz-adv-x="463" 
d="M392 0h-64v218q0 103 -19 150q-29 73 -110 73q-65 0 -103 -50q-34 -45 -34 -112v-279h-62v500h62v-32q41 31 137 31q126 0 167 -92q26 -56 26 -194v-213z" />
    <glyph glyph-name="o" unicode="o" horiz-adv-x="553" 
d="M501 251q0 -104 -73 -177.5t-177 -73.5t-177.5 73.5t-73.5 177.5t73.5 177t177.5 73t177 -73t73 -177zM439 252q0 77 -55 132t-132 55t-132 -55t-55 -132t55 -132t132 -55t132 55t55 132z" />
    <glyph glyph-name="p" unicode="p" horiz-adv-x="555" 
d="M504 251q0 -104 -73.5 -177.5t-177.5 -73.5q-116 0 -190 87v-335h-63v750h62l1 -87q76 87 190 87q104 0 177.5 -73.5t73.5 -177.5zM439 250q0 77 -55 132t-132 55q-78 0 -133 -55t-55 -132q0 -78 55 -133t133 -55q77 0 132 55t55 133z" />
    <glyph glyph-name="q" unicode="q" horiz-adv-x="563" 
d="M515 -245h-62v331q-77 -85 -189 -85q-104 0 -178 74t-74 178t74 178t178 74q112 0 189 -85v1h62v-666zM451 252q0 77 -55 132.5t-133 55.5t-133 -55.5t-55 -132.5q0 -78 55 -133t133 -55t133 55t55 133z" />
    <glyph glyph-name="r" unicode="r" horiz-adv-x="326" 
d="M295 435q-86 -4 -152 -45q-80 -50 -80 -131v-259h-63v499h63v-92q85 88 232 93v-65z" />
    <glyph glyph-name="s" unicode="s" horiz-adv-x="353" 
d="M305 147q0 -92 -57 -126q-36 -21 -108 -21q-53 0 -95.5 29t-44.5 65l62 1q0 -12 20.5 -24t44.5 -12q3 0 14 -1h19q86 0 86 90q0 22 -25 46.5t-51.5 31t-50.5 13.5q-49 15 -78 41q-41 36 -41 90q0 80 48 108q35 21 120 21q45 0 87 -28q47 -33 48 -80l-58 1q-8 48 -87 48
q-97 0 -97 -74q0 -45 47 -69q25 -7 50 -15q29 -3 78 -33q69 -43 69 -102z" />
    <glyph glyph-name="t" unicode="t" horiz-adv-x="232" 
d="M249 485h-114v-340q0 -20 27 -52.5t27 -29.5v-56q0 -7 -27 -7q-35 0 -59 22q-32 30 -32 94v0v83q1 259 1 286h-72v63h72v202h63v-202h114v-63z" />
    <glyph glyph-name="u" unicode="u" horiz-adv-x="453" 
d="M383 501l-1 -501h-61v35q-45 -34 -130 -34q-117 0 -159 73q-30 53 -32 182q-1 104 0 152q1 67 1 92h64v-231q0 -107 17 -147q27 -62 110 -62q87 0 110 55q13 30 13 139v247h68z" />
    <glyph glyph-name="v" unicode="v" horiz-adv-x="409" 
d="M364 500l-152 -500h-60l-152 499h66l116 -397l118 398h64z" />
    <glyph glyph-name="w" unicode="w" horiz-adv-x="622" 
d="M583 501l-106 -500l-58 -1l-127 249l-123 -249h-65l-104 499h62l86 -421l113 233h61l113 -227l86 417h62z" />
    <glyph glyph-name="x" unicode="x" horiz-adv-x="407" 
d="M360 1h-73l-108 197l-106 -198h-73l143 265l-126 232l73 1l89 -166l89 166h73l-125 -233z" />
    <glyph glyph-name="y" unicode="y" horiz-adv-x="477" 
d="M434 499l-282 -750h-60l96 258l-188 492l66 -1l153 -415l150 415z" />
    <glyph glyph-name="z" unicode="z" horiz-adv-x="388" 
d="M335 0h-333v64h1l251 372h-254v64h334v-64l-257 -372h258v-64z" />
    <glyph glyph-name="braceleft" unicode="{" horiz-adv-x="295" 
d="M247 -137q-118 56 -127 246q-2 38 -15 73q-30 84 -105 142q116 56 125 288q3 37 15 69q31 77 107 118v-80q-49 -36 -53 -105q-2 -78 -15 -135q-29 -139 -102 -155q106 -74 114 -216q1 -33 7 -60q14 -67 49 -97v-88z" />
    <glyph glyph-name="bar" unicode="|" horiz-adv-x="124" 
d="M64 0h-64v555h64v-555z" />
    <glyph glyph-name="braceright" unicode="}" horiz-adv-x="292" 
d="M247 324q-111 -86 -120 -215q-3 -55 -16 -100q-32 -109 -111 -146q0 13 1 48v40q51 45 55 157q2 41 14 78q29 88 100 138q-108 24 -116 290q-1 20 -7 38q-13 43 -47 67v80q113 -60 122 -187q3 -68 16 -121q31 -129 109 -167z" />
    <glyph glyph-name="asciitilde" unicode="~" horiz-adv-x="564" 
d="M508 438q0 -256 -133 -256q-9 0 -17.5 1l-8.5 1q-52 0 -80 50q-21 45 -42 91q-28 50 -77 50q-40 0 -61 -49q-14 -34 -18 -90q-4 -49 -3 -49q-18 0 -36 -1.5t-29 -1.5q-3 7 -3 32q0 77 27 135q38 85 123 85q69 0 108 -49q14 -18 47 -92q22 -49 49 -49q88 0 88 192h66z" />
    <glyph glyph-name="Adieresis" unicode="&#xc4;" horiz-adv-x="562" 
d="M386 855q0 -20 -14.5 -34.5t-34.5 -14.5t-34 14.5t-14 34.5t14 34.5t34 14.5t34.5 -14.5t14.5 -34.5zM223 855q0 -20 -14.5 -34.5t-34.5 -14.5t-34.5 14.5t-14.5 34.5t14.5 34.5t34.5 14.5t34.5 -14.5t14.5 -34.5zM512 3l-65 -2l-91 311h-200l-93 -312l-63 1l226 749h60z
M337 374l-81 275l-82 -275h163z" />
    <glyph glyph-name="Aring" unicode="&#xc5;" horiz-adv-x="562" 
d="M356 893q0 -39 -27.5 -66t-66.5 -27q-38 0 -65.5 27t-27.5 66q0 38 27.5 65.5t65.5 27.5q39 0 66.5 -27.5t27.5 -65.5zM512 3l-65 -2l-91 311h-200l-93 -312l-63 1l226 749h60zM316 893q0 22 -16 37.5t-38 15.5t-37.5 -15.5t-15.5 -37.5t15.5 -37.5t37.5 -15.5t38 15.5
t16 37.5zM337 374l-81 275l-82 -275h163z" />
    <glyph glyph-name="Ccedilla" unicode="&#xc7;" horiz-adv-x="638" 
d="M582 592h-77q-77 88 -183 88q-108 0 -184 -89t-76 -215t76 -215t184 -89q99 0 174 78h82q-90 -142 -241 -151l-18 -50q90 -42 90 -85q0 -64 -54 -94q-39 -22 -97 -22q-44 0 -44 7v56q0 7 28 7q41 1 57 5q33 8 42 35q5 15 -43 39t-45 31l22 74q-118 20 -197 125.5
t-79 246.5q0 156 94 266t227 110q79 0 150 -43q68 -42 112 -115z" />
    <glyph glyph-name="Eacute" unicode="&#xc9;" horiz-adv-x="413" 
d="M298 935l-127 -140h-44l80 140h91zM401 0h-401v750h400v-64h-336v-277h249v-64h-249v-281h337v-64z" />
    <glyph glyph-name="Ntilde" unicode="&#xd1;" horiz-adv-x="499" 
d="M358 901h52q0 -50 -31.5 -83.5t-70.5 -33.5q-52 0 -87.5 33.5t-64.5 33.5q-32 0 -47 -13q-10 -9 -12 -23l-2 -14q-14 0 -28 -1t-23 -1q-3 3 -3 15q0 31 21 53q29 32 94 32q46 0 87 -32.5t65 -32.5t36 18q7 11 10 32q3 17 4 17zM437 750v-747h-64l-309 611v-614h-64v747
h64l309 -600v603h64z" />
    <glyph glyph-name="Odieresis" unicode="&#xd6;" horiz-adv-x="691" 
d="M447 840q0 -20 -14.5 -34.5t-34.5 -14.5t-34.5 14.5t-14.5 34.5t14.5 34.5t34.5 14.5t34.5 -14.5t14.5 -34.5zM283 840q0 -20 -14 -34.5t-34 -14.5t-34.5 14.5t-14.5 34.5t14.5 34.5t34.5 14.5t34 -14.5t14 -34.5zM642 375q0 -155 -94 -265t-227 -110t-227 110t-94 265
t94 265t227 110t227 -110t94 -265zM582 377q0 125 -76 214t-183 89q-108 0 -184 -89t-76 -214q0 -126 76 -215t184 -89q107 0 183 89t76 215z" />
    <glyph glyph-name="Udieresis" unicode="&#xdc;" horiz-adv-x="584" 
d="M383 863q0 -20 -14 -34.5t-34 -14.5t-34.5 14.5t-14.5 34.5t14.5 34.5t34.5 14.5t34 -14.5t14 -34.5zM220 863q0 -20 -14.5 -34.5t-34.5 -14.5t-34.5 14.5t-14.5 34.5t14.5 34.5t34.5 14.5t34.5 -14.5t14.5 -34.5zM524 750v-494q0 -256 -273 -256q-248 0 -251 249
q-1 108 0 280q1 228 1 220h64v-487q0 -204 187 -203q101 0 154 53q49 50 49 139v499h69z" />
    <glyph glyph-name="aacute" unicode="&#xe1;" horiz-adv-x="563" 
d="M390 698l-127 -140h-44l80 140h91zM501 503v-499h-62v83q-76 -87 -189 -87q-103 0 -176.5 73.5t-73.5 176.5q0 104 73.5 177t176.5 73q113 0 189 -87v90h62zM438 251q0 77 -55 132t-132 55t-131.5 -55t-54.5 -132t54.5 -131.5t131.5 -54.5t132 54.5t55 131.5z" />
    <glyph glyph-name="agrave" unicode="&#xe0;" horiz-adv-x="562" 
d="M300 558h-44l-127 140h91zM501 503v-499h-62v83q-76 -87 -189 -87q-103 0 -176.5 73.5t-73.5 176.5q0 104 73.5 177t176.5 73q113 0 189 -87v90h62zM438 251q0 77 -55 132t-132 55t-131.5 -55t-54.5 -132t54.5 -131.5t131.5 -54.5t132 54.5t55 131.5z" />
    <glyph glyph-name="acircumflex" unicode="&#xe2;" horiz-adv-x="563" 
d="M341 572l-87 122l-82 -125l-65 1l118 173h61l119 -172zM501 503v-499h-62v83q-76 -87 -189 -87q-103 0 -176.5 73.5t-73.5 176.5q0 104 73.5 177t176.5 73q113 0 189 -87v90h62zM438 251q0 77 -55 132t-132 55t-131.5 -55t-54.5 -132t54.5 -131.5t131.5 -54.5t132 54.5
t55 131.5z" />
    <glyph glyph-name="adieresis" unicode="&#xe4;" horiz-adv-x="563" 
d="M381 604q0 -20 -14.5 -34.5t-34.5 -14.5t-34 14.5t-14 34.5t14 34.5t34 14.5t34.5 -14.5t14.5 -34.5zM218 604q0 -20 -14.5 -34.5t-34.5 -14.5t-34.5 14.5t-14.5 34.5t14.5 34.5t34.5 14.5t34.5 -14.5t14.5 -34.5zM501 503v-499h-62v83q-76 -87 -189 -87
q-103 0 -176.5 73.5t-73.5 176.5q0 104 73.5 177t176.5 73q113 0 189 -87v90h62zM438 251q0 77 -55 132t-132 55t-131.5 -55t-54.5 -132t54.5 -131.5t131.5 -54.5t132 54.5t55 131.5z" />
    <glyph glyph-name="atilde" unicode="&#xe3;" horiz-adv-x="563" 
d="M393 703h52q0 -50 -31.5 -83.5t-70.5 -33.5q-52 0 -87.5 33.5t-64.5 33.5q-32 0 -47 -13q-10 -9 -12 -23l-2 -14q-14 0 -28 -1t-23 -1q-3 3 -3 15q0 31 21 53q29 32 94 32q46 0 87 -32.5t65 -32.5t36 18q7 11 10 32q3 17 4 17zM501 503v-499h-62v83q-76 -87 -189 -87
q-103 0 -176.5 73.5t-73.5 176.5q0 104 73.5 177t176.5 73q113 0 189 -87v90h62zM438 251q0 77 -55 132t-132 55t-131.5 -55t-54.5 -132t54.5 -131.5t131.5 -54.5t132 54.5t55 131.5z" />
    <glyph glyph-name="aring" unicode="&#xe5;" horiz-adv-x="563" 
d="M348 647q0 -38 -27.5 -65.5t-65.5 -27.5q-39 0 -66 27.5t-27 65.5q0 39 27 66t66 27q38 0 65.5 -27t27.5 -66zM501 503v-499h-62v83q-76 -87 -189 -87q-103 0 -176.5 73.5t-73.5 176.5q0 104 73.5 177t176.5 73q113 0 189 -87v90h62zM308 647q0 22 -15.5 37.5t-37.5 15.5
t-37.5 -15.5t-15.5 -37.5t15.5 -37.5t37.5 -15.5t37.5 15.5t15.5 37.5zM438 251q0 77 -55 132t-132 55t-131.5 -55t-54.5 -132t54.5 -131.5t131.5 -54.5t132 54.5t55 131.5z" />
    <glyph glyph-name="ccedilla" unicode="&#xe7;" horiz-adv-x="477" 
d="M454 94q-67 -89 -175 -99l-19 -51q93 -45 93 -80q0 -64 -53 -94q-40 -22 -97 -22q-46 0 -46 7v56q0 8 28 8q40 0 57 4q33 8 42 35q5 15 -43.5 36.5t-45.5 28.5l21 73q-92 13 -154 83.5t-62 165.5q0 105 74 179t178 74q122 0 198 -96h-96q-47 31 -103 31q-78 0 -133 -55.5
t-55 -133.5t55 -133t133 -55q63 0 114 38h89z" />
    <glyph glyph-name="eacute" unicode="&#xe9;" horiz-adv-x="536" 
d="M356 682l-127 -140h-44l80 140h91zM498 231h-434q7 -71 59.5 -119.5t125.5 -48.5q88 0 143 66h77q-32 -59 -90.5 -94t-128.5 -35q-103 0 -176.5 73.5t-73.5 176.5q0 104 73 177.5t177 73.5q91 0 160.5 -58t86.5 -146zM69 297h361q-16 61 -66 100t-115 39q-64 0 -114 -39
t-66 -100z" />
    <glyph glyph-name="egrave" unicode="&#xe8;" horiz-adv-x="535" 
d="M289 558h-44l-127 140h91zM498 231h-434q7 -71 59.5 -119.5t125.5 -48.5q88 0 143 66h77q-32 -59 -90.5 -94t-128.5 -35q-103 0 -176.5 73.5t-73.5 176.5q0 104 73 177.5t177 73.5q91 0 160.5 -58t86.5 -146zM69 297h361q-16 61 -66 100t-115 39q-64 0 -114 -39t-66 -100
z" />
    <glyph glyph-name="ecircumflex" unicode="&#xea;" horiz-adv-x="536" 
d="M341 551l-87 122l-82 -125l-65 1l118 173h61l119 -172zM498 231h-434q7 -71 59.5 -119.5t125.5 -48.5q88 0 143 66h77q-32 -59 -90.5 -94t-128.5 -35q-103 0 -176.5 73.5t-73.5 176.5q0 104 73 177.5t177 73.5q91 0 160.5 -58t86.5 -146zM69 297h361q-16 61 -66 100
t-115 39q-64 0 -114 -39t-66 -100z" />
    <glyph glyph-name="edieresis" unicode="&#xeb;" horiz-adv-x="536" 
d="M378 601q0 -20 -14.5 -34.5t-34.5 -14.5t-34 14.5t-14 34.5t14 34.5t34 14.5t34.5 -14.5t14.5 -34.5zM215 601q0 -20 -14.5 -34.5t-34.5 -14.5t-34.5 14.5t-14.5 34.5t14.5 34.5t34.5 14.5t34.5 -14.5t14.5 -34.5zM498 231h-434q7 -71 59.5 -119.5t125.5 -48.5
q88 0 143 66h77q-32 -59 -90.5 -94t-128.5 -35q-103 0 -176.5 73.5t-73.5 176.5q0 104 73 177.5t177 73.5q91 0 160.5 -58t86.5 -146zM69 297h361q-16 61 -66 100t-115 39q-64 0 -114 -39t-66 -100z" />
    <glyph glyph-name="iacute" unicode="&#xed;" horiz-adv-x="165" 
d="M177 695l-127 -140h-44l80 140h91zM63 497v-497h-63v497h63z" />
    <glyph glyph-name="igrave" unicode="&#xec;" horiz-adv-x="232" 
d="M171 558h-44l-127 141h91zM171 498v-498h-63v498h63z" />
    <glyph glyph-name="icircumflex" unicode="&#xee;" horiz-adv-x="278" 
d="M234 568l-87 122l-81 -124h-66l118 174h61l119 -173zM180 497v-497h-63v497h63z" />
    <glyph glyph-name="idieresis" unicode="&#xef;" horiz-adv-x="243" 
d="M261 601q0 -20 -14.5 -34.5t-34.5 -14.5t-34.5 14.5t-14.5 34.5t14.5 34t34.5 14t34.5 -14t14.5 -34zM97 601q0 -20 -14 -34.5t-34 -14.5t-34.5 14.5t-14.5 34.5t14.5 34t34.5 14t34 -14t14 -34zM162 497v-497h-64v497h64z" />
    <glyph glyph-name="ntilde" unicode="&#xf1;" horiz-adv-x="422" 
d="M319 685h52q0 -50 -31.5 -84t-70.5 -34q-52 0 -87.5 34t-64.5 34q-32 0 -47 -13q-10 -9 -12 -23l-2 -14q-14 0 -28 -1t-23 -1q-3 3 -3 15q0 31 21 53q29 31 94 31q46 0 86.5 -33t65.5 -32q23 1 35 18q8 12 11 33q3 17 4 17zM366 0h-64v218q0 103 -19 150q-29 73 -110 73
q-111 0 -111 -162v-279h-62v500h62v-32q41 31 111 31q126 0 167 -92q26 -56 26 -194v-213z" />
    <glyph glyph-name="oacute" unicode="&#xf3;" horiz-adv-x="552" 
d="M397 687l-127 -140h-44l80 140h91zM501 251q0 -104 -73 -177.5t-177 -73.5t-177.5 73.5t-73.5 177.5t73.5 177t177.5 73t177 -73t73 -177zM439 252q0 77 -55 132t-132 55t-132 -55t-55 -132t55 -132t132 -55t132 55t55 132z" />
    <glyph glyph-name="ograve" unicode="&#xf2;" horiz-adv-x="553" 
d="M286 558h-44l-127 140h91zM501 251q0 -104 -73 -177.5t-177 -73.5t-177.5 73.5t-73.5 177.5t73.5 177t177.5 73t177 -73t73 -177zM439 252q0 77 -55 132t-132 55t-132 -55t-55 -132t55 -132t132 -55t132 55t55 132z" />
    <glyph glyph-name="ocircumflex" unicode="&#xf4;" horiz-adv-x="553" 
d="M341 564l-87 122l-82 -125l-65 1l118 173h61l119 -172zM501 251q0 -104 -73 -177.5t-177 -73.5t-177.5 73.5t-73.5 177.5t73.5 177t177.5 73t177 -73t73 -177zM439 252q0 77 -55 132t-132 55t-132 -55t-55 -132t55 -132t132 -55t132 55t55 132z" />
    <glyph glyph-name="odieresis" unicode="&#xf6;" horiz-adv-x="553" 
d="M378 606q0 -20 -14.5 -34.5t-34.5 -14.5t-34 14.5t-14 34.5t14 34.5t34 14.5t34.5 -14.5t14.5 -34.5zM215 606q0 -20 -14.5 -34.5t-34.5 -14.5t-34.5 14.5t-14.5 34.5t14.5 34.5t34.5 14.5t34.5 -14.5t14.5 -34.5zM501 251q0 -104 -73 -177.5t-177 -73.5t-177.5 73.5
t-73.5 177.5t73.5 177t177.5 73t177 -73t73 -177zM439 252q0 77 -55 132t-132 55t-132 -55t-55 -132t55 -132t132 -55t132 55t55 132z" />
    <glyph glyph-name="otilde" unicode="&#xf5;" horiz-adv-x="552" 
d="M380 695h52q0 -50 -31.5 -83.5t-70.5 -33.5q-52 0 -87.5 33.5t-64.5 33.5q-32 0 -47 -13q-10 -9 -12 -23l-2 -14q-14 0 -28 -1t-23 -1q-3 3 -3 15q0 31 21 53q29 32 94 32q46 0 86.5 -32.5t65.5 -32.5q24 0 36 18q7 11 10 32q3 17 4 17zM501 251q0 -104 -73 -177.5
t-177 -73.5t-177.5 73.5t-73.5 177.5t73.5 177t177.5 73t177 -73t73 -177zM439 252q0 77 -55 132t-132 55t-132 -55t-55 -132t55 -132t132 -55t132 55t55 132z" />
    <glyph glyph-name="uacute" unicode="&#xfa;" horiz-adv-x="444" 
d="M318 682l-127 -140h-44l80 140h91zM382 0h-61v35q-45 -34 -130 -34q-117 0 -159 73q-30 53 -32 182q-1 104 0 152q1 67 1 92h64v-231q0 -107 17 -147q27 -62 110 -62q87 0 110 55q13 30 13 139v247h68z" />
    <glyph glyph-name="ugrave" unicode="&#xf9;" horiz-adv-x="445" 
d="M233 558h-44l-127 140h91zM382 0h-61v35q-45 -34 -130 -34q-117 0 -159 73q-30 53 -32 182q-1 104 0 152q1 67 1 92h64v-231q0 -107 17 -147q27 -62 110 -62q87 0 110 55q13 30 13 139v247h68z" />
    <glyph glyph-name="ucircumflex" unicode="&#xfb;" horiz-adv-x="446" 
d="M280 567l-87 122l-82 -125l-65 1l118 173h61l119 -172zM382 0h-61v35q-45 -34 -130 -34q-117 0 -159 73q-30 53 -32 182q-1 104 0 152q1 67 1 92h64v-231q0 -107 17 -147q27 -62 110 -62q87 0 110 55q13 30 13 139v247h68z" />
    <glyph glyph-name="udieresis" unicode="&#xfc;" horiz-adv-x="445" 
d="M321 614q0 -20 -14.5 -34t-34.5 -14t-34.5 14t-14.5 34t14.5 34.5t34.5 14.5t34.5 -14.5t14.5 -34.5zM157 614q0 -20 -14.5 -34t-34.5 -14t-34 14t-14 34t14 34.5t34 14.5t34.5 -14.5t14.5 -34.5zM382 0h-61v35q-45 -34 -130 -34q-117 0 -159 73q-30 53 -32 182
q-1 104 0 152q1 67 1 92h64v-231q0 -107 17 -147q27 -62 110 -62q87 0 110 55q13 30 13 139v247h68z" />
    <glyph glyph-name="dagger" unicode="&#x2020;" horiz-adv-x="436" 
d="M400 502h-168v-628h-64v628h-168v64h168v184h64v-184h168v-64z" />
    <glyph glyph-name="degree" unicode="&#xb0;" horiz-adv-x="309" 
d="M251 624q0 -52 -36.5 -88.5t-88.5 -36.5t-89 36.5t-37 88.5q0 53 37 89.5t89 36.5t88.5 -37t36.5 -89zM204 623q0 32 -22.5 54.5t-54.5 22.5t-54.5 -22.5t-22.5 -54.5t22.5 -54.5t54.5 -22.5t54.5 22.5t22.5 54.5z" />
    <glyph glyph-name="cent" unicode="&#xa2;" horiz-adv-x="489" 
d="M453 102q-75 -100 -201 -100q-27 0 -47 4l-16 -59l-68 -1l21 81q-64 30 -103 91.5t-39 134.5q0 104 74 178t178 74q13 0 19 -1l17 64h67l-20 -77q69 -25 114 -82h-96q-21 13 -35 18l-96 -360q9 -2 29 -2q54 0 104 37h98zM253 439q-78 0 -134 -54.5t-56 -132.5
q0 -108 96 -164q88 326 94 351z" />
    <glyph glyph-name="sterling" unicode="&#xa3;" horiz-adv-x="536" 
d="M516 53q-32 -49 -172 -49q-55 0 -75 7q-24 8 -54 8q-29 0 -79 -9.5t-66 -9.5t-25 5q-3 2 13 32q58 111 58 183q0 21 -8 54q-10 43 -12 53h-96v64h88q-5 41 -5 104q0 117 50 159q44 36 158 36q174 -8 174 -119q0 -12 -2 -25h-63q2 9 2 17q0 62 -125 67q-80 0 -109 -40
q-22 -29 -22 -97q0 -49 11 -102h232v-64h-219q20 -81 20 -110q0 -58 -27 -127q52 -5 111 -20q27 -7 68 -7q106 0 143 38z" />
    <glyph glyph-name="section" unicode="&#xa7;" horiz-adv-x="370" 
d="M314 393q0 -101 -89 -135q82 -52 82 -110q0 -93 -57 -127q-36 -21 -109 -21q-51 0 -83 28t-34 67l63 -1q0 -13 11 -24q14 -14 36 -14q54 0 68 6q46 17 46 87q0 23 -22.5 47.5t-60.5 39.5q-29 6 -57 12q-47 11 -72 35q-36 32 -36 92q0 106 89 124q-82 38 -82 121
q0 81 48 109q35 21 121 21q44 0 79 -28q39 -31 40 -79l-57 -1q-8 49 -72 49q-97 0 -97 -74q0 -69 102 -89l38 -14q42 -19 68 -44q37 -35 37 -77zM256 374q0 72 -97 72t-97 -74q0 -67 73 -67q3 0 15 -1h19q87 0 87 70z" />
    <glyph glyph-name="bullet" unicode="&#x2022;" horiz-adv-x="323" 
d="M265 378q0 -55 -38.5 -94t-94.5 -39q-55 0 -93.5 39t-38.5 94t38.5 93.5t93.5 38.5t94 -38.5t39 -93.5z" />
    <glyph glyph-name="paragraph" unicode="&#xb6;" horiz-adv-x="399" 
d="M383 686h-56v-820h-64v820h-72v-819h-64v536q-53 2 -90 52.5t-37 121.5t36.5 122t89.5 51h257v-64zM123 476l-1 204q-31 -2 -52.5 -31.5t-21.5 -70.5t22 -71t53 -31z" />
    <glyph glyph-name="germandbls" unicode="&#xdf;" horiz-adv-x="496" 
d="M445 222q0 -107 -49 -165q-47 -54 -127 -54q-53 0 -67 -1t-62 -1l1 62q91 2 107 2q86 0 117 61q15 30 17 94q1 36 -43 79q-51 49 -117 49q-42 0 -41 0q1 -1 0 -1l1 62q7 0 2 0t3 0h33q35 12 60 31q60 44 60 113q0 58 -10 79q-25 55 -113 55q-85 0 -121 -171
q-26 -121 -28 -331v-217l-63 -1q-5 137 -5 205q0 578 211 578q192 0 192 -195q0 -113 -80 -168q122 -64 122 -165z" />
    <glyph glyph-name="registered" unicode="&#xae;" horiz-adv-x="800" 
d="M750 375q0 -155 -110 -265t-265 -110t-265 110t-110 265t110 265t265 110t265 -110t110 -265zM690 378q0 131 -92.5 224t-223.5 93t-223.5 -93t-92.5 -224t92.5 -223.5t223.5 -92.5q102 0 180 56q61 44 98.5 113.5t37.5 146.5zM573 475q0 -69 -32 -103q-21 -23 -83 -48
l96 -206h-70l-89 187q-24 -4 -57 -4h-43v-197h-65v542h131q86 0 145 -42q67 -47 67 -129zM515 474q0 54 -30 76q-47 34 -190 34v-217q140 0 186 29q34 21 34 78z" />
    <glyph glyph-name="copyright" unicode="&#xa9;" horiz-adv-x="800" 
d="M750 375q0 -155 -110 -265t-265 -110t-265 110t-110 265t110 265t265 110t265 -110t110 -265zM690 378q0 131 -92.5 224t-223.5 93t-223.5 -93t-92.5 -224t92.5 -223.5t223.5 -92.5t223.5 92.5t92.5 223.5zM575 223q-76 -101 -202 -101q-104 0 -178 74t-74 179
q0 104 74 178t178 74q122 0 198 -96h-96q-49 31 -103 31q-78 0 -133 -55.5t-55 -132.5q0 -78 55 -133.5t133 -55.5q62 0 113 38h90z" />
    <glyph glyph-name="trademark" unicode="&#x2122;" horiz-adv-x="430" 
d="M347 502v211l-72 -127l-71 126v-211h-21v248h21l71 -121l72 122h21l1 -248h-22zM171 728h-74v-227h-21v227h-76v21h171v-21z" />
    <glyph glyph-name="acute" unicode="&#xb4;" horiz-adv-x="223" 
d="M171 670l-127 -140h-44l80 140h91z" />
    <glyph glyph-name="dieresis" unicode="&#xa8;" horiz-adv-x="323" 
d="M261 585q0 -20 -14.5 -34t-34.5 -14t-34.5 14t-14.5 34t14.5 34.5t34.5 14.5t34.5 -14.5t14.5 -34.5zM97 585q0 -20 -14 -34.5t-34 -14.5t-34.5 14.5t-14.5 34.5t14.5 34.5t34.5 14.5t34 -14.5t14 -34.5z" />
    <glyph glyph-name="AE" unicode="&#xc6;" horiz-adv-x="785" 
d="M773 2h-399v309h-182l-129 -311l-63 1l314 749h458v-64h-335v-276h248v-64h-248v-280h336v-64zM374 686h-27l-130 -314h156z" />
    <glyph glyph-name="Oslash" unicode="&#xd8;" horiz-adv-x="692" 
d="M641 376q0 -155 -94 -264.5t-227 -109.5q-95 0 -175 61l-43 -63l-80 1l75 107q-97 110 -97 268q0 155 94 264t227 109q99 0 178 -62l44 63h81l-76 -110q93 -109 93 -264zM582 378q0 119 -72 209l-325 -466q63 -46 137 -46q107 0 183.5 89t76.5 214zM462 633
q-64 48 -140 48q-107 0 -183 -89t-76 -214q0 -124 74 -212z" />
    <glyph glyph-name="plusminus" unicode="&#xb1;" horiz-adv-x="402" 
d="M370 282h-156v-123h-61v123h-153v61h153v125h61v-125h156v-61zM372 0h-370v61h370v-61z" />
    <glyph glyph-name="yen" unicode="&#xa5;" horiz-adv-x="477" 
d="M436 749l-180 -372h149v-66h-155v-65h156v-66h-156v-180h-64v180h-144v66h144v65h-146v66h141l-181 373h71l147 -304l147 303h71z" />
    <glyph glyph-name="mu" unicode="&#xb5;" horiz-adv-x="448" 
d="M387 501l-1 -500h-62l1 33q-45 -34 -130 -34q-89 0 -133 41v-212h-62l4 669l64 2v-231q0 -107 18 -148q27 -62 110 -62q87 0 110 55q13 31 13 140v247h68z" />
    <glyph glyph-name="mu" unicode="&#x3bc;" horiz-adv-x="448" 
d="M387 501l-1 -500h-62l1 33q-45 -34 -130 -34q-89 0 -133 41v-212h-62l4 669l64 2v-231q0 -107 18 -148q27 -62 110 -62q87 0 110 55q13 31 13 140v247h68z" />
    <glyph glyph-name="ordfeminine" unicode="&#xaa;" horiz-adv-x="315" 
d="M0 625q0 51 36 87.5t87 36.5q56 0 94 -43v44h30v-246h-30v41q-38 -43 -94 -43q-51 0 -87 36t-36 87zM254 486v-31h-247v31h247zM32 626q0 -38 27 -65t65 -27t65 27t27 65t-27 65t-65 27t-65 -27t-27 -65z" />
    <glyph glyph-name="ordmasculine" unicode="&#xba;" horiz-adv-x="315" 
d="M250 625q0 -52 -36.5 -88.5t-88.5 -36.5t-88.5 36.5t-36.5 88.5t36.5 88.5t88.5 36.5t88.5 -36.5t36.5 -88.5zM254 486v-31h-247v31h247zM207 625q0 34 -23.5 57.5t-57.5 23.5t-57.5 -23.5t-23.5 -57.5q0 -33 23.5 -56.5t57.5 -23.5t57.5 23.5t23.5 56.5z" />
    <glyph glyph-name="ae" unicode="&#xe6;" horiz-adv-x="982" 
d="M943 233h-437q8 -72 61.5 -120.5t125.5 -48.5q87 0 144 67h77q-33 -59 -90 -94q-60 -36 -130 -36q-114 0 -189 86v-83h-62v83q-77 -87 -191 -87q-104 0 -178 74t-74 178t74 178t178 74q114 0 191 -88v91h62v-88q75 86 189 86q91 0 161 -58.5t87 -146.5zM875 300
q-16 61 -66.5 100.5t-115.5 39.5q-64 0 -114.5 -39.5t-66.5 -100.5h363zM441 253q0 78 -55 133t-133 55t-133 -55t-55 -133t54.5 -133.5t132.5 -55.5t133.5 55.5t55.5 133.5z" />
    <glyph glyph-name="oslash" unicode="&#xf8;" horiz-adv-x="565" 
d="M503 251q0 -104 -73.5 -178t-177.5 -74q-55 0 -108 24l-32 -47h-79l55 84q-88 75 -88 191q0 104 74 178t178 74q56 0 110 -26l23 35h81l-48 -73q85 -75 85 -188zM440 252q0 81 -57 135l-203 -308q38 -15 73 -15q77 0 132 55t55 133zM327 424q-35 16 -74 16
q-78 0 -133 -55t-55 -133q0 -80 59 -137z" />
    <glyph glyph-name="questiondown" unicode="&#xbf;" horiz-adv-x="356" 
d="M251 435q0 -25 -18 -43.5t-44 -18.5t-44.5 18t-18.5 44t18.5 44.5t44.5 18.5t44 -18.5t18 -44.5zM379 -85q2 -15 2 -29q0 -86 -86 -121q-36 -14 -87 -17q-115 0 -158 36q-50 41 -50 158q0 118 160 170v199q44 0 63 1q0 -12 1 -248q-66 -15 -97 -31q-64 -33 -64 -89
q0 -68 22 -97q28 -40 108 -40q125 6 125 86q0 10 -2 22h63z" />
    <glyph glyph-name="exclamdown" unicode="&#xa1;" horiz-adv-x="181" 
d="M125 686q0 -26 -18.5 -44t-44.5 -18q-25 0 -43.5 18.5t-18.5 43.5q0 26 18 44.5t44 18.5t44.5 -18.5t18.5 -44.5zM123 -1h-122l31 562h64z" />
    <glyph glyph-name="logicalnot" unicode="&#xac;" horiz-adv-x="422" 
d="M362 314v-189h-61v129h-301v60h362z" />
    <glyph glyph-name="florin" unicode="&#x192;" horiz-adv-x="389" 
d="M347 744q-3 -13 -10 -56q0 -2 -2 -2q-1 0 -8 3t-12 3q-31 0 -46 -88l-1 -1l-17 -101h90v-61h-101l-78 -461q-11 -65 -57 -95q-33 -22 -76 -22q-30 0 -29 6q2 12 10 56q0 2 2 2t12.5 -3t18.5 -3q45 0 60 88l74 432h-90v61h100l23 131q11 65 50 95q28 22 63 22q25 0 24 -6z
" />
    <glyph glyph-name="guillemotleft" unicode="&#xab;" horiz-adv-x="455" 
d="M400 401l-140 -117l140 -97l-1 -81l-217 149v61l217 168zM218 401l-141 -117l141 -97l-1 -81l-217 149v61l217 155z" />
    <glyph glyph-name="guillemotright" unicode="&#xbb;" horiz-adv-x="445" 
d="M400 255l-216 -149l-1 81l140 97l-141 117l2 83l216 -168v-61zM218 255l-217 -149l-1 81l141 97l-141 117l1 83l217 -168v-61z" />
    <glyph glyph-name="ellipsis" unicode="&#x2026;" horiz-adv-x="515" 
d="M456 63q0 -26 -18.5 -44.5t-44.5 -18.5t-44 18.5t-18 44.5t18.5 44t43.5 18q26 0 44.5 -18t18.5 -44zM290 63q0 -26 -18 -44.5t-44 -18.5t-44.5 18.5t-18.5 44.5t18.5 44t44.5 18t44 -18t18 -44zM125 62q0 -26 -18.5 -44t-44.5 -18q-25 0 -43.5 18.5t-18.5 43.5
q0 26 18 44.5t44 18.5t44.5 -18.5t18.5 -44.5z" />
    <glyph glyph-name="nonbreakingspace" unicode="&#xa0;" 
 />
    <glyph glyph-name="Agrave" unicode="&#xc0;" horiz-adv-x="562" 
d="M286 812h-44l-127 140h91zM512 3l-65 -2l-91 311h-200l-93 -312l-63 1l226 749h60zM337 374l-81 275l-82 -275h163z" />
    <glyph glyph-name="Atilde" unicode="&#xc3;" horiz-adv-x="562" 
d="M387 907h52q0 -50 -31.5 -83.5t-70.5 -33.5q-52 0 -87.5 33.5t-64.5 33.5q-32 0 -47 -13q-10 -9 -12 -23l-2 -14q-14 0 -28 -1t-23 -1q-3 3 -3 15q0 30 21 52q29 32 94 32q46 0 87 -32t65 -32t36 18q7 11 10 32q3 17 4 17zM512 3l-65 -2l-91 311h-200l-93 -312l-63 1
l226 749h60zM337 374l-81 275l-82 -275h163z" />
    <glyph glyph-name="Otilde" unicode="&#xd5;" horiz-adv-x="691" 
d="M454 930h52q0 -50 -31.5 -83.5t-70.5 -33.5q-52 0 -87.5 33.5t-64.5 33.5q-32 0 -47 -13q-10 -9 -12 -23l-2 -14q-14 0 -28 -1t-23 -1q-3 3 -3 15q0 31 21 53q29 32 94 32q46 0 86.5 -32.5t65.5 -32.5q24 0 36 18q7 11 10 32q3 17 4 17zM642 375q0 -155 -94 -265
t-227 -110t-227 110t-94 265t94 265t227 110t227 -110t94 -265zM582 377q0 125 -76 214t-183 89q-108 0 -184 -89t-76 -214q0 -126 76 -215t184 -89q107 0 183 89t76 215z" />
    <glyph glyph-name="OE" unicode="&#x152;" horiz-adv-x="889" 
d="M877 1h-401l-1 130q-80 -131 -205 -131q-112 0 -191 110t-79 266t79 265t191 109q126 0 205 -129v129h400v-64h-336l1 -278h248v-64h-248v-278h337v-65zM475 377q0 128 -57 216.5t-146 88.5t-143.5 -88t-54.5 -217q0 -130 53 -218q55 -93 143 -93q89 0 148 93
q57 89 57 218z" />
    <glyph glyph-name="oe" unicode="&#x153;" horiz-adv-x="982" 
d="M942 233h-436q7 -72 60.5 -120.5t125.5 -48.5q86 0 144 66h78q-33 -59 -92 -94t-129 -35t-128.5 35.5t-91.5 94.5q-33 -60 -92 -95.5t-129 -35.5q-104 0 -178 74t-74 178t74 178t178 74q70 0 129 -36t91 -95q33 60 92 95.5t129 35.5q92 0 161.5 -58t86.5 -147zM874 299
q-16 61 -66.5 100.5t-115.5 39.5t-115 -39.5t-66 -100.5h363zM441 253q0 78 -55 133t-133 55t-133 -55t-55 -133t54.5 -133.5t132.5 -55.5q77 0 133 55.5t56 133.5z" />
    <glyph glyph-name="endash" unicode="&#x2013;" horiz-adv-x="368" 
d="M307 253h-307v61h307v-61z" />
    <glyph glyph-name="emdash" unicode="&#x2014;" horiz-adv-x="443" 
d="M381 253h-381v61h381v-61z" />
    <glyph glyph-name="quotedblleft" unicode="&#x201c;" horiz-adv-x="666" 
d="M309 576q0 -26 -18.5 -44t-44.5 -18q-25 0 -43.5 18.5t-18.5 43.5v10q-2 72 6 96q12 35 23 48q7 7 29 19q4 2 11 0q7 -1 7 -6q0 -4 -6 -8q-14 -10 -18 -21q-2 -5 -7 -32t-4 -47q12 4 21 4q26 0 44.5 -18.5t18.5 -44.5zM148 576q0 -26 -18 -44.5t-44 -18.5t-44.5 18.5
t-18.5 44.5v9q0 79 6 97q11 35 23 47q6 7 29 19q5 2 12 1q7 -2 7 -7q0 -4 -6 -8q-14 -10 -17.5 -18.5t-8 -31t-4.5 -50.5q9 4 30 4q25 0 39.5 -18t14.5 -44z" />
    <glyph glyph-name="quotedblright" unicode="&#x201d;" horiz-adv-x="348" 
d="M318 675q0 -75 -7 -97q-11 -35 -22 -47q-6 -7 -29 -19q-5 -2 -12 -1q-7 2 -7 7q0 4 6 8q14 10 18 20q3 7 8 31q4 21 4 49q-9 -4 -22 -4q-25 0 -43.5 18.5t-18.5 43.5q0 26 18 44.5t44 18.5q30 0 46.5 -21t16.5 -51zM157 674q2 -72 -6 -96q-12 -35 -23 -48q-7 -8 -29 -19
q-5 -2 -11 -1q-7 2 -7 6t6 9q13 10 17 21q2 4 8 31q4 18 4 48q-10 -3 -22 -3q-26 0 -44 18t-18 44t18.5 44t43.5 18q26 0 44.5 -18t18.5 -44v-10z" />
    <glyph glyph-name="quoteleft" unicode="&#x2018;" horiz-adv-x="375" 
d="M134 577q0 -26 -18 -44.5t-44 -18.5t-44.5 18.5t-18.5 44.5v10q-2 71 6 95q12 35 23 48q7 8 29 19q5 2 12 1q7 -2 7 -7q0 -4 -6 -8q-14 -10 -18 -21q-3 -6 -8 -31q-4 -20 -4 -48q9 4 22 4q26 0 44 -18t18 -44z" />
    <glyph glyph-name="quoteright" unicode="&#x2019;" horiz-adv-x="481" 
d="M289 679q2 -72 -6 -96q-11 -35 -23 -47q-6 -7 -29 -19q-5 -2 -12 -1q-7 2 -7 7q0 4 6 8q19 13 26 51q4 20 4 49h-17q-27 0 -47 16.5t-20 41.5q0 26 18 44t44 18t44.5 -18t18.5 -44v-10z" />
    <glyph glyph-name="divide" unicode="&#xf7;" horiz-adv-x="400" 
d="M228 442q0 -17 -12.5 -29.5t-30.5 -12.5t-30.5 12.5t-12.5 29.5q0 18 12.5 30.5t30.5 12.5t30.5 -12.5t12.5 -30.5zM370 281h-370v61h370v-61zM228 186q0 -18 -12.5 -30.5t-30.5 -12.5t-30.5 12.5t-12.5 30.5q0 17 12.5 29.5t30.5 12.5t30.5 -12.5t12.5 -29.5z" />
    <glyph glyph-name="ydieresis" unicode="&#xff;" horiz-adv-x="477" 
d="M343 585q0 -20 -14 -34t-34 -14t-34.5 14t-14.5 34t14.5 34.5t34.5 14.5t34 -14.5t14 -34.5zM180 585q0 -20 -14.5 -34.5t-34.5 -14.5t-34 14.5t-14 34.5t14 34.5t34 14.5t34.5 -14.5t14.5 -34.5zM152 -251h-60l96 258l-188 492l66 -1l153 -415l150 415l65 1z" />
    <glyph glyph-name="Ydieresis" unicode="&#x178;" horiz-adv-x="471" 
d="M351 831q0 -20 -14.5 -34.5t-34.5 -14.5t-34 14.5t-14 34.5t14 34.5t34 14.5t34.5 -14.5t14.5 -34.5zM188 831q0 -20 -14.5 -34.5t-34.5 -14.5t-34.5 14.5t-14.5 34.5t14.5 34.5t34.5 14.5t34.5 -14.5t14.5 -34.5zM250 367v-367h-64v366l-186 384h71l147 -303l146 303h72
z" />
    <glyph glyph-name="currency" unicode="&#xa4;" horiz-adv-x="701" 
d="M684 539h-77q-77 88 -183 88q-85 0 -150.5 -46.5t-93.5 -126.5h352v-60h-366q-3 -21 -3 -44q0 -17 4 -51h364v-60h-349q29 -77 94.5 -121.5t147.5 -44.5q99 0 175 79h82q-45 -70 -113 -111t-146 -41q-109 0 -193 65t-115 174h-114v60h103q-3 24 -3 50q0 17 2 45h-101v60
h112q30 111 114.5 177t194.5 66q80 0 149 -42.5t113 -115.5z" />
    <glyph glyph-name="currency" unicode="&#x20ac;" horiz-adv-x="701" 
d="M684 539h-77q-77 88 -183 88q-85 0 -150.5 -46.5t-93.5 -126.5h352v-60h-366q-3 -21 -3 -44q0 -17 4 -51h364v-60h-349q29 -77 94.5 -121.5t147.5 -44.5q99 0 175 79h82q-45 -70 -113 -111t-146 -41q-109 0 -193 65t-115 174h-114v60h103q-3 24 -3 50q0 17 2 45h-101v60
h112q30 111 114.5 177t194.5 66q80 0 149 -42.5t113 -115.5z" />
    <glyph glyph-name="guilsinglleft" unicode="&#x2039;" horiz-adv-x="272" 
d="M218 402l-141 -117l141 -97l-1 -82l-217 150v61l217 168z" />
    <glyph glyph-name="guilsinglright" unicode="&#x203a;" horiz-adv-x="262" 
d="M218 256l-217 -150l-1 82l141 97l-141 117l1 83l217 -168v-61z" />
    <glyph glyph-name="daggerdbl" unicode="&#x2021;" horiz-adv-x="444" 
d="M408 438h-170v-254h168v-64h-168v-183h-64v183h-174v64h174v254h-171v64h171v185h64v-185h170v-64z" />
    <glyph glyph-name="periodcentered" unicode="&#xb7;" horiz-adv-x="214" 
d="M155 375q0 -32 -23 -55t-55 -23t-54.5 23t-22.5 55t22.5 54.5t54.5 22.5t55 -22.5t23 -54.5z" />
    <glyph glyph-name="periodcentered" unicode="&#x2219;" horiz-adv-x="214" 
d="M155 375q0 -32 -23 -55t-55 -23t-54.5 23t-22.5 55t22.5 54.5t54.5 22.5t55 -22.5t23 -54.5z" />
    <glyph glyph-name="quotesinglbase" unicode="&#x201a;" horiz-adv-x="186" 
d="M125 51q2 -72 -6 -96q-12 -35 -23 -47q-6 -7 -29 -19q-5 -2 -12 -1q-7 2 -7 7q0 4 6 8q14 10 18 20q3 7 8 31q4 21 4 49h-17q-27 0 -47 16.5t-20 41.5q0 26 18.5 44t43.5 18q26 0 44.5 -18t18.5 -44v-10z" />
    <glyph glyph-name="quotedblbase" unicode="&#x201e;" horiz-adv-x="347" 
d="M286 53q0 -74 -7 -96q-11 -35 -22 -48q-7 -8 -29 -19q-5 -2 -12 -1q-7 2 -7 7q0 4 6 8q14 10 18 21q3 6 8 31q4 20 4 48q-14 -4 -22 -4q-26 0 -44 18.5t-18 44.5t18.5 44t43.5 18q30 0 46.5 -21t16.5 -51zM125 52q2 -71 -6 -96q-11 -35 -23 -47q-6 -7 -29 -19
q-5 -2 -11 -1q-7 2 -7 6t6 9q13 9 17 20q2 5 8 31q4 19 4 49q-9 -4 -22 -4q-25 0 -43.5 18.5t-18.5 43.5q0 26 18 44.5t44 18.5t44.5 -18.5t18.5 -44.5v-10z" />
    <glyph glyph-name="perthousand" unicode="&#x2030;" horiz-adv-x="878" 
d="M870 120q0 -48 -34.5 -82.5t-82.5 -34.5q-49 0 -83 34.5t-34 82.5q0 49 34 83t83 34q48 0 82.5 -34t34.5 -83zM234 572q0 -48 -34 -82.5t-83 -34.5t-83 34.5t-34 82.5q0 49 34 83t83 34t83 -34t34 -83zM552 689l-378 -688l-78 -1l378 689h78zM586 119q0 -49 -34 -83
t-83 -34q-48 0 -82.5 34t-34.5 83q0 48 36.5 83t85.5 35q48 0 80 -34.5t32 -83.5zM823 117q0 30 -21 51t-50 21q-30 0 -51 -21t-21 -51q0 -29 21 -50t51 -21q29 0 50 21t21 50zM188 569q0 30 -21 51t-51 21t-51 -21t-21 -51q0 -29 21 -50t51 -21t51 21t21 50zM540 116
q0 29 -21 50.5t-51 21.5q-29 0 -50 -21.5t-21 -50.5t23.5 -49.5t53.5 -20.5t48 20t18 50z" />
    <glyph glyph-name="Acircumflex" unicode="&#xc2;" horiz-adv-x="562" 
d="M347 798l-87 122l-81 -124h-66l118 174h61l119 -173zM512 3l-65 -2l-91 311h-200l-93 -312l-63 1l226 749h60zM337 374l-81 275l-82 -275h163z" />
    <glyph glyph-name="Ecircumflex" unicode="&#xca;" horiz-adv-x="413" 
d="M279 789l-87 123l-81 -125l-65 1l117 173h61l120 -172h-65zM401 0h-401v750h400v-64h-336v-277h249v-64h-249v-281h337v-64z" />
    <glyph glyph-name="Aacute" unicode="&#xc1;" horiz-adv-x="562" 
d="M395 942l-127 -140h-44l80 140h91zM512 3l-65 -2l-91 311h-200l-93 -312l-63 1l226 749h60zM337 374l-81 275l-82 -275h163z" />
    <glyph glyph-name="Edieresis" unicode="&#xcb;" horiz-adv-x="413" 
d="M327 850q0 -20 -14.5 -34.5t-34.5 -14.5t-34.5 14.5t-14.5 34.5t14.5 34.5t34.5 14.5t34.5 -14.5t14.5 -34.5zM163 850q0 -20 -14 -34.5t-34 -14.5t-34.5 14.5t-14.5 34.5t14.5 34t34.5 14t34 -14t14 -34zM401 0h-401v750h400v-64h-336v-277h249v-64h-249v-281h337v-64z
" />
    <glyph glyph-name="Egrave" unicode="&#xc8;" horiz-adv-x="413" 
d="M239 820h-44l-127 140h91zM401 0h-401v750h400v-64h-336v-277h249v-64h-249v-281h337v-64z" />
    <glyph glyph-name="Iacute" unicode="&#xcd;" horiz-adv-x="160" 
d="M171 942l-127 -141h-44l80 141h91zM6 0v750h64v-750h-64z" />
    <glyph glyph-name="Icircumflex" unicode="&#xce;" horiz-adv-x="278" 
d="M234 789l-87 122l-81 -124l-66 1l118 173h61l119 -173zM116 0v750h64v-750h-64z" />
    <glyph glyph-name="Idieresis" unicode="&#xcf;" horiz-adv-x="243" 
d="M261 838q0 -20 -14.5 -34.5t-34.5 -14.5t-34.5 14.5t-14.5 34.5t14.5 34t34.5 14t34.5 -14t14.5 -34zM97 837q0 -20 -14 -34t-34 -14t-34.5 14t-14.5 34t14.5 34.5t34.5 14.5t34 -14.5t14 -34.5zM97 -1v750h65v-750h-65z" />
    <glyph glyph-name="Igrave" unicode="&#xcc;" horiz-adv-x="243" 
d="M171 821h-44l-127 140h91zM116 -1v750h64v-750h-64z" />
    <glyph glyph-name="Oacute" unicode="&#xd3;" horiz-adv-x="691" 
d="M464 949l-127 -140h-44l80 140h91zM642 375q0 -155 -94 -265t-227 -110t-227 110t-94 265t94 265t227 110t227 -110t94 -265zM582 377q0 125 -76 214t-183 89q-108 0 -184 -89t-76 -214q0 -126 76 -215t184 -89q107 0 183 89t76 215z" />
    <glyph glyph-name="Ocircumflex" unicode="&#xd4;" horiz-adv-x="691" 
d="M397 799l-87 122l-82 -125l-65 1l118 173h61l119 -172zM642 375q0 -155 -94 -265t-227 -110t-227 110t-94 265t94 265t227 110t227 -110t94 -265zM582 377q0 125 -76 214t-183 89q-108 0 -184 -89t-76 -214q0 -126 76 -215t184 -89q107 0 183 89t76 215z" />
    <glyph glyph-name="Ograve" unicode="&#xd2;" horiz-adv-x="691" 
d="M369 805h-44l-127 140h91zM642 375q0 -155 -94 -265t-227 -110t-227 110t-94 265t94 265t227 110t227 -110t94 -265zM582 377q0 125 -76 214t-183 89q-108 0 -184 -89t-76 -214q0 -126 76 -215t184 -89q107 0 183 89t76 215z" />
    <glyph glyph-name="Uacute" unicode="&#xda;" horiz-adv-x="584" 
d="M379 936l-127 -141h-44l80 141h91zM524 750v-494q0 -256 -273 -256q-248 0 -251 249q-1 108 0 280q1 228 1 220h64v-487q0 -204 187 -203q101 0 154 53q49 50 49 139v499h69z" />
    <glyph glyph-name="Ucircumflex" unicode="&#xdb;" horiz-adv-x="584" 
d="M339 800l-87 122l-82 -124l-65 1l118 173h61l119 -172h-64zM524 750v-494q0 -256 -273 -256q-248 0 -251 249q-1 108 0 280q1 228 1 220h64v-487q0 -204 187 -203q101 0 154 53q49 50 49 139v499h69z" />
    <glyph glyph-name="Ugrave" unicode="&#xd9;" horiz-adv-x="584" 
d="M294 828h-44l-127 140h91zM524 750v-494q0 -256 -273 -256q-248 0 -251 249q-1 108 0 280q1 228 1 220h64v-487q0 -204 187 -203q101 0 154 53q49 50 49 139v499h69z" />
    <glyph glyph-name="circumflex" unicode="&#x2c6;" horiz-adv-x="348" 
d="M234 518l-87 122l-81 -124l-66 1l118 173h61l119 -173z" />
    <glyph glyph-name="tilde" unicode="&#x2dc;" horiz-adv-x="426" 
d="M317 756h52q0 -50 -31.5 -83.5t-70.5 -33.5q-53 0 -88.5 33.5t-64.5 33.5q-31 0 -46 -13q-11 -9 -13 -23t-1 -14q-14 0 -28 -1t-23 -1q-3 3 -3 16q0 30 20 52q30 32 94 32q46 0 87 -32.5t66 -32.5q23 0 35 18q8 11 11 32q3 17 4 17z" />
    <glyph glyph-name="macron" unicode="&#xaf;" horiz-adv-x="379" 
d="M0 690h315v-62h-315v62z" />
    <glyph glyph-name="macron" unicode="&#x2c9;" horiz-adv-x="379" 
d="M0 690h315v-62h-315v62z" />
    <glyph glyph-name="cedilla" unicode="&#xb8;" horiz-adv-x="191" 
d="M196 -134q0 -64 -54 -94q-39 -22 -96 -22q-46 0 -46 7v56q0 8 28 8q40 0 57 4q33 8 42 35q5 16 -42.5 39.5t-44.5 30.5l21 70h69l-25 -49q91 -42 91 -85z" />
    <glyph glyph-name="Scaron" unicode="&#x160;" horiz-adv-x="504" 
d="M155 977l87 -122l81 125l65 -1l-117 -173h-61l-120 172zM459 221q0 -139 -86 -189q-54 -32 -163 -32q-94 0 -151.5 40t-57.5 102l75 2q0 -39 46 -63q36 -19 67 -19q106 0 151 30q54 37 54 134q0 34 -62 77q-57 39 -104 47q-80 13 -135 47q-93 56 -93 159q0 121 72 163
q53 31 180 31q70 0 123 -33q63 -39 64 -110l-67 3q-12 76 -134 80q-91 3 -127 -19q-48 -29 -48 -117q0 -107 182 -143q62 -11 120 -46q94 -57 94 -144z" />
    <glyph glyph-name="scaron" unicode="&#x161;" horiz-adv-x="354" 
d="M73 720l87 -122l81 124l66 -1l-118 -173h-61l-119 172h64zM305 147q0 -92 -57 -126q-36 -21 -108 -21q-53 0 -95.5 29t-44.5 65l62 1q0 -12 20.5 -24t44.5 -12q3 0 14 -1h19q86 0 86 90q0 22 -25 46.5t-51.5 31t-50.5 13.5q-49 15 -78 41q-41 36 -41 90q0 80 48 108
q35 21 120 21q45 0 87 -28q47 -33 48 -80l-58 1q-8 48 -87 48q-97 0 -97 -74q0 -45 53 -69q28 -7 56 -15q27 -2 72 -33q63 -42 63 -102z" />
    <glyph glyph-name="brokenbar" unicode="&#xa6;" horiz-adv-x="123" 
d="M64 312h-64v325h64v-325zM64 -157h-64v339h64v-339z" />
    <glyph glyph-name="Eth" unicode="&#xd0;" horiz-adv-x="545" 
d="M497 375q0 -153 -111 -265q-107 -110 -244 -110h-76v353h-66v60h66v337h76q137 0 244 -109q111 -113 111 -266zM433 377q0 139 -108 228q-91 75 -194 75v-267h179v-60h-179v-281q121 0 211.5 93t90.5 212z" />
    <glyph glyph-name="eth" unicode="&#xf0;" horiz-adv-x="513" 
d="M497 711l-82 -68q20 -62 22 -161q1 -43 0 -110q-1 -47 -3 -105q-1 -51 -1 -49q-5 -43 -12 -50q-26 -74 -91 -121t-146 -47q-184 0 -184 250q0 104 73.5 177.5t177.5 73.5q82 0 128 -51q-4 50 -18 148l-60 -50h-75l116 98q-13 20 -37 37q-15 10 -48 10q-62 0 -77 -30
l-7 55q10 34 117 32q68 -3 103 -61l27 22h77zM372 252q0 91 -21 132q-27 54 -99 54q-77 0 -132 -54.5t-55 -132.5q0 -90 21 -132q28 -54 99 -54q77 0 132 55t55 132z" />
    <glyph glyph-name="Yacute" unicode="&#xdd;" horiz-adv-x="471" 
d="M357 930l-127 -140h-44l80 140h91zM250 367v-367h-64v366l-186 384h71l147 -303l146 303h72z" />
    <glyph glyph-name="yacute" unicode="&#xfd;" horiz-adv-x="467" 
d="M346 755l-127 -140h-44l80 140h91zM152 -251h-60l96 258l-188 492l66 -1l153 -415l150 415l65 1z" />
    <glyph glyph-name="Thorn" unicode="&#xde;" horiz-adv-x="414" 
d="M382 419q0 -127 -80 -179q-65 -42 -199 -42h-39v-198h-64v750h64v-115h65q112 0 181 -55q72 -58 72 -161zM319 418q0 156 -255 156v-310q150 0 198 26q57 30 57 128z" />
    <glyph glyph-name="thorn" unicode="&#xfe;" horiz-adv-x="533" 
d="M504 251q0 -104 -73.5 -177.5t-177.5 -73.5q-116 0 -190 87v-335h-63v947h62l1 -284q76 87 190 87q104 0 177.5 -73.5t73.5 -177.5zM439 250q0 77 -55 132t-132 55q-78 0 -133 -55t-55 -132q0 -78 55 -133t133 -55q77 0 132 55t55 133z" />
    <glyph glyph-name="minus" unicode="&#xad;" horiz-adv-x="540" 
d="M0 287v61h476v-61h-476z" />
    <glyph glyph-name="minus" unicode="&#x2212;" horiz-adv-x="540" 
d="M0 287v61h476v-61h-476z" />
    <glyph glyph-name="multiply" unicode="&#xd7;" horiz-adv-x="364" 
d="M306 220l-43 -43l-110 110l-110 -110l-43 43l110 110l-108 109l43 43l108 -109l109 108l43 -43l-109 -108z" />
    <glyph glyph-name="onesuperior" unicode="&#xb9;" horiz-adv-x="157" 
d="M95 313h-47v327h-48v48l95 -1v-374z" />
    <glyph glyph-name="twosuperior" unicode="&#xb2;" horiz-adv-x="272" 
d="M217 301h-212v44q152 159 164 230q0 61 -66 61q-49 -2 -49 -35q0 -6 2 -13h-55q-1 8 -1 16q0 71 95 76q63 0 88 -20q30 -24 30 -87q0 -39 -50 -115q-40 -60 -90 -113h144v-44z" />
    <glyph glyph-name="threesuperior" unicode="&#xb3;" horiz-adv-x="271" 
d="M211 579q0 -59 -50 -81q49 -24 49 -82q0 -65 -25.5 -86.5t-88.5 -21.5q-96 6 -96 77q0 8 1 16h50q-2 -8 -2 -15q0 -36 55 -39q44 0 58 19q10 14 10 51q0 43 -64 55l-72 4v41q124 -6 134 63q0 36 -14 51.5t-52 15.5q-54 -3 -54 -40q0 -6 1 -12h-49q-1 9 -1 17q0 70 95 75
q63 0 87 -20q28 -24 28 -88z" />
    <glyph glyph-name="onehalf" unicode="&#xbd;" horiz-adv-x="700" 
d="M659 0h-212v44q151 159 163 230q0 62 -66 62q-48 -2 -48 -34q0 -7 2 -14h-55q-1 9 -1 17q0 69 94 74q63 0 89 -20q29 -24 29 -87q0 -73 -139 -228h144v-44zM531 688l-408 -688h-69l408 688h69zM95 313h-47v327h-48v48h95v-375z" />
    <glyph glyph-name="onequarter" unicode="&#xbc;" horiz-adv-x="654" 
d="M612 112h-68v-112h-41v110l-140 2v40l142 226h39v-226h68v-40zM531 688l-408 -688h-70l409 688h69zM95 313h-47v327h-48v48l95 -1v-374zM504 296l-85 -144h84z" />
    <glyph glyph-name="threequarters" unicode="&#xbe;" horiz-adv-x="687" 
d="M579 688l-409 -688h-69l409 688h69zM612 112h-68v-112h-41v110l-140 2v40l142 226h39v-226h68v-40zM211 579q0 -59 -50 -81q49 -24 49 -82q0 -65 -25.5 -86.5t-88.5 -21.5q-96 6 -96 77q0 8 1 16h50q-2 -8 -2 -15q0 -36 55 -39q44 0 58 19q10 14 10 51q0 43 -64 55l-72 4
v41q124 -6 134 63q0 36 -14 51.5t-52 15.5q-54 -3 -54 -40q0 -6 1 -12h-49q-1 9 -1 17q0 70 95 75q63 0 87 -20q28 -24 28 -88zM504 296l-85 -144h84z" />
    <glyph glyph-name=".null" 
 />
    <glyph glyph-name="Lslash" unicode="&#x141;" horiz-adv-x="529" 
d="M521 0h-409v297l-27 -25h-85l112 103v375h64v-317l81 75h82l-163 -152v-292h345v-64z" />
    <glyph glyph-name="lslash" unicode="&#x142;" horiz-adv-x="383" 
d="M348 528l-143 -146v-382h-64v316l-50 -50h-91l141 142v342h64v-277l54 55h89z" />
    <glyph glyph-name="HT" 
 />
    <glyph glyph-name="LF" 
 />
    <glyph glyph-name="nonmarkingreturn" 
 />
    <glyph glyph-name="Zcaron" unicode="&#x17d;" horiz-adv-x="531" 
d="M166 969l87 -122l81 124l66 -1l-118 -173h-61l-119 172h64zM503 64v-64h-503v64h1l422 622h-423v64h502v-64l-426 -622h427z" />
    <glyph glyph-name="zcaron" unicode="&#x17e;" horiz-adv-x="379" 
d="M81 727l87 -122l81 124l66 -1l-118 -173h-61l-119 172h64zM77 64h258v-64h-333v64h1l251 372h-254v64h334v-64z" />
    <glyph glyph-name="DLE" 
 />
    <glyph glyph-name="DC1" 
 />
    <glyph glyph-name="DC2" 
 />
    <glyph glyph-name="DC3" 
 />
    <glyph glyph-name="DC4" 
 />
    <glyph glyph-name="RS" 
 />
    <glyph glyph-name="US" 
 />
    <glyph glyph-name="DEL" 
 />
    <glyph glyph-name="notequal" unicode="&#x2260;" horiz-adv-x="415" 
d="M371 190h-222l-46 -74h-72l45 74h-75v61h112l75 122h-188v61h225l47 79l72 -1l-47 -78h73v-61h-110l-75 -122h186v-61z" />
    <glyph glyph-name="infinity" unicode="&#x221e;" horiz-adv-x="673" 
d="M618 295q0 -58 -41 -99.5t-100 -41.5q-43 0 -92 23t-76 58q-27 -35 -76 -58t-92 -23q-58 0 -99.5 41.5t-41.5 99.5q0 59 41.5 100t99.5 41q43 0 92 -23t76 -58q27 35 77 59q47 22 91 22q59 0 100 -41t41 -100zM572 295q0 40 -28 67.5t-67 27.5q-45 0 -92 -28
q-53 -30 -53 -67t53 -67q47 -28 92 -28q39 0 67 27.5t28 67.5zM286 295q0 37 -53 67q-47 28 -92 28q-40 0 -67.5 -27.5t-27.5 -67.5t27.5 -67.5t67.5 -27.5q45 0 92 28q53 30 53 67z" />
    <glyph glyph-name="lessequal" unicode="&#x2264;" horiz-adv-x="454" 
d="M403 353l-289 -95l289 -100l-1 -74l-400 146v55l400 143zM404 0h-404v62h404v-62z" />
    <glyph glyph-name="greaterequal" unicode="&#x2265;" horiz-adv-x="443" 
d="M402 229l-400 -145l-1 74l289 99l-289 95l1 75l400 -142v-56zM404 0h-404v62h404v-62z" />
    <glyph glyph-name="partialdiff" unicode="&#x2202;" horiz-adv-x="501" 
d="M438 484q1 -57 -1 -139q-2 -97 -2 -112q0 -110 -84 -176q-73 -57 -167 -57q-184 0 -184 251q0 104 74 177.5t178 73.5q82 0 128 -51q0 107 -36 171q-41 72 -121 72q-86 0 -119 -64h-68q0 53 62 88.5t142 31.5q78 -4 131 -63q64 -72 67 -203zM373 253q0 91 -21 132
q-27 54 -99 54q-78 0 -133 -55t-55 -132q0 -90 22 -132q27 -55 99 -55q77 0 132 55t55 133z" />
    <glyph glyph-name="summation" unicode="&#x2211;" horiz-adv-x="431" 
d="M405 693h-340l234 -387l-234 -382h340v-60h-405v60l239 382l-239 387v61h405v-61z" />
    <glyph glyph-name="product" unicode="&#x220f;" horiz-adv-x="382" 
d="M304 509h-264v65h264v-65zM349 347h-144v-347h-64v347h-141v64h349v-64z" />
    <glyph glyph-name="pi" unicode="&#x3c0;" horiz-adv-x="800" 
d="M750 375q0 -155 -110 -265t-265 -110t-265 110t-110 265t110 265t265 110t265 -110t110 -265zM690 378q0 131 -92.5 224t-223.5 93t-223.5 -93t-92.5 -224t92.5 -223.5t223.5 -92.5t223.5 92.5t92.5 223.5zM593 478q0 -116 -134 -157q-60 -18 -144 -18v-196h-64v541h100
q112 0 177 -47t65 -123zM530 476q0 111 -215 111v-218q215 0 215 107z" />
    <glyph glyph-name="integral" unicode="&#x222b;" horiz-adv-x="210" 
d="M221 744v-56q0 -2 -2 -2q-1 0 -12 3t-19 3q-45 0 -45 -88v-626q0 -65 -40 -96q-29 -22 -72 -22q-31 0 -31 7v56q0 2 2 2q1 0 12.5 -3.5t19.5 -3.5q45 0 45 88v627q0 65 40 95q29 22 72 22q30 0 30 -6z" />
    <glyph glyph-name="Omega" unicode="&#x3a9;" horiz-adv-x="768" 
d="M718 82v-82h-281v82q78 31 127.5 113t49.5 181q0 126 -76.5 215t-183.5 89q-108 0 -184 -89t-76 -215q0 -103 52 -184.5t134 -109.5v0h1v-82h-281v82h147q-117 114 -117 292q0 156 94 266t228 110q133 0 227 -110t94 -266q0 -180 -117 -292h162z" />
    <glyph glyph-name="Omega" unicode="&#x2126;" horiz-adv-x="768" 
d="M718 82v-82h-281v82q78 31 127.5 113t49.5 181q0 126 -76.5 215t-183.5 89q-108 0 -184 -89t-76 -215q0 -103 52 -184.5t134 -109.5v0h1v-82h-281v82h147q-117 114 -117 292q0 156 94 266t228 110q133 0 227 -110t94 -266q0 -180 -117 -292h162z" />
    <glyph glyph-name="radical" unicode="&#x221a;" horiz-adv-x="557" 
d="M516 750l-227 -750h-60l-130 430l-98 -119l-1 83l78 105h65l116 -398l193 649h64z" />
    <glyph glyph-name="approxequal" unicode="&#x2248;" horiz-adv-x="582" 
d="M527 417q-29 -133 -123 -133q-8 0 -16.5 1l-8.5 1q-63 0 -123 37.5t-118 37.5q-47 0 -67 -63h-71q34 124 138 124q68 0 118 -19q19 -7 67 -36q33 -19 60 -19q61 0 79 69h65zM529 262q-29 -133 -122 -133q-8 0 -17 1l-9 1q-62 0 -122 37.5t-119 37.5q-46 0 -66 -63h-71
q34 124 137 124q69 0 119 -19q18 -7 67 -36q33 -19 60 -19q59 0 79 69h64z" />
    <glyph glyph-name="approxequal" unicode="&#x22f2;" horiz-adv-x="582" 
d="M527 417q-29 -133 -123 -133q-8 0 -16.5 1l-8.5 1q-63 0 -123 37.5t-118 37.5q-47 0 -67 -63h-71q34 124 138 124q68 0 118 -19q19 -7 67 -36q33 -19 60 -19q61 0 79 69h65zM529 262q-29 -133 -122 -133q-8 0 -17 1l-9 1q-62 0 -122 37.5t-119 37.5q-46 0 -66 -63h-71
q34 124 137 124q69 0 119 -19q18 -7 67 -36q33 -19 60 -19q59 0 79 69h64z" />
    <glyph glyph-name="Delta" unicode="&#x394;" horiz-adv-x="619" 
d="M571 0h-571v61h1l283 689l287 -690v0v-60zM505 61l-221 523l-218 -523h439z" />
    <glyph glyph-name="Delta" unicode="&#x2206;" horiz-adv-x="619" 
d="M571 0h-571v61h1l283 689l287 -690v0v-60zM505 61l-221 523l-218 -523h439z" />
    <glyph glyph-name="lozenge" unicode="&#x25ca;" horiz-adv-x="412" 
d="M183 750l183 -373l-185 -377l-179 376zM180 167l106 212l-103 204l-103 -207z" />
    <glyph glyph-name="fraction" unicode="&#x2044;" horiz-adv-x="558" 
d="M529 750l-466 -749h-63l465 750z" />
    <glyph glyph-name="fi" unicode="&#xf001;" horiz-adv-x="368" 
d="M315 705q0 -19 -13 -32t-32 -13q-18 0 -31 13t-13 32t13 32t31 13q19 0 32 -13t13 -32zM302 3h-63v435h-114v-438h-63v438h-62v63h62l-1 131q0 65 40 95q29 22 72 22q31 0 31 -6v-56q0 -2 -2 -2q-1 0 -12.5 3.5t-19.5 3.5q-45 0 -45 -88v-103h177v-498z" />
    <glyph glyph-name="fl" unicode="&#xf002;" horiz-adv-x="408" 
d="M352 7q0 -6 -23 -6q-31 0 -53 21q-29 30 -29 95v47q1 295 1 274h-123v-438h-63v438h-62v64h62l-1 131q0 65 40 95q29 22 72 22q31 0 31 -6v-56q0 -2 -2 -2q-1 0 -12.5 3t-19.5 3q-45 0 -45 -88v-102h123v247h63v-604q0 -26 20.5 -56t20.5 -26v-56z" />
    <glyph glyph-name="apple" unicode="&#xf000;" horiz-adv-x="666" 
d="M604 750v-750h-604v750h604zM593 605q0 49 -45 83t-110 34q-64 0 -109 -34t-45 -83q0 -48 45 -82.5t109 -34.5t109.5 34.5t45.5 82.5zM52 673h86v-171h105v171h35v11h-35v49h-105v-49h-86v-11zM576 68q0 17 -29 29.5t-69 12.5t-68.5 -12.5t-28.5 -29.5q0 -18 28 -30.5
t69 -12.5t69.5 12.5t28.5 30.5zM295 302v-161h138v286h-138v-2l-4 1l-81 -263l-75 151v122h-85v-378h85v169l59 -118l-30 -95l41 -4l15 47l18 -38l35 18l-37 73zM488 65q0 -13 -18 -13t-18 13q0 12 18 12t18 -12z" />
    <glyph glyph-name="dotlessi" unicode="&#x131;" horiz-adv-x="125" 
d="M63 0h-63v497h63v-497z" />
    <glyph glyph-name="breve" unicode="&#x2d8;" horiz-adv-x="385" 
d="M326 750q3 -114 -165 -123q-48 3 -82 15q-82 31 -79 108h21q21 -1 37 -1q-2 0 7 -19q11 -22 29 -35q27 -19 67 -19t66 19q18 14 29 36q9 19 8 19h62z" />
    <glyph glyph-name="dotaccent" unicode="&#x2d9;" horiz-adv-x="212" 
d="M77 497q-32 0 -54.5 23t-22.5 55t22.5 54.5t54.5 22.5t55 -22.5t23 -54.5t-23 -55t-55 -23z" />
    <glyph glyph-name="ring" unicode="&#x2da;" horiz-adv-x="244" 
d="M186 594q0 -38 -27.5 -65.5t-65.5 -27.5t-65.5 27.5t-27.5 65.5q0 39 27.5 66t65.5 27t65.5 -27t27.5 -66zM146 594q0 22 -15.5 37.5t-37.5 15.5t-37.5 -15.5t-15.5 -37.5t15.5 -37.5t37.5 -15.5t37.5 15.5t15.5 37.5z" />
    <glyph glyph-name="hungarumlaut" unicode="&#x2dd;" horiz-adv-x="371" 
d="M319 670l-127 -140h-44l80 140h91zM171 670l-127 -140h-44l80 140h91z" />
    <glyph glyph-name="ogonek" unicode="&#x2db;" horiz-adv-x="151" 
d="M88 0q3 0 3 -3l-19.5 -39t-19.5 -72q2 -12 13 -21q27 -22 93 -23v-40q0 -4 -16 -4q-42 0 -86 19q-56 23 -56 60q0 50 24 86.5t64 36.5z" />
    <glyph glyph-name="caron" unicode="&#x2c7;" horiz-adv-x="350" 
d="M64 660l87 -122l82 124l65 -1l-118 -173h-61l-119 172h64z" />
    <glyph glyph-name="glyph259" horiz-adv-x="1000" 
 />
  </font>
</defs>
</svg>
